<svg version="1.1" id="Layer_1" xmlns="http://www.w3.org/2000/svg" xmlns:xlink="http://www.w3.org/1999/xlink" x="0px" y="0px"
	 width="100%" viewBox="0 0 685 885" enable-background="new 0 0 685 885" xml:space="preserve">
<path fill="#FEFEFE" opacity="1.000000" stroke="none" 
	d="
M165.000000,886.000000 
	C110.388947,886.000000 55.777889,886.000000 1.000000,886.000000 
	C1.000000,800.642639 1.000000,715.285217 1.418170,629.484497 
	C6.991358,629.217529 12.155479,629.258972 17.298956,629.606262 
	C22.967255,629.989075 24.848747,631.888306 24.850220,637.382385 
	C24.860712,676.542969 24.909037,715.704102 24.693060,754.863708 
	C24.624731,767.252991 24.273010,767.251038 11.703565,767.274658 
	C4.687973,767.287842 3.882890,768.550476 6.329964,775.536621 
	C26.152107,775.536621 45.935844,775.536621 65.713547,775.536621 
	C67.827103,768.095886 67.266060,767.299377 59.946960,767.271973 
	C57.447468,767.262634 54.946583,767.268738 52.448971,767.187134 
	C46.473785,766.991821 45.603058,766.181213 45.520889,760.054138 
	C45.348827,747.224609 45.282524,734.393494 45.195488,721.562866 
	C45.161919,716.614197 45.190014,711.665100 45.190014,705.867493 
	C55.199978,706.431091 64.624969,706.887756 74.038063,707.521179 
	C79.162231,707.866028 82.192078,710.906555 83.453171,715.764404 
	C84.488960,719.754333 85.425743,723.770020 86.517181,728.226562 
	C88.782120,727.743286 90.797478,727.313171 92.496124,726.950684 
	C92.496124,710.053650 92.496124,693.644836 92.496124,677.375122 
	C85.877701,675.822144 85.948021,675.837891 84.677505,681.522217 
	C83.918182,684.919434 83.469414,688.578613 81.819115,691.525391 
	C80.406883,694.047058 77.661850,697.212524 75.195580,697.509094 
	C65.383842,698.688965 55.450459,698.857117 45.709484,699.391846 
	C45.709484,675.334839 45.709484,652.293579 45.709484,630.014587 
	C59.216511,630.014587 72.179153,629.981445 85.141533,630.025635 
	C94.653168,630.058105 102.169746,634.041626 107.649345,641.795044 
	C111.973244,647.913147 116.106140,654.170959 120.600052,660.159485 
	C121.345261,661.152588 123.572739,661.531006 124.986992,661.322693 
	C125.738754,661.212036 126.917862,659.081299 126.709816,658.121216 
	C124.041786,645.808533 121.157768,633.542603 118.307899,621.175415 
	C117.504776,621.084290 116.861389,620.947388 116.218002,620.947388 
	C79.393677,620.947998 42.569332,620.947205 5.745106,621.014282 
	C4.162809,621.017212 2.581674,621.656921 0.999999,622.000000 
	C1.000000,415.075409 1.000000,208.150848 1.000000,1.000000 
	C184.690689,1.000000 368.381470,1.000000 552.337036,1.359636 
	C542.240784,3.298097 531.792542,4.446153 521.532959,6.525390 
	C453.023163,20.409819 390.673584,49.559292 330.540619,84.106514 
	C329.412262,84.754784 328.708710,86.142540 327.806946,87.185272 
	C329.943542,87.502998 331.261017,86.945663 332.538513,86.308121 
	C344.299591,80.438728 355.978088,74.397995 367.823242,68.703865 
	C415.256897,45.901905 463.874908,26.764112 516.856506,21.465601 
	C541.212585,19.029835 565.418762,19.300196 589.207214,26.031151 
	C627.119263,36.758411 648.946411,63.816143 651.217102,103.050636 
	C652.710144,128.845856 646.616760,153.300446 637.398376,177.064697 
	C618.683228,225.310883 589.950378,267.470795 556.835754,306.720551 
	C505.394958,367.691711 446.049042,420.030731 380.721558,465.680817 
	C379.289917,466.681244 377.875549,467.706360 376.453094,468.719940 
	C376.692017,469.144714 376.930969,469.569489 377.169891,469.994263 
	C379.004578,469.152588 380.984924,468.532684 382.652893,467.437164 
	C442.433838,428.173096 498.140686,383.869293 548.541870,333.030304 
	C585.389099,295.863068 618.537842,255.745132 645.098206,210.493439 
	C664.520325,177.403381 680.266907,142.840851 684.434326,104.114571 
	C686.477173,85.130501 684.984070,66.458473 676.497131,48.970913 
	C664.414673,24.074486 643.104492,11.390567 617.235718,5.027847 
	C610.878235,3.464153 604.414734,2.331056 598.000000,0.999999 
	C627.324890,1.000000 656.649841,1.000000 685.981079,1.000000 
	C685.987366,295.906952 685.987366,590.813904 685.987366,886.000000 
	C513.642700,886.000000 341.285217,886.000000 168.609772,885.691772 
	C170.887192,880.228516 173.504410,875.084351 176.071548,869.915405 
	C178.419785,865.187256 180.713898,860.432312 182.945892,855.865051 
	C181.650375,855.865051 179.595932,855.865051 177.515915,855.865051 
	C180.290649,861.266968 175.777359,864.571533 173.806061,868.779724 
	C172.857712,864.545349 171.909348,860.310974 170.841156,855.541565 
	C168.907074,855.684204 165.961716,855.901367 162.604828,855.940063 
	C160.704071,855.761475 159.214859,855.761475 157.610382,855.761475 
	C157.246658,854.051636 156.943008,852.624146 156.597824,851.001343 
	C154.445023,853.296143 152.631821,855.228882 151.566162,856.364807 
	C152.393143,858.556458 153.333847,860.122375 153.522720,861.774231 
	C153.784775,864.066101 153.178345,866.468018 153.518372,868.736755 
	C153.786606,870.526550 154.521667,873.164551 155.766647,873.674377 
	C157.630432,874.437622 160.123398,873.664429 162.348740,873.544678 
	C156.435120,871.697571 155.605316,869.196228 157.430267,858.537048 
	C159.389511,858.039795 161.213333,857.576843 163.414520,857.071350 
	C164.779480,857.525024 166.368515,857.793030 166.657379,858.554382 
	C168.589279,863.646423 171.031250,868.747437 171.677719,874.044495 
	C172.034668,876.969238 171.535767,881.787964 165.921265,882.042725 
	C162.833344,882.182861 164.100342,884.373718 165.000000,886.000000 
M44.630741,858.178528 
	C44.630741,858.178528 44.995327,857.918640 45.877666,857.815063 
	C47.614094,858.582214 50.752968,859.204773 50.849483,860.140930 
	C51.322411,864.728271 52.763420,869.642395 48.727596,874.081787 
	C50.516384,874.081787 51.823143,874.112915 53.127758,874.073303 
	C54.516438,874.031189 55.903084,873.922058 56.622700,873.880615 
	C55.977520,871.750488 55.207340,869.986084 54.951263,868.149963 
	C54.678329,866.192993 54.955475,864.165833 54.880733,862.173462 
	C54.640648,855.773987 50.829079,853.628357 44.364197,856.703796 
	C44.244537,856.830872 44.124878,856.957947 43.298271,857.125610 
	C42.889725,856.925903 42.481182,856.726196 42.044598,855.898376 
	C40.365372,856.345276 38.686146,856.792236 36.985088,857.244995 
	C40.008297,863.202698 40.079010,868.520996 37.386108,873.732666 
	C39.833935,873.732666 42.330093,873.732666 45.099655,873.732666 
	C42.147053,870.291077 41.862091,863.103516 44.160160,858.248291 
	C44.160160,858.248291 44.187428,858.241333 44.630741,858.178528 
M605.197327,873.542542 
	C607.072937,873.480164 608.948547,873.417725 610.253052,873.374329 
	C608.865295,871.184326 607.564026,869.892151 607.209473,868.378357 
	C606.766418,866.486145 607.104858,864.411621 607.101074,862.415771 
	C607.086670,854.822632 604.411987,853.232300 597.674194,856.807251 
	C599.411072,856.988220 601.148010,857.169250 603.470337,857.411255 
	C602.886963,859.932678 602.424866,861.930115 601.249084,864.065369 
	C599.756226,864.958313 597.754333,865.518127 596.897522,866.827271 
	C595.788818,868.521606 595.593689,870.813843 595.005249,872.848633 
	C596.887390,873.232483 598.762207,873.863831 600.654053,873.919861 
	C602.101257,873.962646 603.569946,873.277832 605.197327,873.542542 
M305.937012,867.261047 
	C305.017059,863.544128 304.097107,859.827271 303.126587,855.906128 
	C301.739960,855.906128 299.166595,855.906128 297.514923,855.906128 
	C300.126648,862.053650 302.771698,868.279602 305.992004,875.859558 
	C307.102417,872.974182 307.664032,871.514832 308.768341,869.641785 
	C311.096222,864.972168 313.424103,860.302612 315.756104,855.624756 
	C315.158569,855.624756 314.020569,855.599304 312.884247,855.631958 
	C311.784576,855.663513 310.686646,855.754822 309.412262,855.830200 
	C311.624390,859.559509 309.577637,866.264648 305.937012,867.261047 
M555.972473,858.215088 
	C558.116943,858.682129 561.103638,858.439392 562.224487,859.769226 
	C564.330505,862.267883 562.604126,871.310974 560.345215,873.646484 
	C563.102783,873.646484 565.851074,873.646484 568.016541,873.646484 
	C567.298157,871.869995 566.376892,870.355408 566.109436,868.733093 
	C565.790405,866.798279 566.396301,864.682068 565.938538,862.806213 
	C565.356140,860.419861 564.616638,856.820862 563.025818,856.233337 
	C560.801697,855.411987 557.728760,856.889099 554.322388,857.307495 
	C552.010132,853.166992 550.511902,857.342224 548.414856,857.474121 
	C551.612244,862.623840 551.532043,869.843201 548.505554,873.683228 
	C550.952881,873.683228 553.415466,873.683228 555.688660,873.683228 
	C553.066711,868.522888 553.422791,863.581970 555.972473,858.215088 
M438.220123,855.640564 
	C432.803345,858.385986 430.049286,863.035706 432.140930,868.055115 
	C433.219421,870.643372 436.247742,873.245117 438.941254,874.081360 
	C441.227081,874.791138 444.297333,872.974243 447.020477,872.275391 
	C446.896606,871.792786 446.772766,871.310120 446.648895,870.827515 
	C441.062927,872.980835 438.230530,872.297668 436.168427,868.299805 
	C433.804108,863.716003 434.767395,859.751038 439.703613,856.872131 
	C441.919220,858.013062 444.134796,859.153931 446.350403,860.294800 
	C445.584564,855.125427 442.648102,854.504517 438.220123,855.640564 
M459.755432,872.260742 
	C462.142578,874.541870 464.495239,875.751343 466.041504,873.455139 
	C464.691498,870.950195 463.558929,869.555298 463.194366,867.982483 
	C462.794159,866.255859 463.103333,864.365234 463.100647,862.546082 
	C463.089111,854.713135 460.359467,853.149292 452.871613,857.195618 
	C455.068909,857.195618 456.811279,857.195618 459.324158,857.195618 
	C458.820221,859.698792 458.394257,861.814636 457.255066,864.074463 
	C456.305145,864.634155 455.386810,865.258362 454.399567,865.741943 
	C451.047363,867.383728 449.101898,870.285278 451.464905,873.285217 
	C453.665405,876.078857 456.819489,874.477844 459.755432,872.260742 
M538.634766,872.659424 
	C541.166626,875.538574 543.337524,873.800781 546.084717,872.186218 
	C541.111328,870.922913 543.060669,867.311096 542.814148,864.655396 
	C542.544006,861.746338 542.752625,858.792847 542.752625,855.549316 
	C540.414185,855.656738 538.553528,855.742188 536.002136,855.859436 
	C540.055176,859.359985 540.169189,868.086243 536.121216,872.044678 
	C532.309753,872.672974 530.965149,870.547058 530.892395,867.211365 
	C530.810486,863.451721 530.873596,859.688782 530.873596,855.635620 
	C528.684814,855.742798 526.980042,855.826233 526.467163,855.851318 
	C526.854370,859.877747 527.243958,863.553345 527.554199,867.235596 
	C528.137878,874.163208 531.772766,876.092896 538.634766,872.659424 
M327.628571,872.273438 
	C329.827911,875.506104 331.922211,875.010559 333.342865,873.279663 
	C332.086121,870.941406 330.872528,869.542542 330.605499,867.981750 
	C330.221222,865.735962 330.828156,863.320435 330.443481,861.074707 
	C330.115387,859.159363 329.453949,856.464050 328.094025,855.769104 
	C326.294525,854.849365 323.670685,855.542603 321.320618,855.542603 
	C323.716888,857.201599 326.136261,857.989685 326.850006,859.555359 
	C328.332947,862.808533 325.459442,864.081665 322.349304,865.382507 
	C319.049347,866.928772 316.280151,869.418701 318.572784,872.968384 
	C320.845184,876.486694 324.052795,874.015015 326.708221,872.419434 
	C326.838837,872.340942 326.910706,872.164612 327.628571,872.273438 
M668.004639,858.141785 
	C670.504272,857.266785 673.564758,856.680298 674.080017,859.951599 
	C674.803101,864.543030 676.285461,869.587036 671.851746,873.834106 
	C674.961426,873.834106 677.695068,873.834106 681.277771,873.834106 
	C676.068054,870.900757 678.795715,866.528748 677.871155,863.026978 
	C677.208679,860.517822 676.424744,857.098267 674.597656,856.106445 
	C672.802734,855.132141 669.622498,856.709717 666.351440,857.116943 
	C663.648926,853.410767 662.207825,857.123718 660.070435,857.820557 
	C663.130432,861.973755 663.137329,869.657593 660.258118,873.828613 
	C662.890015,873.828613 665.452454,873.828613 667.802063,873.828613 
	C664.777954,868.705872 665.290771,863.633240 668.004639,858.141785 
M225.734573,845.758728 
	C227.619873,845.948975 229.506989,846.292603 231.389740,846.270142 
	C232.463348,846.257385 233.529846,845.647400 234.599548,845.306335 
	C234.073944,844.429871 233.386337,842.737549 233.048080,842.804688 
	C230.071686,843.395752 227.157455,844.299866 223.677933,845.550598 
	C221.779358,849.461487 219.880768,853.372375 217.962753,857.323303 
	C221.915665,859.495972 221.771606,869.925598 217.289139,873.653870 
	C220.705917,873.653870 224.163940,873.653870 227.621964,873.653870 
	C227.655441,873.395874 227.688934,873.137878 227.722412,872.879883 
	C226.466843,872.455444 225.211273,872.031006 224.083588,871.649780 
	C224.083588,866.936951 224.083588,862.634888 224.083588,858.368774 
	C225.936401,857.994263 227.600800,857.657898 229.265198,857.321472 
	C229.208099,856.903870 229.151016,856.486328 229.093933,856.068726 
	C227.428467,855.784241 225.763000,855.499756 223.500717,855.113342 
	C224.060471,851.916077 224.567123,849.022156 225.734573,845.758728 
M456.917542,367.420166 
	C485.334961,340.617310 511.824799,312.072815 534.917847,280.504089 
	C556.723206,250.695602 575.630859,219.307343 586.430542,183.639618 
	C590.341431,170.723068 592.830933,157.560974 592.910767,143.739502 
	C512.458984,143.739502 432.385284,143.739502 352.266205,143.739502 
	C352.266205,245.851959 352.266205,347.696503 352.266205,450.091919 
	C389.545197,425.341400 424.089661,398.041016 456.917542,367.420166 
M134.646118,330.156342 
	C114.136078,360.412811 96.660019,392.142426 86.758575,427.883301 
	C167.435822,427.883301 247.628036,427.883301 327.674255,427.883301 
	C327.674255,333.258972 327.674255,238.977875 327.674255,144.411423 
	C262.300568,187.218933 186.733963,253.968338 134.646118,330.156342 
M2.111838,214.499985 
	C2.111838,268.913055 2.111838,323.326111 2.111838,378.507904 
	C77.242233,260.942505 179.902039,173.951691 297.551849,102.638603 
	C198.715073,102.638603 100.520302,102.638603 2.111846,102.638603 
	C2.111846,139.874741 2.111846,176.687363 2.111838,214.499985 
M677.967590,385.500000 
	C677.967590,316.950287 677.967590,248.400589 677.967590,179.850876 
	C676.886108,180.346481 676.484863,180.994095 676.207703,181.691040 
	C662.788330,215.435257 644.468994,246.463333 623.516052,275.974091 
	C574.394104,345.158875 514.473145,403.793213 447.491211,455.482361 
	C441.777496,459.891541 435.987000,464.201233 429.398254,469.188354 
	C512.908264,469.188354 595.251038,469.188354 677.967590,469.188354 
	C677.967590,441.428925 677.967590,413.964447 677.967590,385.500000 
M59.839451,478.538025 
	C58.202225,471.604797 55.877857,464.751892 55.056492,457.723328 
	C52.582455,436.552490 57.409630,416.336517 64.615578,396.641357 
	C79.401115,356.229767 103.222824,321.212677 130.272247,288.232391 
	C165.056641,245.821182 206.240906,210.199860 249.994858,177.527832 
	C274.267120,159.403229 299.506958,142.575119 324.274292,125.111046 
	C325.825562,124.017212 327.059723,122.473732 328.441437,121.139458 
	C328.100494,120.800156 327.759583,120.460854 327.418640,120.121552 
	C326.692230,120.511971 325.953491,120.881241 325.241119,121.295822 
	C263.251068,157.374008 205.795441,199.624176 152.915253,248.077011 
	C112.764236,284.866394 77.304596,325.578094 50.214642,373.061005 
	C34.186707,401.154572 21.341209,430.520477 19.626280,463.472351 
	C17.710085,500.291504 34.578365,528.788635 73.733170,539.002258 
	C98.593987,545.487305 123.688805,544.115295 148.590958,539.595398 
	C212.782761,527.943970 270.439514,500.126678 325.813080,466.879364 
	C327.028564,466.149597 327.663727,464.453369 328.569611,463.207947 
	C328.222565,462.887207 327.875488,462.566498 327.528442,462.245789 
	C323.752838,464.248138 319.972046,466.240692 316.202454,468.254303 
	C283.292480,485.833618 249.924591,502.393768 213.790741,512.456055 
	C181.402847,521.475159 148.550064,526.208191 115.071533,519.876465 
	C90.431847,515.216309 70.521027,503.486938 59.839451,478.538025 
M369.282745,663.500244 
	C369.163269,690.165100 369.123810,716.830750 368.852539,743.494080 
	C368.802155,748.449707 368.011261,753.427246 367.206207,758.336304 
	C366.557129,762.294189 363.904724,764.348022 359.813660,764.354736 
	C356.872955,764.359558 353.932220,764.355652 350.446136,764.355652 
	C350.593292,767.672607 350.705170,770.194824 350.808380,772.520813 
	C365.874298,772.520813 380.293335,772.520813 394.781036,772.520813 
	C394.781036,769.810791 394.781036,767.398438 394.781036,764.883057 
	C393.688721,764.717468 392.871155,764.454773 392.067902,764.493042 
	C382.646088,764.942139 380.853394,764.630554 379.238678,752.529724 
	C379.106720,751.541077 379.064606,750.536194 379.044495,749.537476 
	C378.384277,716.720947 377.727142,683.904358 377.094513,651.087341 
	C377.067902,649.707703 377.280518,648.323486 377.454437,645.948181 
	C379.128387,647.824829 380.138489,648.859985 381.040253,649.982178 
	C413.283142,690.104980 445.504639,730.244995 477.785889,770.336914 
	C479.268463,772.178284 481.274109,773.598389 484.142792,776.229797 
	C484.466187,772.483459 484.823120,770.254822 484.826050,768.025696 
	C484.863556,739.359741 484.735474,710.692993 484.898529,682.027893 
	C484.980927,667.537537 485.392609,653.042725 486.001862,638.564453 
	C486.287598,631.774780 488.720734,629.828918 495.359894,629.545105 
	C497.126434,629.469666 498.890472,629.335022 500.524170,629.235535 
	C500.524170,626.282776 500.524170,623.898376 500.524170,621.494385 
	C484.869843,621.494385 469.634857,621.494385 454.204681,621.494385 
	C454.204681,624.142395 454.204681,626.562195 454.204681,629.289001 
	C457.403198,629.443604 460.383972,629.476929 463.341827,629.754211 
	C469.209534,630.304138 472.859497,633.586609 473.952789,639.266296 
	C474.392700,641.551514 474.794861,643.879761 474.852356,646.197388 
	C475.566589,675.010864 476.216492,703.825867 476.865204,732.640930 
	C476.881805,733.377014 476.696899,734.117676 476.496582,735.744507 
	C474.984070,733.993042 474.016022,732.955200 473.139435,731.845032 
	C445.476868,696.811584 417.784363,661.801514 390.224762,626.687256 
	C387.284332,622.940735 384.161072,620.947876 379.243225,621.392883 
	C373.946564,621.872253 368.591888,621.753723 363.261658,621.807251 
	C357.499634,621.865173 351.736572,621.820374 345.948212,621.820374 
	C344.461823,629.230957 344.679810,629.533386 351.773895,629.751221 
	C363.103363,630.099243 368.451660,635.151794 369.105499,646.507141 
	C369.411621,651.824036 369.238678,657.168518 369.282745,663.500244 
M642.133850,720.766602 
	C642.132324,730.572083 642.220703,740.378784 642.092712,750.182617 
	C642.024780,755.381226 639.366882,759.394043 634.441650,760.766235 
	C626.012512,763.114746 617.476318,765.697083 608.827393,766.516357 
	C587.662903,768.521118 569.321228,761.601196 558.086487,743.213501 
	C541.930725,716.771729 539.349243,688.220398 552.371521,659.673828 
	C564.350342,633.414612 590.291016,621.254333 617.050293,628.029602 
	C636.938599,633.065247 648.017883,647.084351 654.078247,665.722046 
	C655.478882,670.029297 657.331238,671.524841 661.002930,669.669373 
	C661.002930,654.657410 661.002930,639.983215 661.002930,625.309082 
	C660.450745,625.043396 659.898560,624.777710 659.346313,624.512024 
	C657.463867,626.329956 655.444519,628.029358 653.737793,629.999573 
	C652.070435,631.924438 650.643005,632.619080 648.256470,630.983276 
	C632.362488,620.089294 614.506165,617.803772 595.789307,619.014099 
	C562.977295,621.135803 535.850708,640.460266 526.609680,669.933105 
	C519.106934,693.861755 521.700378,717.348694 533.797180,739.438416 
	C540.453186,751.592896 550.158447,760.950867 562.910767,766.546143 
	C596.278076,781.186523 628.791321,776.993347 660.558716,761.270752 
	C661.776123,760.668152 662.882446,758.448914 662.874512,756.989319 
	C662.824036,747.679016 662.312866,738.372009 662.208435,729.061035 
	C662.063843,716.170837 662.155762,716.027832 674.933350,715.630310 
	C678.691284,715.513489 678.693848,713.579895 678.789612,710.834290 
	C678.904785,707.532166 677.311951,707.093567 674.486084,707.111877 
	C658.501892,707.215515 642.516541,707.141968 626.531616,707.142212 
	C625.740967,707.142212 624.950256,707.267029 624.001221,707.347168 
	C624.001221,710.126892 624.001221,712.663208 624.001221,715.716370 
	C628.245972,715.716370 632.150024,715.225647 635.841003,715.900330 
	C638.058716,716.305664 639.944275,718.528503 642.133850,720.766602 
M211.322067,758.132751 
	C216.587708,762.091370 221.407944,766.947815 227.209686,769.825745 
	C240.164490,776.252197 254.362167,776.091553 268.343201,774.802673 
	C292.876831,772.540771 309.980560,757.397278 313.928802,733.156067 
	C316.136261,719.602905 316.143829,705.648315 316.556549,691.857117 
	C317.039886,675.707031 316.879852,659.537781 317.010101,643.376953 
	C317.103912,631.735840 319.208954,629.616455 330.641632,629.521729 
	C332.393768,629.507202 334.144775,629.354736 335.804260,629.270752 
	C335.804260,626.309082 335.804260,623.923828 335.804260,621.498657 
	C318.146942,621.498657 300.918579,621.498657 283.407684,621.498657 
	C283.407684,624.125122 283.407684,626.514771 283.407684,629.528381 
	C286.164856,629.528381 288.624359,629.513428 291.083588,629.531006 
	C300.083649,629.595276 303.624084,632.272156 303.725159,641.175842 
	C304.061707,670.816650 304.580078,700.481628 303.732269,730.100281 
	C303.180542,749.374756 292.331421,761.364014 274.247467,765.470764 
	C268.805145,766.706787 262.994537,767.101990 257.411560,766.798584 
	C236.585403,765.666504 223.027908,753.404236 222.120758,732.678711 
	C220.781464,702.079895 220.838776,671.414429 220.636612,640.775085 
	C220.581467,632.415222 223.997482,629.700195 232.512711,629.543701 
	C235.934814,629.480774 239.359055,629.533264 242.716919,629.533264 
	C242.716919,626.316345 242.716919,623.913513 242.716919,621.503174 
	C222.106964,621.503174 201.869278,621.503174 181.327515,621.503174 
	C181.327515,624.103882 181.327515,626.509033 181.327515,629.174866 
	C182.770767,629.302490 184.070709,629.492981 185.374161,629.521240 
	C200.504761,629.849609 200.642456,630.031616 200.698517,645.493713 
	C200.787949,670.152222 200.647278,694.816772 201.185638,719.466125 
	C201.476288,732.773315 202.588638,746.153748 211.322067,758.132751 
M513.500000,803.000488 
	C343.075806,803.000488 172.651581,803.000488 1.910260,803.000488 
	C2.039973,804.751526 2.131233,805.983521 2.223053,807.223022 
	C227.928955,807.223022 453.308716,807.223022 678.725708,807.223022 
	C678.725708,805.696472 678.725708,804.472412 678.725708,803.000488 
	C623.775391,803.000488 569.137695,803.000488 513.500000,803.000488 
M248.398590,867.616394 
	C248.398590,861.564636 248.398590,855.512939 248.398590,848.513062 
	C255.752518,857.561462 262.549255,865.924316 270.227051,875.371216 
	C270.227051,866.367188 270.053894,858.900940 270.316711,851.450134 
	C270.414703,848.672974 271.531433,845.931702 272.172028,843.223145 
	C270.213409,843.223145 267.202484,843.223145 263.752838,843.223145 
	C268.257141,846.405884 269.964539,857.642151 267.305481,864.983521 
	C262.585632,858.995544 257.537994,853.418457 253.488724,847.192139 
	C250.265137,842.235413 246.315048,842.607178 241.001907,843.817688 
	C247.540955,844.356445 246.160431,848.786621 246.197403,852.429077 
	C246.244675,857.083923 246.409988,861.757202 246.064636,866.388306 
	C245.882065,868.836609 244.724457,871.212158 243.975357,873.726990 
	C245.722931,873.726990 248.642273,873.726990 251.125870,873.726990 
	C250.167999,871.845032 249.314957,870.169067 248.398590,867.616394 
M356.588379,843.884888 
	C351.490021,846.191040 348.466827,850.078308 347.754974,855.653320 
	C345.918060,870.039246 358.348236,878.617981 372.925140,873.143433 
	C375.422577,872.205505 376.501587,871.053772 376.442566,868.151917 
	C376.393921,865.758911 377.649780,863.339355 378.292725,861.055420 
	C375.649109,861.055420 372.040985,861.055420 368.432892,861.055420 
	C373.053314,861.946289 372.628845,865.511780 371.887665,868.210022 
	C371.427948,869.883667 369.250610,871.713074 367.467377,872.273621 
	C362.809967,873.737549 358.336884,872.581543 355.444611,868.536377 
	C351.617004,863.182983 350.946381,857.158020 353.705811,851.054382 
	C355.623322,846.812988 358.884247,844.196655 363.742004,844.045288 
	C368.622284,843.893250 371.929413,846.233459 373.966980,850.569824 
	C374.341309,851.366333 374.824554,852.111633 375.925385,854.066833 
	C375.925385,849.900574 375.925385,847.163025 375.925385,843.588501 
	C369.705231,843.588501 363.507935,843.588501 356.588379,843.884888 
M6.840348,852.642761 
	C6.888091,856.640015 6.787964,860.645752 7.016878,864.632629 
	C7.397255,871.257385 10.687999,874.287476 17.621271,874.718933 
	C24.365772,875.138550 29.224781,871.991699 30.115112,865.931946 
	C30.812788,861.183594 30.895731,856.313721 30.865889,851.500244 
	C30.844563,848.059937 30.653887,844.831848 36.225525,843.321716 
	C31.098404,843.321716 27.640373,843.321716 24.450693,843.321716 
	C25.713482,844.935974 27.744835,846.341187 27.845350,847.873047 
	C28.226091,853.676025 28.209177,859.532288 27.899052,865.345032 
	C27.644611,870.114014 24.371675,872.766724 19.564648,872.835388 
	C14.852649,872.902710 11.687752,870.244995 11.258570,865.373962 
	C10.923203,861.567688 10.992188,857.717896 11.029557,853.888916 
	C11.069265,849.820068 9.296043,844.949463 16.959040,843.463745 
	C11.234867,843.463745 7.175868,843.463745 3.116868,843.463745 
	C8.937806,844.409973 6.285898,848.816467 6.840348,852.642761 
M488.393860,848.483337 
	C489.041443,847.215454 489.653229,844.877014 490.342438,844.853943 
	C494.706848,844.708069 499.509827,843.836182 502.151855,848.956055 
	C502.563110,849.752991 503.494080,850.281799 505.236389,851.928589 
	C504.219788,847.937012 503.585327,845.445801 503.062134,843.391479 
	C494.949432,843.391479 487.377167,843.391479 479.804871,843.391479 
	C479.786346,843.671021 479.767822,843.950562 479.749268,844.230042 
	C481.083130,844.576660 482.416992,844.923279 484.064026,845.351318 
	C484.064026,852.546753 484.249023,859.684448 483.957306,866.802673 
	C483.863281,869.097595 482.514862,871.341125 481.752441,873.572571 
	C484.406586,873.572571 488.354095,873.572571 493.397888,873.572571 
	C487.903656,871.158203 487.317444,868.973938 489.168640,859.088806 
	C492.338898,860.638123 495.167816,862.020691 497.405334,863.114197 
	C497.405334,860.679504 497.405334,857.470276 497.405334,854.260986 
	C495.790009,859.223816 492.328186,858.596558 488.386597,858.079163 
	C488.386597,855.042542 488.386597,852.265137 488.393860,848.483337 
M580.935181,855.041504 
	C579.492432,855.388916 577.883057,855.439392 576.637634,856.138428 
	C572.634766,858.384888 570.777283,862.007874 571.173950,866.548401 
	C571.500916,870.291077 573.233704,873.867554 577.151794,874.157593 
	C581.977783,874.514954 586.900818,873.560974 590.916626,873.242310 
	C590.100525,870.590881 589.021301,868.635010 588.972290,866.653625 
	C588.772888,858.591309 588.889343,850.521240 588.889343,842.131531 
	C586.379272,842.641541 584.522156,843.018860 581.514343,843.630005 
	C583.004089,844.583557 583.817627,844.821106 583.883057,845.191040 
	C584.407837,848.156494 584.866943,851.141907 585.067749,854.139771 
	C585.083008,854.368042 582.961670,854.739380 580.935181,855.041504 
M157.083786,661.172180 
	C150.724472,658.924805 145.681442,660.939636 144.248856,666.300049 
	C142.929794,671.235596 146.130157,676.367432 151.579041,676.466125 
	C154.387543,676.516968 158.242340,674.842468 159.848785,672.647949 
	C162.549133,668.958923 161.375595,664.742676 157.083786,661.172180 
M144.200058,730.956787 
	C146.537888,735.980774 149.806366,737.924377 154.706818,737.036682 
	C158.382538,736.370850 160.563568,734.107056 161.005844,730.377136 
	C161.634186,725.078125 158.419296,721.201843 153.418579,720.729858 
	C148.777222,720.291809 143.367508,723.521240 144.200058,730.956787 
M519.825195,857.636536 
	C515.806885,854.269653 511.646790,854.182922 507.594452,857.418030 
	C504.108643,860.200806 502.596588,864.261108 504.671021,868.056274 
	C506.135071,870.734741 509.281982,873.212402 512.208923,874.191956 
	C515.953674,875.445129 519.279968,873.116760 521.356445,869.710327 
	C523.815125,865.676941 523.296814,861.802002 519.825195,857.636536 
M210.166306,872.759216 
	C214.419266,868.539368 215.473145,864.496155 213.396362,860.367310 
	C211.051285,855.705078 205.768555,853.856018 201.179871,856.091125 
	C196.282684,858.476685 194.188766,864.293640 196.462814,869.195679 
	C198.783554,874.198364 203.339279,875.571106 210.166306,872.759216 
M393.067749,874.394653 
	C397.688599,873.567932 400.487061,870.789673 401.332275,866.241028 
	C402.067627,862.283691 400.625183,859.012878 397.319305,856.731873 
	C393.945251,854.403992 390.481140,854.560852 387.078857,856.807190 
	C383.058716,859.461426 381.981659,863.370789 383.092499,867.710815 
	C384.257111,872.261047 387.601715,874.482727 393.067749,874.394653 
M293.634827,869.849243 
	C295.902679,865.788879 296.067017,861.449280 292.576172,858.447815 
	C290.381927,856.561218 286.619293,855.330933 283.765045,855.648193 
	C279.275604,856.147217 276.582123,859.709473 276.277039,864.351196 
	C276.003784,868.508545 277.786377,871.967651 281.669678,873.659180 
	C286.174469,875.621460 290.099548,874.291870 293.634827,869.849243 
M651.063538,873.746643 
	C657.975220,868.990967 659.031006,861.746277 653.472717,857.215393 
	C650.024475,854.404663 645.633972,854.393127 641.997864,857.185486 
	C638.362915,859.977173 637.106140,864.612732 638.857056,868.770935 
	C640.759094,873.287659 644.400635,874.944275 651.063538,873.746643 
M104.947464,858.558960 
	C102.420006,854.564331 98.880028,854.235352 94.974770,856.045837 
	C91.122398,857.831848 89.293365,862.876892 90.465027,867.663818 
	C91.561256,872.142639 94.383957,874.545288 98.984039,874.480957 
	C102.471863,874.432190 104.774246,872.640686 105.683632,870.406738 
	C102.625992,870.588623 99.180389,871.810791 97.098274,870.629517 
	C95.041222,869.462463 94.362160,865.866516 92.558502,862.310669 
	C97.378456,862.310669 100.335350,862.266907 103.290276,862.324280 
	C105.729172,862.371582 106.226654,861.322571 104.947464,858.558960 
M78.620392,874.237976 
	C79.765213,872.578186 81.092026,871.013611 82.019180,869.239990 
	C84.366112,864.750549 86.533600,860.167297 88.605743,855.961060 
	C87.349281,855.961060 85.162270,855.961060 82.975250,855.961060 
	C83.421494,856.194092 83.867729,856.427185 84.313972,856.660217 
	C83.223412,860.605103 82.132851,864.549988 81.042290,868.494934 
	C80.608482,868.483276 80.174675,868.471619 79.740868,868.459961 
	C78.501480,864.356384 74.762634,860.816650 77.680542,855.896362 
	C74.946899,855.896362 72.379845,855.896362 70.695518,855.896362 
	C73.157990,861.839050 75.635216,867.817322 78.620392,874.237976 
M618.643372,865.403076 
	C618.643372,862.994263 618.643372,860.585449 618.643372,858.570435 
	C621.403259,858.030823 623.218201,857.676025 625.033142,857.321167 
	C624.982605,856.873962 624.932007,856.426697 624.881470,855.979492 
	C623.027283,855.797363 621.173096,855.615234 619.301453,855.431396 
	C619.061951,853.864441 618.858826,852.535400 618.658691,851.226135 
	C616.324097,853.309387 614.258972,855.152222 613.080627,856.203674 
	C614.014771,858.746643 614.883667,860.232117 615.058105,861.795044 
	C615.313416,864.082458 614.716003,866.494446 615.149658,868.723450 
	C615.515869,870.605713 616.423462,873.216187 617.832886,873.846252 
	C619.513428,874.597656 621.984131,873.581543 624.112549,873.331177 
	C624.045532,872.917297 623.978455,872.503418 623.911438,872.089539 
	C622.469482,871.990051 621.027527,871.890625 619.178406,871.763062 
	C618.991272,869.878845 618.815369,868.108032 618.643372,865.403076 
M412.079346,874.054321 
	C412.647949,873.938171 413.216583,873.822021 415.032135,873.451233 
	C408.780426,871.826233 410.677155,867.712891 410.561035,864.430908 
	C410.446442,861.190918 410.322754,857.720337 415.501984,858.794800 
	C416.121582,858.923401 417.094330,857.349792 417.903381,856.565247 
	C416.839294,856.053894 415.659180,854.973755 414.737732,855.161682 
	C413.277832,855.459473 411.991028,856.605774 410.630951,857.393005 
	C410.482697,856.840637 410.334442,856.288208 410.186188,855.735779 
	C408.421448,856.221619 406.656708,856.707458 404.626495,857.266357 
	C408.237427,862.545654 407.889984,870.441223 403.950745,874.050781 
	C406.600128,874.050781 408.901123,874.050781 412.079346,874.054321 
M111.305603,863.802185 
	C110.793015,867.140442 110.280426,870.478699 109.781372,873.728821 
	C111.701416,873.728821 114.851250,873.728821 118.001091,873.728821 
	C113.549385,872.007141 114.618980,868.300293 115.004242,865.361084 
	C115.394653,862.382507 116.746277,859.529907 117.698509,856.554565 
	C115.369873,856.554565 112.292450,856.554565 108.972588,856.554565 
	C110.028961,859.448853 110.661728,861.182556 111.305603,863.802185 
M131.307632,872.750183 
	C128.905426,871.398926 126.503220,870.047607 124.133385,868.714539 
	C123.819496,871.961853 124.906601,874.360474 128.847763,874.484253 
	C132.094742,874.586243 134.954498,873.650269 135.886658,870.207336 
	C136.914627,866.410645 134.822693,864.036621 131.350525,863.149109 
	C127.286674,862.110291 125.300346,860.343323 127.605743,855.567627 
	C125.790260,857.472595 123.956314,859.569519 124.329506,861.143005 
	C124.769188,862.996948 126.860336,864.870972 128.703766,865.884033 
	C131.496689,867.418823 135.250931,867.924438 131.307632,872.750183 
M142.026520,867.424194 
	C141.373352,869.574890 140.720169,871.725647 140.118149,873.707947 
	C142.204056,873.707947 145.197327,873.707947 148.445221,873.707947 
	C142.287949,868.306458 147.322708,861.218933 144.729584,855.264587 
	C143.026871,856.076599 141.338226,856.881958 140.998306,857.044067 
	C141.408493,860.818909 141.717972,863.667053 142.026520,867.424194 
M631.158630,855.585083 
	C629.757080,856.282471 628.355469,856.979797 626.855469,857.726135 
	C630.422485,861.765198 630.025818,870.076721 626.311646,873.863525 
	C629.488647,873.863525 632.559387,873.863525 634.693481,873.863525 
	C634.061646,871.420837 633.223389,869.101440 632.898499,866.712280 
	C632.387329,862.953796 632.221924,859.148315 631.158630,855.585083 
M66.033913,857.245972 
	C64.519897,855.306030 64.519897,855.306030 60.439884,858.069275 
	C64.132545,861.711792 63.785847,870.408691 59.669559,873.737427 
	C62.797325,873.737427 65.769501,873.737427 67.913773,873.737427 
	C67.251701,871.749878 66.266891,869.932861 66.101280,868.044006 
	C65.812614,864.751709 66.028709,861.415161 66.033913,857.245972 
M420.112823,873.781250 
	C422.996552,873.781250 425.880280,873.781250 428.953339,873.781250 
	C422.902802,868.393250 427.936371,861.262512 425.384216,855.253296 
	C423.601349,856.111511 421.911438,856.924988 420.066010,857.813354 
	C424.058014,861.570679 423.832214,870.525391 420.112823,873.781250 
z"/>
<path fill="#D36B12" opacity="1.000000" stroke="none" 
	d="
M597.531372,0.999999 
	C604.414734,2.331056 610.878235,3.464153 617.235718,5.027847 
	C643.104492,11.390567 664.414673,24.074486 676.497131,48.970913 
	C684.984070,66.458473 686.477173,85.130501 684.434326,104.114571 
	C680.266907,142.840851 664.520325,177.403381 645.098206,210.493439 
	C618.537842,255.745132 585.389099,295.863068 548.541870,333.030304 
	C498.140686,383.869293 442.433838,428.173096 382.652893,467.437164 
	C380.984924,468.532684 379.004578,469.152588 377.169891,469.994263 
	C376.930969,469.569489 376.692017,469.144714 376.453094,468.719940 
	C377.875549,467.706360 379.289917,466.681244 380.721558,465.680817 
	C446.049042,420.030731 505.394958,367.691711 556.835754,306.720551 
	C589.950378,267.470795 618.683228,225.310883 637.398376,177.064697 
	C646.616760,153.300446 652.710144,128.845856 651.217102,103.050636 
	C648.946411,63.816143 627.119263,36.758411 589.207214,26.031151 
	C565.418762,19.300196 541.212585,19.029835 516.856506,21.465601 
	C463.874908,26.764112 415.256897,45.901905 367.823242,68.703865 
	C355.978088,74.397995 344.299591,80.438728 332.538513,86.308121 
	C331.261017,86.945663 329.943542,87.502998 327.806946,87.185272 
	C328.708710,86.142540 329.412262,84.754784 330.540619,84.106514 
	C390.673584,49.559292 453.023163,20.409819 521.532959,6.525390 
	C531.792542,4.446153 542.240784,3.298097 552.800903,1.359636 
	C567.687561,1.000000 582.375122,1.000000 597.531372,0.999999 
z"/>
<path fill="#D36B13" opacity="1.000000" stroke="none" 
	d="
M0.999999,622.437500 
	C2.581674,621.656921 4.162809,621.017212 5.745106,621.014282 
	C42.569332,620.947205 79.393677,620.947998 116.218002,620.947388 
	C116.861389,620.947388 117.504776,621.084290 118.307899,621.175415 
	C121.157768,633.542603 124.041786,645.808533 126.709816,658.121216 
	C126.917862,659.081299 125.738754,661.212036 124.986992,661.322693 
	C123.572739,661.531006 121.345261,661.152588 120.600052,660.159485 
	C116.106140,654.170959 111.973244,647.913147 107.649345,641.795044 
	C102.169746,634.041626 94.653168,630.058105 85.141533,630.025635 
	C72.179153,629.981445 59.216511,630.014587 45.709484,630.014587 
	C45.709484,652.293579 45.709484,675.334839 45.709484,699.391846 
	C55.450459,698.857117 65.383842,698.688965 75.195580,697.509094 
	C77.661850,697.212524 80.406883,694.047058 81.819115,691.525391 
	C83.469414,688.578613 83.918182,684.919434 84.677505,681.522217 
	C85.948021,675.837891 85.877701,675.822144 92.496124,677.375122 
	C92.496124,693.644836 92.496124,710.053650 92.496124,726.950684 
	C90.797478,727.313171 88.782120,727.743286 86.517181,728.226562 
	C85.425743,723.770020 84.488960,719.754333 83.453171,715.764404 
	C82.192078,710.906555 79.162231,707.866028 74.038063,707.521179 
	C64.624969,706.887756 55.199978,706.431091 45.190014,705.867493 
	C45.190014,711.665100 45.161919,716.614197 45.195488,721.562866 
	C45.282524,734.393494 45.348827,747.224609 45.520889,760.054138 
	C45.603058,766.181213 46.473785,766.991821 52.448971,767.187134 
	C54.946583,767.268738 57.447468,767.262634 59.946960,767.271973 
	C67.266060,767.299377 67.827103,768.095886 65.713547,775.536621 
	C45.935844,775.536621 26.152107,775.536621 6.329964,775.536621 
	C3.882890,768.550476 4.687973,767.287842 11.703565,767.274658 
	C24.273010,767.251038 24.624731,767.252991 24.693060,754.863708 
	C24.909037,715.704102 24.860712,676.542969 24.850220,637.382385 
	C24.848747,631.888306 22.967255,629.989075 17.298956,629.606262 
	C12.155479,629.258972 6.991358,629.217529 1.418170,629.020630 
	C1.000000,626.958313 1.000000,624.916687 0.999999,622.437500 
z"/>
<path fill="#2F3683" opacity="1.000000" stroke="none" 
	d="
M165.375000,886.000000 
	C164.100342,884.373718 162.833344,882.182861 165.921265,882.042725 
	C171.535767,881.787964 172.034668,876.969238 171.677719,874.044495 
	C171.031250,868.747437 168.589279,863.646423 166.657379,858.554382 
	C166.368515,857.793030 164.779480,857.525024 163.401093,856.905762 
	C162.999344,856.561218 163.001373,856.339844 163.016357,856.118591 
	C165.961716,855.901367 168.907074,855.684204 170.841156,855.541565 
	C171.909348,860.310974 172.857712,864.545349 173.806061,868.779724 
	C175.777359,864.571533 180.290649,861.266968 177.515915,855.865051 
	C179.595932,855.865051 181.650375,855.865051 182.945892,855.865051 
	C180.713898,860.432312 178.419785,865.187256 176.071548,869.915405 
	C173.504410,875.084351 170.887192,880.228516 168.145874,885.691772 
	C167.250000,886.000000 166.500000,886.000000 165.375000,886.000000 
z"/>
<path fill="#1A2478" opacity="1.000000" stroke="none" 
	d="
M456.664124,367.666077 
	C424.089661,398.041016 389.545197,425.341400 352.266205,450.091919 
	C352.266205,347.696503 352.266205,245.851959 352.266205,143.739502 
	C432.385284,143.739502 512.458984,143.739502 592.910767,143.739502 
	C592.830933,157.560974 590.341431,170.723068 586.430542,183.639618 
	C575.630859,219.307343 556.723206,250.695602 534.917847,280.504089 
	C511.824799,312.072815 485.334961,340.617310 456.664124,367.666077 
z"/>
<path fill="#192378" opacity="1.000000" stroke="none" 
	d="
M134.840759,329.854462 
	C186.733963,253.968338 262.300568,187.218933 327.674255,144.411423 
	C327.674255,238.977875 327.674255,333.258972 327.674255,427.883301 
	C247.628036,427.883301 167.435822,427.883301 86.758575,427.883301 
	C96.660019,392.142426 114.136078,360.412811 134.840759,329.854462 
z"/>
<path fill="#1A2479" opacity="1.000000" stroke="none" 
	d="
M2.111842,213.999969 
	C2.111846,176.687363 2.111846,139.874741 2.111846,102.638603 
	C100.520302,102.638603 198.715073,102.638603 297.551849,102.638603 
	C179.902039,173.951691 77.242233,260.942505 2.111838,378.507904 
	C2.111838,323.326111 2.111838,268.913055 2.111842,213.999969 
z"/>
<path fill="#1A2378" opacity="1.000000" stroke="none" 
	d="
M677.967590,386.000000 
	C677.967590,413.964447 677.967590,441.428925 677.967590,469.188354 
	C595.251038,469.188354 512.908264,469.188354 429.398254,469.188354 
	C435.987000,464.201233 441.777496,459.891541 447.491211,455.482361 
	C514.473145,403.793213 574.394104,345.158875 623.516052,275.974091 
	C644.468994,246.463333 662.788330,215.435257 676.207703,181.691040 
	C676.484863,180.994095 676.886108,180.346481 677.967590,179.850876 
	C677.967590,248.400589 677.967590,316.950287 677.967590,386.000000 
z"/>
<path fill="#D36B12" opacity="1.000000" stroke="none" 
	d="
M59.966198,478.900269 
	C70.521027,503.486938 90.431847,515.216309 115.071533,519.876465 
	C148.550064,526.208191 181.402847,521.475159 213.790741,512.456055 
	C249.924591,502.393768 283.292480,485.833618 316.202454,468.254303 
	C319.972046,466.240692 323.752838,464.248138 327.528442,462.245789 
	C327.875488,462.566498 328.222565,462.887207 328.569611,463.207947 
	C327.663727,464.453369 327.028564,466.149597 325.813080,466.879364 
	C270.439514,500.126678 212.782761,527.943970 148.590958,539.595398 
	C123.688805,544.115295 98.593987,545.487305 73.733170,539.002258 
	C34.578365,528.788635 17.710085,500.291504 19.626280,463.472351 
	C21.341209,430.520477 34.186707,401.154572 50.214642,373.061005 
	C77.304596,325.578094 112.764236,284.866394 152.915253,248.077011 
	C205.795441,199.624176 263.251068,157.374008 325.241119,121.295822 
	C325.953491,120.881241 326.692230,120.511971 327.418640,120.121552 
	C327.759583,120.460854 328.100494,120.800156 328.441437,121.139458 
	C327.059723,122.473732 325.825562,124.017212 324.274292,125.111046 
	C299.506958,142.575119 274.267120,159.403229 249.994858,177.527832 
	C206.240906,210.199860 165.056641,245.821182 130.272247,288.232391 
	C103.222824,321.212677 79.401115,356.229767 64.615578,396.641357 
	C57.409630,416.336517 52.582455,436.552490 55.056492,457.723328 
	C55.877857,464.751892 58.202225,471.604797 59.966198,478.900269 
z"/>
<path fill="#1E287B" opacity="1.000000" stroke="none" 
	d="
M369.282837,663.000366 
	C369.238678,657.168518 369.411621,651.824036 369.105499,646.507141 
	C368.451660,635.151794 363.103363,630.099243 351.773895,629.751221 
	C344.679810,629.533386 344.461823,629.230957 345.948212,621.820374 
	C351.736572,621.820374 357.499634,621.865173 363.261658,621.807251 
	C368.591888,621.753723 373.946564,621.872253 379.243225,621.392883 
	C384.161072,620.947876 387.284332,622.940735 390.224762,626.687256 
	C417.784363,661.801514 445.476868,696.811584 473.139435,731.845032 
	C474.016022,732.955200 474.984070,733.993042 476.496582,735.744507 
	C476.696899,734.117676 476.881805,733.377014 476.865204,732.640930 
	C476.216492,703.825867 475.566589,675.010864 474.852356,646.197388 
	C474.794861,643.879761 474.392700,641.551514 473.952789,639.266296 
	C472.859497,633.586609 469.209534,630.304138 463.341827,629.754211 
	C460.383972,629.476929 457.403198,629.443604 454.204681,629.289001 
	C454.204681,626.562195 454.204681,624.142395 454.204681,621.494385 
	C469.634857,621.494385 484.869843,621.494385 500.524170,621.494385 
	C500.524170,623.898376 500.524170,626.282776 500.524170,629.235535 
	C498.890472,629.335022 497.126434,629.469666 495.359894,629.545105 
	C488.720734,629.828918 486.287598,631.774780 486.001862,638.564453 
	C485.392609,653.042725 484.980927,667.537537 484.898529,682.027893 
	C484.735474,710.692993 484.863556,739.359741 484.826050,768.025696 
	C484.823120,770.254822 484.466187,772.483459 484.142792,776.229797 
	C481.274109,773.598389 479.268463,772.178284 477.785889,770.336914 
	C445.504639,730.244995 413.283142,690.104980 381.040253,649.982178 
	C380.138489,648.859985 379.128387,647.824829 377.454437,645.948181 
	C377.280518,648.323486 377.067902,649.707703 377.094513,651.087341 
	C377.727142,683.904358 378.384277,716.720947 379.044495,749.537476 
	C379.064606,750.536194 379.106720,751.541077 379.238678,752.529724 
	C380.853394,764.630554 382.646088,764.942139 392.067902,764.493042 
	C392.871155,764.454773 393.688721,764.717468 394.781036,764.883057 
	C394.781036,767.398438 394.781036,769.810791 394.781036,772.520813 
	C380.293335,772.520813 365.874298,772.520813 350.808380,772.520813 
	C350.705170,770.194824 350.593292,767.672607 350.446136,764.355652 
	C353.932220,764.355652 356.872955,764.359558 359.813660,764.354736 
	C363.904724,764.348022 366.557129,762.294189 367.206207,758.336304 
	C368.011261,753.427246 368.802155,748.449707 368.852539,743.494080 
	C369.123810,716.830750 369.163269,690.165100 369.282837,663.000366 
z"/>
<path fill="#1D277A" opacity="1.000000" stroke="none" 
	d="
M642.056458,720.350586 
	C639.944275,718.528503 638.058716,716.305664 635.841003,715.900330 
	C632.150024,715.225647 628.245972,715.716370 624.001221,715.716370 
	C624.001221,712.663208 624.001221,710.126892 624.001221,707.347168 
	C624.950256,707.267029 625.740967,707.142212 626.531616,707.142212 
	C642.516541,707.141968 658.501892,707.215515 674.486084,707.111877 
	C677.311951,707.093567 678.904785,707.532166 678.789612,710.834290 
	C678.693848,713.579895 678.691284,715.513489 674.933350,715.630310 
	C662.155762,716.027832 662.063843,716.170837 662.208435,729.061035 
	C662.312866,738.372009 662.824036,747.679016 662.874512,756.989319 
	C662.882446,758.448914 661.776123,760.668152 660.558716,761.270752 
	C628.791321,776.993347 596.278076,781.186523 562.910767,766.546143 
	C550.158447,760.950867 540.453186,751.592896 533.797180,739.438416 
	C521.700378,717.348694 519.106934,693.861755 526.609680,669.933105 
	C535.850708,640.460266 562.977295,621.135803 595.789307,619.014099 
	C614.506165,617.803772 632.362488,620.089294 648.256470,630.983276 
	C650.643005,632.619080 652.070435,631.924438 653.737793,629.999573 
	C655.444519,628.029358 657.463867,626.329956 659.346313,624.512024 
	C659.898560,624.777710 660.450745,625.043396 661.002930,625.309082 
	C661.002930,639.983215 661.002930,654.657410 661.002930,669.669373 
	C657.331238,671.524841 655.478882,670.029297 654.078247,665.722046 
	C648.017883,647.084351 636.938599,633.065247 617.050293,628.029602 
	C590.291016,621.254333 564.350342,633.414612 552.371521,659.673828 
	C539.349243,688.220398 541.930725,716.771729 558.086487,743.213501 
	C569.321228,761.601196 587.662903,768.521118 608.827393,766.516357 
	C617.476318,765.697083 626.012512,763.114746 634.441650,760.766235 
	C639.366882,759.394043 642.024780,755.381226 642.092712,750.182617 
	C642.220703,740.378784 642.132324,730.572083 642.056458,720.350586 
z"/>
<path fill="#1D267A" opacity="1.000000" stroke="none" 
	d="
M211.110931,757.839661 
	C202.588638,746.153748 201.476288,732.773315 201.185638,719.466125 
	C200.647278,694.816772 200.787949,670.152222 200.698517,645.493713 
	C200.642456,630.031616 200.504761,629.849609 185.374161,629.521240 
	C184.070709,629.492981 182.770767,629.302490 181.327515,629.174866 
	C181.327515,626.509033 181.327515,624.103882 181.327515,621.503174 
	C201.869278,621.503174 222.106964,621.503174 242.716919,621.503174 
	C242.716919,623.913513 242.716919,626.316345 242.716919,629.533264 
	C239.359055,629.533264 235.934814,629.480774 232.512711,629.543701 
	C223.997482,629.700195 220.581467,632.415222 220.636612,640.775085 
	C220.838776,671.414429 220.781464,702.079895 222.120758,732.678711 
	C223.027908,753.404236 236.585403,765.666504 257.411560,766.798584 
	C262.994537,767.101990 268.805145,766.706787 274.247467,765.470764 
	C292.331421,761.364014 303.180542,749.374756 303.732269,730.100281 
	C304.580078,700.481628 304.061707,670.816650 303.725159,641.175842 
	C303.624084,632.272156 300.083649,629.595276 291.083588,629.531006 
	C288.624359,629.513428 286.164856,629.528381 283.407684,629.528381 
	C283.407684,626.514771 283.407684,624.125122 283.407684,621.498657 
	C300.918579,621.498657 318.146942,621.498657 335.804260,621.498657 
	C335.804260,623.923828 335.804260,626.309082 335.804260,629.270752 
	C334.144775,629.354736 332.393768,629.507202 330.641632,629.521729 
	C319.208954,629.616455 317.103912,631.735840 317.010101,643.376953 
	C316.879852,659.537781 317.039886,675.707031 316.556549,691.857117 
	C316.143829,705.648315 316.136261,719.602905 313.928802,733.156067 
	C309.980560,757.397278 292.876831,772.540771 268.343201,774.802673 
	C254.362167,776.091553 240.164490,776.252197 227.209686,769.825745 
	C221.407944,766.947815 216.587708,762.091370 211.110931,757.839661 
z"/>
<path fill="#192378" opacity="1.000000" stroke="none" 
	d="
M514.000000,803.000488 
	C569.137695,803.000488 623.775391,803.000488 678.725708,803.000488 
	C678.725708,804.472412 678.725708,805.696472 678.725708,807.223022 
	C453.308716,807.223022 227.928955,807.223022 2.223053,807.223022 
	C2.131233,805.983521 2.039973,804.751526 1.910260,803.000488 
	C172.651581,803.000488 343.075806,803.000488 514.000000,803.000488 
z"/>
<path fill="#313985" opacity="1.000000" stroke="none" 
	d="
M248.430252,868.054749 
	C249.314957,870.169067 250.167999,871.845032 251.125870,873.726990 
	C248.642273,873.726990 245.722931,873.726990 243.975357,873.726990 
	C244.724457,871.212158 245.882065,868.836609 246.064636,866.388306 
	C246.409988,861.757202 246.244675,857.083923 246.197403,852.429077 
	C246.160431,848.786621 247.540955,844.356445 241.001907,843.817688 
	C246.315048,842.607178 250.265137,842.235413 253.488724,847.192139 
	C257.537994,853.418457 262.585632,858.995544 267.305481,864.983521 
	C269.964539,857.642151 268.257141,846.405884 263.752838,843.223145 
	C267.202484,843.223145 270.213409,843.223145 272.172028,843.223145 
	C271.531433,845.931702 270.414703,848.672974 270.316711,851.450134 
	C270.053894,858.900940 270.227051,866.367188 270.227051,875.371216 
	C262.549255,865.924316 255.752518,857.561462 248.398590,848.513062 
	C248.398590,855.512939 248.398590,861.564636 248.430252,868.054749 
z"/>
<path fill="#2B3381" opacity="1.000000" stroke="none" 
	d="
M356.949493,843.736694 
	C363.507935,843.588501 369.705231,843.588501 375.925385,843.588501 
	C375.925385,847.163025 375.925385,849.900574 375.925385,854.066833 
	C374.824554,852.111633 374.341309,851.366333 373.966980,850.569824 
	C371.929413,846.233459 368.622284,843.893250 363.742004,844.045288 
	C358.884247,844.196655 355.623322,846.812988 353.705811,851.054382 
	C350.946381,857.158020 351.617004,863.182983 355.444611,868.536377 
	C358.336884,872.581543 362.809967,873.737549 367.467377,872.273621 
	C369.250610,871.713074 371.427948,869.883667 371.887665,868.210022 
	C372.628845,865.511780 373.053314,861.946289 368.432892,861.055420 
	C372.040985,861.055420 375.649109,861.055420 378.292725,861.055420 
	C377.649780,863.339355 376.393921,865.758911 376.442566,868.151917 
	C376.501587,871.053772 375.422577,872.205505 372.925140,873.143433 
	C358.348236,878.617981 345.918060,870.039246 347.754974,855.653320 
	C348.466827,850.078308 351.490021,846.191040 356.949493,843.736694 
z"/>
<path fill="#2C3482" opacity="1.000000" stroke="none" 
	d="
M6.840371,852.166504 
	C6.285898,848.816467 8.937806,844.409973 3.116868,843.463745 
	C7.175868,843.463745 11.234867,843.463745 16.959040,843.463745 
	C9.296043,844.949463 11.069265,849.820068 11.029557,853.888916 
	C10.992188,857.717896 10.923203,861.567688 11.258570,865.373962 
	C11.687752,870.244995 14.852649,872.902710 19.564648,872.835388 
	C24.371675,872.766724 27.644611,870.114014 27.899052,865.345032 
	C28.209177,859.532288 28.226091,853.676025 27.845350,847.873047 
	C27.744835,846.341187 25.713482,844.935974 24.450693,843.321716 
	C27.640373,843.321716 31.098404,843.321716 36.225525,843.321716 
	C30.653887,844.831848 30.844563,848.059937 30.865889,851.500244 
	C30.895731,856.313721 30.812788,861.183594 30.115112,865.931946 
	C29.224781,871.991699 24.365772,875.138550 17.621271,874.718933 
	C10.687999,874.287476 7.397255,871.257385 7.016878,864.632629 
	C6.787964,860.645752 6.888091,856.640015 6.840371,852.166504 
z"/>
<path fill="#2F3683" opacity="1.000000" stroke="none" 
	d="
M488.390228,848.985535 
	C488.386597,852.265137 488.386597,855.042542 488.386597,858.079163 
	C492.328186,858.596558 495.790009,859.223816 497.405334,854.260986 
	C497.405334,857.470276 497.405334,860.679504 497.405334,863.114197 
	C495.167816,862.020691 492.338898,860.638123 489.168640,859.088806 
	C487.317444,868.973938 487.903656,871.158203 493.397888,873.572571 
	C488.354095,873.572571 484.406586,873.572571 481.752441,873.572571 
	C482.514862,871.341125 483.863281,869.097595 483.957306,866.802673 
	C484.249023,859.684448 484.064026,852.546753 484.064026,845.351318 
	C482.416992,844.923279 481.083130,844.576660 479.749268,844.230042 
	C479.767822,843.950562 479.786346,843.671021 479.804871,843.391479 
	C487.377167,843.391479 494.949432,843.391479 503.062134,843.391479 
	C503.585327,845.445801 504.219788,847.937012 505.236389,851.928589 
	C503.494080,850.281799 502.563110,849.752991 502.151855,848.956055 
	C499.509827,843.836182 494.706848,844.708069 490.342438,844.853943 
	C489.653229,844.877014 489.041443,847.215454 488.390228,848.985535 
z"/>
<path fill="#3B428A" opacity="1.000000" stroke="none" 
	d="
M581.384338,855.042847 
	C582.961670,854.739380 585.083008,854.368042 585.067749,854.139771 
	C584.866943,851.141907 584.407837,848.156494 583.883057,845.191040 
	C583.817627,844.821106 583.004089,844.583557 581.514343,843.630005 
	C584.522156,843.018860 586.379272,842.641541 588.889343,842.131531 
	C588.889343,850.521240 588.772888,858.591309 588.972290,866.653625 
	C589.021301,868.635010 590.100525,870.590881 590.916626,873.242310 
	C586.900818,873.560974 581.977783,874.514954 577.151794,874.157593 
	C573.233704,873.867554 571.500916,870.291077 571.173950,866.548401 
	C570.777283,862.007874 572.634766,858.384888 576.637634,856.138428 
	C577.883057,855.439392 579.492432,855.388916 581.384338,855.042847 
M585.354919,862.723572 
	C584.795471,857.689453 582.341858,855.591980 578.540771,857.250305 
	C574.358826,859.074768 574.358093,862.898376 575.119202,866.553040 
	C575.788940,869.768982 577.487732,872.534607 581.419800,872.216919 
	C586.102783,871.838623 585.254272,868.160522 585.352783,865.116211 
	C585.368713,864.622437 585.355530,864.127808 585.354919,862.723572 
z"/>
<path fill="#D36E17" opacity="1.000000" stroke="none" 
	d="
M157.415222,661.383911 
	C161.375595,664.742676 162.549133,668.958923 159.848785,672.647949 
	C158.242340,674.842468 154.387543,676.516968 151.579041,676.466125 
	C146.130157,676.367432 142.929794,671.235596 144.248856,666.300049 
	C145.681442,660.939636 150.724472,658.924805 157.415222,661.383911 
z"/>
<path fill="#D36C15" opacity="1.000000" stroke="none" 
	d="
M144.132462,730.567627 
	C143.367508,723.521240 148.777222,720.291809 153.418579,720.729858 
	C158.419296,721.201843 161.634186,725.078125 161.005844,730.377136 
	C160.563568,734.107056 158.382538,736.370850 154.706818,737.036682 
	C149.806366,737.924377 146.537888,735.980774 144.132462,730.567627 
z"/>
<path fill="#313884" opacity="1.000000" stroke="none" 
	d="
M520.085327,857.914001 
	C523.296814,861.802002 523.815125,865.676941 521.356445,869.710327 
	C519.279968,873.116760 515.953674,875.445129 512.208923,874.191956 
	C509.281982,873.212402 506.135071,870.734741 504.671021,868.056274 
	C502.596588,864.261108 504.108643,860.200806 507.594452,857.418030 
	C511.646790,854.182922 515.806885,854.269653 520.085327,857.914001 
M511.827515,856.942261 
	C507.710083,860.084106 506.439758,866.346008 509.187256,870.398132 
	C511.039001,873.129150 514.125305,874.505920 516.117371,871.759949 
	C517.933777,869.256226 518.907837,865.301086 518.435852,862.268433 
	C518.112732,860.192017 514.673340,858.600586 511.827515,856.942261 
z"/>
<path fill="#303884" opacity="1.000000" stroke="none" 
	d="
M209.843384,872.944763 
	C203.339279,875.571106 198.783554,874.198364 196.462814,869.195679 
	C194.188766,864.293640 196.282684,858.476685 201.179871,856.091125 
	C205.768555,853.856018 211.051285,855.705078 213.396362,860.367310 
	C215.473145,864.496155 214.419266,868.539368 209.843384,872.944763 
M208.199982,871.607361 
	C208.753418,868.026245 210.004471,864.371704 209.638031,860.887329 
	C209.348572,858.134827 206.734161,856.021667 203.302277,857.000916 
	C199.969803,857.951843 198.236450,863.521851 199.848663,868.223877 
	C201.122803,871.939880 203.241531,874.355347 208.199982,871.607361 
z"/>
<path fill="#333A85" opacity="1.000000" stroke="none" 
	d="
M392.697998,874.458069 
	C387.601715,874.482727 384.257111,872.261047 383.092499,867.710815 
	C381.981659,863.370789 383.058716,859.461426 387.078857,856.807190 
	C390.481140,854.560852 393.945251,854.403992 397.319305,856.731873 
	C400.625183,859.012878 402.067627,862.283691 401.332275,866.241028 
	C400.487061,870.789673 397.688599,873.567932 392.697998,874.458069 
M386.490448,863.661621 
	C386.763458,865.603455 386.505157,867.878296 387.456024,869.395203 
	C388.444611,870.972290 390.545776,872.610352 392.265656,872.731750 
	C393.653259,872.829834 395.607666,870.974060 396.554291,869.499634 
	C397.461487,868.086548 397.784241,866.023438 397.673553,864.289978 
	C397.454926,860.866394 396.322937,857.470581 392.408936,856.899719 
	C388.305084,856.301208 387.250610,859.544250 386.490448,863.661621 
z"/>
<path fill="#313884" opacity="1.000000" stroke="none" 
	d="
M293.398254,870.154053 
	C290.099548,874.291870 286.174469,875.621460 281.669678,873.659180 
	C277.786377,871.967651 276.003784,868.508545 276.277039,864.351196 
	C276.582123,859.709473 279.275604,856.147217 283.765045,855.648193 
	C286.619293,855.330933 290.381927,856.561218 292.576172,858.447815 
	C296.067017,861.449280 295.902679,865.788879 293.398254,870.154053 
M287.064636,857.048950 
	C282.652985,855.955322 280.884064,858.753357 280.265228,862.236145 
	C279.555115,866.232544 279.669678,870.626282 284.049194,872.440308 
	C285.463562,873.026184 288.772339,871.413269 289.894257,869.855347 
	C292.553986,866.162170 291.406006,861.286865 287.064636,857.048950 
z"/>
<path fill="#2F3683" opacity="1.000000" stroke="none" 
	d="
M650.709473,873.874207 
	C644.400635,874.944275 640.759094,873.287659 638.857056,868.770935 
	C637.106140,864.612732 638.362915,859.977173 641.997864,857.185486 
	C645.633972,854.393127 650.024475,854.404663 653.472717,857.215393 
	C659.031006,861.746277 657.975220,868.990967 650.709473,873.874207 
M652.778870,867.814026 
	C653.442017,863.887756 653.396606,859.990234 649.701843,857.606323 
	C648.518860,856.843018 645.232971,856.992676 644.879700,857.703674 
	C643.496765,860.486877 642.055481,863.729980 642.292297,866.668701 
	C642.469604,868.869934 645.185242,870.866638 646.770630,872.954407 
	C648.672607,871.494324 650.574585,870.034180 652.778870,867.814026 
z"/>
<path fill="#313985" opacity="1.000000" stroke="none" 
	d="
M105.074158,858.911743 
	C106.226654,861.322571 105.729172,862.371582 103.290276,862.324280 
	C100.335350,862.266907 97.378456,862.310669 92.558502,862.310669 
	C94.362160,865.866516 95.041222,869.462463 97.098274,870.629517 
	C99.180389,871.810791 102.625992,870.588623 105.683632,870.406738 
	C104.774246,872.640686 102.471863,874.432190 98.984039,874.480957 
	C94.383957,874.545288 91.561256,872.142639 90.465027,867.663818 
	C89.293365,862.876892 91.122398,857.831848 94.974770,856.045837 
	C98.880028,854.235352 102.420006,854.564331 105.074158,858.911743 
M96.762054,860.997437 
	C98.349258,860.997437 99.936462,860.997437 102.919960,860.997437 
	C101.139671,858.915771 100.247353,857.041199 99.398041,857.060425 
	C97.851784,857.095520 96.331032,858.254700 94.799606,858.944763 
	C95.185265,859.627075 95.570923,860.309387 96.762054,860.997437 
z"/>
<path fill="#313884" opacity="1.000000" stroke="none" 
	d="
M225.073761,846.128174 
	C224.567123,849.022156 224.060471,851.916077 223.500717,855.113342 
	C225.763000,855.499756 227.428467,855.784241 229.093933,856.068726 
	C229.151016,856.486328 229.208099,856.903870 229.265198,857.321472 
	C227.600800,857.657898 225.936401,857.994263 224.083588,858.368774 
	C224.083588,862.634888 224.083588,866.936951 224.083588,871.649780 
	C225.211273,872.031006 226.466843,872.455444 227.722412,872.879883 
	C227.688934,873.137878 227.655441,873.395874 227.621964,873.653870 
	C224.163940,873.653870 220.705917,873.653870 217.289139,873.653870 
	C221.771606,869.925598 221.915665,859.495972 217.962753,857.323303 
	C219.880768,853.372375 221.779358,849.461487 224.142899,845.452942 
	C224.823212,845.576721 224.978516,845.834351 225.073761,846.128174 
z"/>
<path fill="#2F3683" opacity="1.000000" stroke="none" 
	d="
M78.366409,874.016785 
	C75.635216,867.817322 73.157990,861.839050 70.695518,855.896362 
	C72.379845,855.896362 74.946899,855.896362 77.680542,855.896362 
	C74.762634,860.816650 78.501480,864.356384 79.740868,868.459961 
	C80.174675,868.471619 80.608482,868.483276 81.042290,868.494934 
	C82.132851,864.549988 83.223412,860.605103 84.313972,856.660217 
	C83.867729,856.427185 83.421494,856.194092 82.975250,855.961060 
	C85.162270,855.961060 87.349281,855.961060 88.605743,855.961060 
	C86.533600,860.167297 84.366112,864.750549 82.019180,869.239990 
	C81.092026,871.013611 79.765213,872.578186 78.366409,874.016785 
z"/>
<path fill="#353C87" opacity="1.000000" stroke="none" 
	d="
M618.641418,865.870178 
	C618.815369,868.108032 618.991272,869.878845 619.178406,871.763062 
	C621.027527,871.890625 622.469482,871.990051 623.911438,872.089539 
	C623.978455,872.503418 624.045532,872.917297 624.112549,873.331177 
	C621.984131,873.581543 619.513428,874.597656 617.832886,873.846252 
	C616.423462,873.216187 615.515869,870.605713 615.149658,868.723450 
	C614.716003,866.494446 615.313416,864.082458 615.058105,861.795044 
	C614.883667,860.232117 614.014771,858.746643 613.080627,856.203674 
	C614.258972,855.152222 616.324097,853.309387 618.658691,851.226135 
	C618.858826,852.535400 619.061951,853.864441 619.301453,855.431396 
	C621.173096,855.615234 623.027283,855.797363 624.881470,855.979492 
	C624.932007,856.426697 624.982605,856.873962 625.033142,857.321167 
	C623.218201,857.676025 621.403259,858.030823 618.643372,858.570435 
	C618.643372,860.585449 618.643372,862.994263 618.641418,865.870178 
z"/>
<path fill="#2B3381" opacity="1.000000" stroke="none" 
	d="
M162.604828,855.940063 
	C163.001373,856.339844 162.999344,856.561218 163.023727,856.948364 
	C161.213333,857.576843 159.389511,858.039795 157.430267,858.537048 
	C155.605316,869.196228 156.435120,871.697571 162.348740,873.544678 
	C160.123398,873.664429 157.630432,874.437622 155.766647,873.674377 
	C154.521667,873.164551 153.786606,870.526550 153.518372,868.736755 
	C153.178345,866.468018 153.784775,864.066101 153.522720,861.774231 
	C153.333847,860.122375 152.393143,858.556458 151.566162,856.364807 
	C152.631821,855.228882 154.445023,853.296143 156.597824,851.001343 
	C156.943008,852.624146 157.246658,854.051636 157.610382,855.761475 
	C159.214859,855.761475 160.704071,855.761475 162.604828,855.940063 
z"/>
<path fill="#2F3683" opacity="1.000000" stroke="none" 
	d="
M411.640717,874.052551 
	C408.901123,874.050781 406.600128,874.050781 403.950745,874.050781 
	C407.889984,870.441223 408.237427,862.545654 404.626495,857.266357 
	C406.656708,856.707458 408.421448,856.221619 410.186188,855.735779 
	C410.334442,856.288208 410.482697,856.840637 410.630951,857.393005 
	C411.991028,856.605774 413.277832,855.459473 414.737732,855.161682 
	C415.659180,854.973755 416.839294,856.053894 417.903381,856.565186 
	C417.094330,857.349792 416.121582,858.923401 415.501984,858.794800 
	C410.322754,857.720337 410.446442,861.190918 410.561035,864.430908 
	C410.677155,867.712891 408.780426,871.826233 415.032135,873.451233 
	C413.216583,873.822021 412.647949,873.938171 411.640717,874.052551 
z"/>
<path fill="#3D448B" opacity="1.000000" stroke="none" 
	d="
M111.300049,863.359253 
	C110.661728,861.182556 110.028961,859.448853 108.972588,856.554565 
	C112.292450,856.554565 115.369873,856.554565 117.698509,856.554565 
	C116.746277,859.529907 115.394653,862.382507 115.004242,865.361084 
	C114.618980,868.300293 113.549385,872.007141 118.001091,873.728821 
	C114.851250,873.728821 111.701416,873.728821 109.781372,873.728821 
	C110.280426,870.478699 110.793015,867.140442 111.300049,863.359253 
z"/>
<path fill="#353C87" opacity="1.000000" stroke="none" 
	d="
M131.649551,872.549255 
	C135.250931,867.924438 131.496689,867.418823 128.703766,865.884033 
	C126.860336,864.870972 124.769188,862.996948 124.329506,861.143005 
	C123.956314,859.569519 125.790260,857.472595 127.605743,855.567627 
	C125.300346,860.343323 127.286674,862.110291 131.350525,863.149109 
	C134.822693,864.036621 136.914627,866.410645 135.886658,870.207336 
	C134.954498,873.650269 132.094742,874.586243 128.847763,874.484253 
	C124.906601,874.360474 123.819496,871.961853 124.133385,868.714539 
	C126.503220,870.047607 128.905426,871.398926 131.649551,872.549255 
z"/>
<path fill="#313985" opacity="1.000000" stroke="none" 
	d="
M667.050232,857.167480 
	C669.622498,856.709717 672.802734,855.132141 674.597656,856.106445 
	C676.424744,857.098267 677.208679,860.517822 677.871155,863.026978 
	C678.795715,866.528748 676.068054,870.900757 681.277771,873.834106 
	C677.695068,873.834106 674.961426,873.834106 671.851746,873.834106 
	C676.285461,869.587036 674.803101,864.543030 674.080017,859.951599 
	C673.564758,856.680298 670.504272,857.266785 667.558411,857.983887 
	C667.091553,857.606445 667.070923,857.386963 667.050232,857.167480 
z"/>
<path fill="#3F478E" opacity="1.000000" stroke="none" 
	d="
M44.839184,856.482117 
	C50.829079,853.628357 54.640648,855.773987 54.880733,862.173462 
	C54.955475,864.165833 54.678329,866.192993 54.951263,868.149963 
	C55.207340,869.986084 55.977520,871.750488 56.622700,873.880615 
	C55.903084,873.922058 54.516438,874.031189 53.127758,874.073303 
	C51.823143,874.112915 50.516384,874.081787 48.727596,874.081787 
	C52.763420,869.642395 51.322411,864.728271 50.849483,860.140930 
	C50.752968,859.204773 47.614094,858.582214 45.405357,857.506836 
	C44.901760,856.959839 44.870472,856.720947 44.839184,856.482117 
z"/>
<path fill="#313884" opacity="1.000000" stroke="none" 
	d="
M323.025757,865.232483 
	C325.459442,864.081665 328.332947,862.808533 326.850006,859.555359 
	C326.136261,857.989685 323.716888,857.201599 321.320618,855.542603 
	C323.670685,855.542603 326.294525,854.849365 328.094025,855.769104 
	C329.453949,856.464050 330.115387,859.159363 330.443481,861.074707 
	C330.828156,863.320435 330.221222,865.735962 330.605499,867.981750 
	C330.872528,869.542542 332.086121,870.941406 333.342865,873.279663 
	C331.922211,875.010559 329.827911,875.506104 327.296753,871.842407 
	C326.943146,871.204590 326.921356,870.997803 326.943542,870.387390 
	C326.987518,868.398499 326.987518,866.813171 326.987518,864.817078 
	C325.457184,865.500916 324.309937,866.013550 323.131531,866.202393 
	C323.075531,865.663330 323.050629,865.447937 323.025757,865.232483 
z"/>
<path fill="#3D448B" opacity="1.000000" stroke="none" 
	d="
M536.944031,871.973755 
	C540.169189,868.086243 540.055176,859.359985 536.002136,855.859436 
	C538.553528,855.742188 540.414185,855.656738 542.752625,855.549316 
	C542.752625,858.792847 542.544006,861.746338 542.814148,864.655396 
	C543.060669,867.311096 541.111328,870.922913 546.084717,872.186218 
	C543.337524,873.800781 541.166626,875.538574 538.152771,872.520264 
	C537.455078,872.197937 537.212830,872.062134 536.944031,871.973755 
z"/>
<path fill="#2B3381" opacity="1.000000" stroke="none" 
	d="
M142.026978,866.969727 
	C141.717972,863.667053 141.408493,860.818909 140.998306,857.044067 
	C141.338226,856.881958 143.026871,856.076599 144.729584,855.264587 
	C147.322708,861.218933 142.287949,868.306458 148.445221,873.707947 
	C145.197327,873.707947 142.204056,873.707947 140.118149,873.707947 
	C140.720169,871.725647 141.373352,869.574890 142.026978,866.969727 
z"/>
<path fill="#3E468C" opacity="1.000000" stroke="none" 
	d="
M666.700806,857.142212 
	C667.070923,857.386963 667.091553,857.606445 667.144287,858.155396 
	C665.290771,863.633240 664.777954,868.705872 667.802063,873.828613 
	C665.452454,873.828613 662.890015,873.828613 660.258118,873.828613 
	C663.137329,869.657593 663.130432,861.973755 660.070435,857.820557 
	C662.207825,857.123718 663.648926,853.410767 666.700806,857.142212 
z"/>
<path fill="#2F3683" opacity="1.000000" stroke="none" 
	d="
M536.532593,872.009216 
	C537.212830,872.062134 537.455078,872.197937 537.801880,872.544250 
	C531.772766,876.092896 528.137878,874.163208 527.554199,867.235596 
	C527.243958,863.553345 526.854370,859.877747 526.467163,855.851318 
	C526.980042,855.826233 528.684814,855.742798 530.873596,855.635620 
	C530.873596,859.688782 530.810486,863.451721 530.892395,867.211365 
	C530.965149,870.547058 532.309753,872.672974 536.532593,872.009216 
z"/>
<path fill="#41488F" opacity="1.000000" stroke="none" 
	d="
M631.534363,855.473877 
	C632.221924,859.148315 632.387329,862.953796 632.898499,866.712280 
	C633.223389,869.101440 634.061646,871.420837 634.693481,873.863525 
	C632.559387,873.863525 629.488647,873.863525 626.311646,873.863525 
	C630.025818,870.076721 630.422485,861.765198 626.855469,857.726135 
	C628.355469,856.979797 629.757080,856.282471 631.534363,855.473877 
z"/>
<path fill="#272E7D" opacity="1.000000" stroke="none" 
	d="
M457.968262,863.930542 
	C458.394257,861.814636 458.820221,859.698792 459.324158,857.195618 
	C456.811279,857.195618 455.068909,857.195618 452.871613,857.195618 
	C460.359467,853.149292 463.089111,854.713135 463.100647,862.546082 
	C463.103333,864.365234 462.794159,866.255859 463.194366,867.982483 
	C463.558929,869.555298 464.691498,870.950195 466.041504,873.455139 
	C464.495239,875.751343 462.142578,874.541870 459.352997,872.085266 
	C458.950562,871.909790 458.740387,871.736389 458.898560,871.395264 
	C459.874847,868.804382 461.602386,866.395752 457.992065,864.672852 
	C457.998718,864.425171 457.968292,863.930542 457.968262,863.930542 
z"/>
<path fill="#2B3381" opacity="1.000000" stroke="none" 
	d="
M438.969452,856.770569 
	C434.767395,859.751038 433.804108,863.716003 436.168427,868.299805 
	C438.230530,872.297668 441.062927,872.980835 446.648895,870.827515 
	C446.772766,871.310120 446.896606,871.792786 447.020477,872.275391 
	C444.297333,872.974243 441.227081,874.791138 438.941254,874.081360 
	C436.247742,873.245117 433.219421,870.643372 432.140930,868.055115 
	C430.049286,863.035706 432.803345,858.385986 438.571014,855.882080 
	C438.937744,856.339233 438.953613,856.554932 438.969452,856.770569 
z"/>
<path fill="#2F3683" opacity="1.000000" stroke="none" 
	d="
M555.156311,858.576050 
	C553.422791,863.581970 553.066711,868.522888 555.688660,873.683228 
	C553.415466,873.683228 550.952881,873.683228 548.505554,873.683228 
	C551.532043,869.843201 551.612244,862.623840 548.414856,857.474121 
	C550.511902,857.342224 552.010132,853.166992 554.706909,857.643250 
	C555.113098,858.178040 555.134705,858.377014 555.156311,858.576050 
z"/>
<path fill="#3B428A" opacity="1.000000" stroke="none" 
	d="
M44.203831,858.257080 
	C41.862091,863.103516 42.147053,870.291077 45.099655,873.732666 
	C42.330093,873.732666 39.833935,873.732666 37.386108,873.732666 
	C40.079010,868.520996 40.008297,863.202698 36.985088,857.244995 
	C38.686146,856.792236 40.365372,856.345276 42.170677,856.570190 
	C42.932449,857.580383 43.568142,857.918701 44.203831,858.257080 
z"/>
<path fill="#293180" opacity="1.000000" stroke="none" 
	d="
M555.564392,858.395569 
	C555.134705,858.377014 555.113098,858.178040 555.055176,857.680908 
	C557.728760,856.889099 560.801697,855.411987 563.025818,856.233337 
	C564.616638,856.820862 565.356140,860.419861 565.938538,862.806213 
	C566.396301,864.682068 565.790405,866.798279 566.109436,868.733093 
	C566.376892,870.355408 567.298157,871.869995 568.016541,873.646484 
	C565.851074,873.646484 563.102783,873.646484 560.345215,873.646484 
	C562.604126,871.310974 564.330505,862.267883 562.224487,859.769226 
	C561.103638,858.439392 558.116943,858.682129 555.564392,858.395569 
z"/>
<path fill="#293180" opacity="1.000000" stroke="none" 
	d="
M308.225647,870.055481 
	C307.664032,871.514832 307.102417,872.974182 305.992004,875.859558 
	C302.771698,868.279602 300.126648,862.053650 297.514923,855.906128 
	C299.166595,855.906128 301.739960,855.906128 303.126587,855.906128 
	C304.097107,859.827271 305.017059,863.544128 305.997131,867.982178 
	C306.780060,869.153992 307.502869,869.604736 308.225647,870.055481 
z"/>
<path fill="#272E7D" opacity="1.000000" stroke="none" 
	d="
M601.962769,863.927490 
	C602.424866,861.930115 602.886963,859.932678 603.470337,857.411255 
	C601.148010,857.169250 599.411072,856.988220 597.671387,856.806396 
	C604.411987,853.232300 607.086670,854.822632 607.101074,862.415771 
	C607.104858,864.411621 606.766418,866.486145 607.209473,868.378357 
	C607.564026,869.892151 608.865295,871.184326 610.253052,873.374329 
	C608.948547,873.417725 607.072937,873.480164 605.058960,872.884888 
	C604.442383,871.763733 603.964172,871.300293 603.622314,870.445190 
	C603.168701,868.347961 602.578613,866.642456 601.993774,864.684326 
	C601.986877,864.263611 601.974792,864.095520 601.962769,863.927490 
z"/>
<path fill="#293180" opacity="1.000000" stroke="none" 
	d="
M66.033569,857.671570 
	C66.028709,861.415161 65.812614,864.751709 66.101280,868.044006 
	C66.266891,869.932861 67.251701,871.749878 67.913773,873.737427 
	C65.769501,873.737427 62.797325,873.737427 59.669559,873.737427 
	C63.785847,870.408691 64.132545,861.711792 60.439884,858.069275 
	C64.519897,855.306030 64.519897,855.306030 66.033569,857.671570 
z"/>
<path fill="#272E7D" opacity="1.000000" stroke="none" 
	d="
M420.089386,873.345947 
	C423.832214,870.525391 424.058014,861.570679 420.066010,857.813354 
	C421.911438,856.924988 423.601349,856.111511 425.384216,855.253296 
	C427.936371,861.262512 422.902802,868.393250 428.953339,873.781250 
	C425.880280,873.781250 422.996552,873.781250 420.089386,873.345947 
z"/>
<path fill="#3B428A" opacity="1.000000" stroke="none" 
	d="
M308.497009,869.848633 
	C307.502869,869.604736 306.780060,869.153992 306.026001,868.358276 
	C309.577637,866.264648 311.624390,859.559509 309.412262,855.830200 
	C310.686646,855.754822 311.784576,855.663513 312.884247,855.631958 
	C314.020569,855.599304 315.158569,855.624756 315.756104,855.624756 
	C313.424103,860.302612 311.096222,864.972168 308.497009,869.848633 
z"/>
<path fill="#333A85" opacity="1.000000" stroke="none" 
	d="
M603.485962,870.836914 
	C603.964172,871.300293 604.442383,871.763733 604.974854,872.571899 
	C603.569946,873.277832 602.101257,873.962646 600.654053,873.919861 
	C598.762207,873.863831 596.887390,873.232483 595.005249,872.848633 
	C595.593689,870.813843 595.788818,868.521606 596.897522,866.827271 
	C597.754333,865.518127 599.756226,864.958313 601.605957,863.996460 
	C601.974792,864.095520 601.986877,864.263611 601.830261,864.990112 
	C600.555969,867.340881 599.450378,869.133179 598.344788,870.925415 
	C600.058533,870.895935 601.772217,870.866394 603.485962,870.836914 
z"/>
<path fill="#313884" opacity="1.000000" stroke="none" 
	d="
M457.611694,864.002502 
	C457.968292,863.930542 457.998718,864.425171 457.828033,864.980408 
	C456.542511,867.328491 455.427673,869.121338 454.312866,870.914307 
	C455.788696,871.188354 457.264526,871.462402 458.740387,871.736450 
	C458.740387,871.736389 458.950562,871.909790 459.030334,872.020264 
	C456.819489,874.477844 453.665405,876.078857 451.464905,873.285217 
	C449.101898,870.285278 451.047363,867.383728 454.399567,865.741943 
	C455.386810,865.258362 456.305145,864.634155 457.611694,864.002502 
z"/>
<path fill="#3B428A" opacity="1.000000" stroke="none" 
	d="
M326.899597,870.791016 
	C326.921356,870.997803 326.943146,871.204590 326.987427,871.722656 
	C326.910706,872.164612 326.838837,872.340942 326.708221,872.419434 
	C324.052795,874.015015 320.845184,876.486694 318.572784,872.968384 
	C316.280151,869.418701 319.049347,866.928772 322.687531,865.307495 
	C323.050629,865.447937 323.075531,865.663330 322.925842,866.512268 
	C322.550201,868.599915 322.349152,870.053894 322.148102,871.507935 
	C323.731934,871.268982 325.315765,871.029968 326.899597,870.791016 
z"/>
<path fill="#4C5395" opacity="1.000000" stroke="none" 
	d="
M225.404175,845.943481 
	C224.978516,845.834351 224.823212,845.576721 224.416351,845.233276 
	C227.157455,844.299866 230.071686,843.395752 233.048080,842.804688 
	C233.386337,842.737549 234.073944,844.429871 234.599548,845.306335 
	C233.529846,845.647400 232.463348,846.257385 231.389740,846.270142 
	C229.506989,846.292603 227.619873,845.948975 225.404175,845.943481 
z"/>
<path fill="#41488F" opacity="1.000000" stroke="none" 
	d="
M439.336548,856.821350 
	C438.953613,856.554932 438.937744,856.339233 438.936676,855.798950 
	C442.648102,854.504517 445.584564,855.125427 446.350403,860.294800 
	C444.134796,859.153931 441.919220,858.013062 439.336548,856.821350 
z"/>
<path fill="#3F478E" opacity="1.000000" stroke="none" 
	d="
M44.181999,858.252686 
	C43.568142,857.918701 42.932449,857.580383 42.184696,856.884277 
	C42.481182,856.726196 42.889725,856.925903 43.681442,857.396912 
	C44.105549,857.859253 44.146488,858.050293 44.187428,858.241333 
	C44.187428,858.241333 44.160160,858.248291 44.181999,858.252686 
z"/>
<path fill="#3B428A" opacity="1.000000" stroke="none" 
	d="
M44.409084,858.209961 
	C44.146488,858.050293 44.105549,857.859253 44.034916,857.376587 
	C44.124878,856.957947 44.244537,856.830872 44.601692,856.592957 
	C44.870472,856.720947 44.901760,856.959839 44.964188,857.558655 
	C44.995327,857.918640 44.630741,858.178528 44.409084,858.209961 
z"/>
<path fill="#FAFAFB" opacity="1.000000" stroke="none" 
	d="
M585.355347,863.178589 
	C585.355530,864.127808 585.368713,864.622437 585.352783,865.116211 
	C585.254272,868.160522 586.102783,871.838623 581.419800,872.216919 
	C577.487732,872.534607 575.788940,869.768982 575.119202,866.553040 
	C574.358093,862.898376 574.358826,859.074768 578.540771,857.250305 
	C582.341858,855.591980 584.795471,857.689453 585.355347,863.178589 
z"/>
<path fill="#F7F8F9" opacity="1.000000" stroke="none" 
	d="
M512.227295,856.867310 
	C514.673340,858.600586 518.112732,860.192017 518.435852,862.268433 
	C518.907837,865.301086 517.933777,869.256226 516.117371,871.759949 
	C514.125305,874.505920 511.039001,873.129150 509.187256,870.398132 
	C506.439758,866.346008 507.710083,860.084106 512.227295,856.867310 
z"/>
<path fill="#F6F7F9" opacity="1.000000" stroke="none" 
	d="
M207.900787,871.874390 
	C203.241531,874.355347 201.122803,871.939880 199.848663,868.223877 
	C198.236450,863.521851 199.969803,857.951843 203.302277,857.000916 
	C206.734161,856.021667 209.348572,858.134827 209.638031,860.887329 
	C210.004471,864.371704 208.753418,868.026245 207.900787,871.874390 
z"/>
<path fill="#F4F5F8" opacity="1.000000" stroke="none" 
	d="
M386.541534,863.226807 
	C387.250610,859.544250 388.305084,856.301208 392.408936,856.899719 
	C396.322937,857.470581 397.454926,860.866394 397.673553,864.289978 
	C397.784241,866.023438 397.461487,868.086548 396.554291,869.499634 
	C395.607666,870.974060 393.653259,872.829834 392.265656,872.731750 
	C390.545776,872.610352 388.444611,870.972290 387.456024,869.395203 
	C386.505157,867.878296 386.763458,865.603455 386.541534,863.226807 
z"/>
<path fill="#F8F9FA" opacity="1.000000" stroke="none" 
	d="
M287.433716,857.218018 
	C291.406006,861.286865 292.553986,866.162170 289.894257,869.855347 
	C288.772339,871.413269 285.463562,873.026184 284.049194,872.440308 
	C279.669678,870.626282 279.555115,866.232544 280.265228,862.236145 
	C280.884064,858.753357 282.652985,855.955322 287.433716,857.218018 
z"/>
<path fill="#F7F8F9" opacity="1.000000" stroke="none" 
	d="
M652.627686,868.194092 
	C650.574585,870.034180 648.672607,871.494324 646.770630,872.954468 
	C645.185242,870.866638 642.469604,868.869934 642.292297,866.668701 
	C642.055481,863.729980 643.496765,860.486877 644.879700,857.703674 
	C645.232971,856.992676 648.518860,856.843018 649.701843,857.606323 
	C653.396606,859.990234 653.442017,863.887756 652.627686,868.194092 
z"/>
<path fill="#E8EBF2" opacity="1.000000" stroke="none" 
	d="
M96.359314,860.994568 
	C95.570923,860.309387 95.185265,859.627075 94.799622,858.944824 
	C96.331032,858.254700 97.851784,857.095520 99.398041,857.060425 
	C100.247353,857.041199 101.139671,858.915771 102.919960,860.997437 
	C99.936462,860.997437 98.349258,860.997437 96.359314,860.994568 
z"/>
<path fill="#E8EBF2" opacity="1.000000" stroke="none" 
	d="
M326.943542,870.387451 
	C325.315765,871.029968 323.731934,871.268982 322.148102,871.507935 
	C322.349152,870.053894 322.550201,868.599915 322.956970,866.836060 
	C324.309937,866.013550 325.457184,865.500916 326.987518,864.817078 
	C326.987518,866.813171 326.987518,868.398499 326.943542,870.387451 
z"/>
<path fill="#E8EBF2" opacity="1.000000" stroke="none" 
	d="
M458.898560,871.395325 
	C457.264526,871.462402 455.788696,871.188354 454.312866,870.914307 
	C455.427673,869.121338 456.542511,867.328491 457.821411,865.228149 
	C461.602386,866.395752 459.874847,868.804382 458.898560,871.395325 
z"/>
<path fill="#E8EBF2" opacity="1.000000" stroke="none" 
	d="
M603.622314,870.445129 
	C601.772217,870.866394 600.058533,870.895935 598.344788,870.925415 
	C599.450378,869.133179 600.555969,867.340881 601.825073,865.242798 
	C602.578613,866.642456 603.168701,868.347961 603.622314,870.445129 
z"/>
</svg>