<?xml version="1.0" encoding="UTF-8"?><svg id="Layer_2" xmlns="http://www.w3.org/2000/svg" viewBox="0 0 1920 893.88"><defs><style>.cls-1{fill:#000;stroke-width:0px;}</style></defs><g id="Layer_1-2"><polygon class="cls-1" points="570.36 28 23 28 23 155 359.31 155 192.44 369.99 276 473.33 570.36 109.83 570.36 28"/><path class="cls-1" d="M300.15,893.88C134.65,893.88,0,757,0,594h133.16c0,89,74.92,166.72,166.99,166.72s167.01-75.06,167.01-167.15c0-26.58-6.04-52.03-17.96-75.51l118.73-60.31c21.18,41.73,32.39,88.79,32.39,135.85,0,165.51-134.65,300.28-300.17,300.28Z"/><path class="cls-1" d="M1322.71,304h-133.16c0-89-73.54-164.69-170.54-164.69h0c-45,0-84.76,16.21-116.31,47.76-31.54,31.54-47.15,72.94-47.15,116.94h-133.16c0-82,31.23-157.47,87.91-214.17C866.98,33.14,942.37,0,1022.52,0h.03c165.5,0,300.15,140,300.15,304Z"/><path class="cls-1" d="M736.51,478.89v-65.14h-15.68v-8.48c4.95,0,8.88-.42,11.79-1.26,2.9-.84,5.02-2.08,6.37-3.71,1.35-1.64,2.11-3.62,2.31-5.96h9.71v84.56h-14.5Z"/><path class="cls-1" d="M799.71,480.18c-4.95,0-9.58-.95-13.91-2.87-4.34-1.91-7.9-4.62-10.7-8.13-2.82-3.5-4.46-7.63-4.92-12.39h13.63c.81,3.55,2.59,6.42,5.31,8.62,2.73,2.21,6.08,3.31,10.06,3.31,4.48,0,8.38-1.12,11.67-3.34,3.3-2.22,5.76-5.71,7.39-10.47,1.64-4.75,2.25-10.93,1.82-18.53-1.04,2.49-2.59,4.68-4.59,6.55-2,1.87-4.39,3.33-7.13,4.36-2.76,1.03-5.81,1.55-9.16,1.55-5.65,0-10.66-1.08-15-3.24-4.35-2.17-7.75-5.26-10.2-9.3-2.45-4.03-3.69-8.82-3.69-14.36s1.26-10.59,3.77-14.91c2.51-4.33,6.07-7.73,10.64-10.18,4.59-2.46,9.97-3.68,16.17-3.68,6.91,0,12.86,1.69,17.9,5.09,5.02,3.39,8.9,8.23,11.6,14.5,2.71,6.28,4.06,13.72,4.06,22.34,0,9.82-1.38,18.08-4.12,24.77-2.74,6.68-6.71,11.74-11.86,15.17-5.18,3.43-11.41,5.14-18.75,5.14ZM801.29,437.26c2.73,0,5.34-.62,7.84-1.87,2.5-1.25,4.54-2.86,6.14-4.85,1.6-1.99,2.4-4.09,2.4-6.32.04-4.05-.62-7.57-1.99-10.56-1.36-2.98-3.28-5.3-5.76-6.95-2.47-1.66-5.36-2.49-8.68-2.49-3,0-5.67.72-8.04,2.17-2.35,1.44-4.19,3.44-5.52,5.99-1.34,2.55-1.99,5.51-1.99,8.86,0,4.99,1.38,8.9,4.14,11.75,2.77,2.85,6.61,4.27,11.47,4.27Z"/><path class="cls-1" d="M874.38,480.18c-4.94,0-9.58-.95-13.91-2.87-4.33-1.91-7.9-4.62-10.7-8.13-2.82-3.5-4.46-7.63-4.92-12.39h13.63c.81,3.55,2.6,6.42,5.31,8.62,2.73,2.21,6.08,3.31,10.06,3.31,4.49,0,8.37-1.12,11.67-3.34,3.3-2.22,5.76-5.71,7.39-10.47,1.64-4.75,2.25-10.93,1.82-18.53-1.04,2.49-2.57,4.68-4.59,6.55-2,1.87-4.39,3.33-7.13,4.36-2.76,1.03-5.81,1.55-9.16,1.55-5.65,0-10.66-1.08-15-3.24-4.34-2.17-7.75-5.26-10.21-9.3-2.45-4.03-3.69-8.82-3.69-14.36s1.26-10.59,3.77-14.91c2.51-4.33,6.07-7.73,10.64-10.18,4.58-2.46,9.97-3.68,16.17-3.68,6.91,0,12.86,1.69,17.9,5.09,5.02,3.39,8.9,8.23,11.61,14.5,2.7,6.28,4.06,13.72,4.06,22.34,0,9.82-1.38,18.08-4.12,24.77-2.76,6.68-6.72,11.74-11.87,15.17-5.17,3.43-11.41,5.14-18.75,5.14ZM875.96,437.26c2.73,0,5.34-.62,7.84-1.87,2.5-1.25,4.54-2.86,6.14-4.85,1.6-1.99,2.41-4.09,2.41-6.32.03-4.05-.62-7.57-2-10.56-1.36-2.98-3.28-5.3-5.75-6.95-2.48-1.66-5.37-2.49-8.7-2.49-3.01,0-5.68.72-8.03,2.17-2.37,1.44-4.21,3.44-5.53,5.99-1.32,2.55-1.99,5.51-1.99,8.86,0,4.99,1.38,8.9,4.15,11.75,2.76,2.85,6.59,4.27,11.45,4.27Z"/><path class="cls-1" d="M954.21,480.18c-5.39,0-10.38-.88-14.99-2.66-4.62-1.77-8.59-4.22-11.93-7.33-3.32-3.12-5.82-6.69-7.46-10.7l11.53-6.08c1.44,2.88,3.16,5.48,5.18,7.77,2,2.31,4.37,4.11,7.07,5.42,2.72,1.3,5.82,1.96,9.33,1.96,5.49,0,9.92-1.53,13.24-4.59,3.34-3.05,5-7.14,5-12.25,0-3.16-.76-5.96-2.31-8.42-1.54-2.45-3.63-4.38-6.24-5.76-2.64-1.38-5.63-2.07-8.99-2.07-1.99,0-3.85.17-5.59.52-1.73.35-3.47,1.01-5.23,1.96-1.76.96-3.66,2.39-5.68,4.3-.39.19-.67.28-.86.26-.18-.02-.47-.13-.9-.32l-10.93-4.45,3.86-43.39h52.56l-.52,11.87h-40.47l-1.91,23.51c2.99-2.1,6.01-3.62,9.06-4.56,3.03-.94,6.39-1.4,10.06-1.4,5.37,0,10.26,1.05,14.68,3.16,4.4,2.1,7.91,5.2,10.52,9.3,2.61,4.09,3.92,9.1,3.92,15.03s-1.32,11.05-3.95,15.38c-2.63,4.33-6.34,7.67-11.1,10.03-4.79,2.35-10.42,3.53-16.94,3.53Z"/><path class="cls-1" d="M1016.65,454.1v-10.65l30.88-.06v10.65l-30.88.06Z"/><path class="cls-1" d="M1075.2,478.89v-11.53c0-4.33.8-8.06,2.39-11.19,1.6-3.13,3.73-5.88,6.37-8.22,2.66-2.34,5.56-4.41,8.74-6.22,3.18-1.81,6.34-3.53,9.48-5.15,3.13-1.62,6.04-3.29,8.68-5.03,2.66-1.74,4.79-3.68,6.4-5.82,1.62-2.14,2.44-4.7,2.44-7.66,0-3.78-1.35-6.87-4.01-9.27-2.67-2.4-6.29-3.6-10.86-3.6-4.83,0-8.81,1.38-11.95,4.15-3.15,2.77-5.01,6.67-5.59,11.7h-13.81c.07-5.15,1.31-9.83,3.69-14.03,2.38-4.21,5.91-7.58,10.58-10.09,4.69-2.51,10.51-3.77,17.48-3.77,6.05,0,11.26,1.04,15.65,3.13,4.38,2.09,7.78,4.99,10.17,8.72,2.4,3.72,3.6,8.06,3.6,13.01,0,4.33-.78,8.03-2.37,11.11-1.58,3.08-3.67,5.74-6.26,7.98-2.6,2.24-5.44,4.22-8.55,5.93-3.09,1.72-6.2,3.33-9.29,4.83-3.09,1.5-5.95,3.06-8.54,4.68-2.6,1.62-4.67,3.46-6.25,5.53-1.58,2.06-2.37,4.54-2.37,7.42v1.23h43.79v12.17h-59.65Z"/><path class="cls-1" d="M1177.35,480.18c-9.79,0-17.48-3.69-23.07-11.05-5.59-7.36-8.39-18.11-8.39-32.22,0-9.51,1.28-17.51,3.86-24,2.57-6.49,6.21-11.41,10.93-14.74,4.72-3.33,10.29-5,16.72-5,9.67,0,17.32,3.71,22.95,11.14,5.65,7.43,8.46,18.26,8.46,32.49s-2.8,24.92-8.41,32.31c-5.59,7.39-13.28,11.08-23.07,11.08ZM1177.41,468.31c5.5,0,9.6-2.44,12.28-7.31,2.7-4.87,4.04-12.92,4.04-24.15s-1.37-19.69-4.09-24.68c-2.73-4.99-6.82-7.49-12.28-7.49s-9.58,2.52-12.37,7.55c-2.79,5.03-4.18,13.24-4.18,24.62s1.39,19.23,4.18,24.12c2.79,4.89,6.94,7.34,12.43,7.34Z"/><path class="cls-1" d="M1221.03,478.89v-11.53c0-4.33.8-8.06,2.4-11.19,1.61-3.13,3.73-5.88,6.37-8.22,2.66-2.34,5.57-4.41,8.75-6.22,3.18-1.81,6.33-3.53,9.46-5.15,3.15-1.62,6.04-3.29,8.7-5.03,2.64-1.74,4.78-3.68,6.4-5.82,1.61-2.14,2.42-4.7,2.42-7.66,0-3.78-1.33-6.87-4.01-9.27-2.67-2.4-6.28-3.6-10.84-3.6-4.83,0-8.82,1.38-11.96,4.15-3.14,2.77-5.01,6.67-5.59,11.7h-13.8c.09-5.15,1.31-9.83,3.69-14.03,2.38-4.21,5.91-7.58,10.58-10.09,4.69-2.51,10.51-3.77,17.49-3.77,6.04,0,11.27,1.04,15.64,3.13,4.4,2.09,7.78,4.99,10.17,8.72,2.41,3.72,3.6,8.06,3.6,13.01,0,4.33-.79,8.03-2.37,11.11-1.58,3.08-3.67,5.74-6.25,7.98-2.6,2.24-5.44,4.22-8.53,5.93-3.11,1.72-6.2,3.33-9.31,4.83-3.09,1.5-5.94,3.06-8.54,4.68-2.6,1.62-4.67,3.46-6.25,5.53-1.58,2.06-2.36,4.54-2.36,7.42v1.23h43.79v12.17h-59.65Z"/><path class="cls-1" d="M1326.13,480.18c-5.39,0-10.4-.88-15.01-2.66-4.62-1.77-8.59-4.22-11.93-7.33-3.33-3.12-5.81-6.69-7.45-10.7l11.51-6.08c1.45,2.88,3.16,5.48,5.18,7.77,2,2.31,4.37,4.11,7.07,5.42,2.71,1.3,5.82,1.96,9.33,1.96,5.49,0,9.92-1.53,13.24-4.59,3.34-3.05,5.01-7.14,5.01-12.25,0-3.16-.77-5.96-2.31-8.42-1.54-2.45-3.63-4.38-6.26-5.76-2.64-1.38-5.63-2.07-8.98-2.07-1.99,0-3.85.17-5.58.52-1.74.35-3.48,1.01-5.24,1.96-1.76.96-3.64,2.39-5.68,4.3-.38.19-.67.28-.84.26-.17-.02-.48-.13-.91-.32l-10.93-4.45,3.86-43.39h52.56l-.52,11.87h-40.47l-1.92,23.51c2.99-2.1,6.02-3.62,9.06-4.56,3.04-.94,6.39-1.4,10.06-1.4,5.38,0,10.26,1.05,14.67,3.16,4.41,2.1,7.91,5.2,10.53,9.3,2.61,4.09,3.92,9.1,3.92,15.03s-1.32,11.05-3.95,15.38c-2.63,4.33-6.33,7.67-11.11,10.03-4.78,2.35-10.42,3.53-16.92,3.53Z"/><path class="cls-1" d="M776.11,700.3c-12.38,0-22.2-2.07-29.44-6.21-7.26-4.14-12.44-9.91-15.58-17.29-3.14-7.38-4.7-15.96-4.7-25.73v-67.56h31.38v68.83c0,7.97,1.86,13.62,5.55,16.97,3.69,3.35,7.95,5.02,12.79,5.02,3.18,0,6.17-.73,8.96-2.19,2.79-1.45,5.05-3.79,6.78-7.01,1.73-3.21,2.59-7.47,2.59-12.78v-68.83h31.4v67.56c0,9.77-1.57,18.35-4.7,25.73-3.14,7.38-8.33,13.15-15.58,17.29-7.26,4.15-17.07,6.21-29.44,6.21Z"/><path class="cls-1" d="M847.57,698.71v-115.21h31.24l44.93,64.21v-64.21h30.99v115.21h-27.97l-48.19-68.68v68.68h-30.99Z"/><path class="cls-1" d="M978.62,698.71v-115.21h30.99v115.21h-30.99Z"/><path class="cls-1" d="M1064.02,698.71l-38.87-115.21h29.25l26.68,78.87,26.61-78.87h29.32l-38.87,115.21h-34.11Z"/><path class="cls-1" d="M1152.54,698.71v-115.21h85.09l-.16,25.66h-53.7v19.12h44.93v25.01h-45.17v19.61h54.26v25.82h-85.25Z"/><path class="cls-1" d="M1258.1,698.71v-115.21h52.27c9.97,0,18.02,1.65,24.1,4.94,6.08,3.29,10.49,7.74,13.25,13.34,2.77,5.61,4.15,11.89,4.15,18.84,0,5.89-.78,10.93-2.35,15.1-1.57,4.17-3.72,7.73-6.45,10.68-2.74,2.95-5.89,5.51-9.45,7.69l20.24,44.62h-31.79l-16.72-39.69h-16.26v39.69h-30.99ZM1289.1,635.93h17.77c3.98,0,7.29-1.57,9.91-4.7,2.63-3.14,3.95-6.56,3.95-10.28,0-3.98-1.44-7.4-4.3-10.23-2.87-2.84-6.05-4.27-9.57-4.27h-17.77v29.48Z"/><path class="cls-1" d="M1370.6,698.71v-14.18l54.25-75.53h-49.24v-25.5h93.85v13.54l-55.36,75.85h54.42v25.82h-97.91Z"/><path class="cls-1" d="M1481.26,698.71l40.79-115.21h31.7l40.79,115.21h-30.58l-7.65-22.31h-36.34l-7.81,22.31h-30.91ZM1526.51,649.95h22.79l-11.32-36.81-11.47,36.81Z"/><path class="cls-1" d="M756.9,889.92l-38.88-115.2h29.24l26.7,78.87,26.61-78.87h29.32l-38.89,115.2h-34.1Z"/><path class="cls-1" d="M881.26,889.92v-115.2h31.24l44.93,64.2v-64.2h30.99v115.2h-27.96l-48.21-68.67v68.67h-30.99Z"/><path class="cls-1" d="M1064.27,891.51c-11.42,0-21.31-2.43-29.68-7.29-8.36-4.86-14.82-11.7-19.39-20.52-4.57-8.81-6.85-19.2-6.85-31.15s2.32-22.46,6.97-31.36c4.65-8.88,11.16-15.79,19.55-20.71,8.4-4.91,18.2-7.37,29.41-7.37s20.89,2.45,29.24,7.37c8.33,4.92,14.82,11.82,19.44,20.71,4.62,8.9,6.94,19.35,6.94,31.36s-2.28,22.27-6.82,31.11c-4.54,8.85-10.97,15.7-19.32,20.56-8.33,4.86-18.16,7.29-29.47,7.29ZM1064.27,866.65c4.24,0,8.03-1.07,11.35-3.22,3.31-2.15,5.91-5.69,7.81-10.6,1.87-4.91,2.83-11.51,2.83-19.8s-.96-15.39-2.83-20.51c-1.9-5.12-4.5-8.83-7.81-11.12-3.33-2.28-7.11-3.43-11.35-3.43s-8.04,1.15-11.36,3.43c-3.31,2.29-5.92,5.99-7.84,11.12-1.92,5.12-2.87,11.96-2.87,20.51s.96,14.89,2.87,19.8c1.92,4.9,4.53,8.45,7.84,10.6,3.33,2.15,7.11,3.22,11.36,3.22Z"/><path class="cls-1" d="M1163.14,889.92l-38.88-115.2h29.24l26.68,78.87,26.61-78.87h29.32l-38.87,115.2h-34.1Z"/><path class="cls-1" d="M1251.64,889.92v-115.2h30.99v115.2h-30.99Z"/><path class="cls-1" d="M1392.9,891.51c-10.95,0-20.5-2.48-28.68-7.45-8.17-4.97-14.53-11.88-19.05-20.71-4.5-8.85-6.76-19.05-6.76-30.64s2.4-22.4,7.2-31.35c4.82-8.94,11.45-15.89,19.93-20.83,8.46-4.94,18.23-7.4,29.28-7.4,7.75,0,14.71,1.16,20.86,3.5,6.17,2.34,11.44,5.52,15.82,9.52,4.38,4.02,7.74,8.54,10.07,13.59,2.34,5.04,3.56,10.25,3.67,15.61h-32.43c-.7-3.13-1.83-5.94-3.38-8.44-1.57-2.5-3.63-4.48-6.19-5.94-2.54-1.46-5.62-2.19-9.23-2.19s-7.32,1.03-10.64,3.06c-3.33,2.05-6.01,5.47-8.04,10.29-2.05,4.81-3.08,11.35-3.08,19.63,0,7.07.74,12.76,2.19,17.09,1.47,4.33,3.35,7.63,5.66,9.92,2.31,2.28,4.82,3.82,7.53,4.62,2.7.8,5.28,1.2,7.72,1.2,2.18,0,4.19-.32,6.05-.95,1.86-.64,3.51-1.48,4.95-2.51,1.42-1.04,2.63-2.19,3.62-3.47.99-1.28,1.7-2.57,2.12-3.9l1.35-4.14h-20.08v-20.87l52.74.32v60.87h-20.31v-12.74c-1.92,1.96-4.21,4.06-6.89,6.29-2.69,2.23-6.1,4.14-10.24,5.7-4.15,1.57-9.41,2.35-15.78,2.35Z"/><path class="cls-1" d="M1521.41,891.51c-11.42,0-21.32-2.43-29.68-7.29-8.36-4.86-14.83-11.7-19.39-20.52-4.57-8.81-6.85-19.2-6.85-31.15s2.32-22.46,6.97-31.36c4.65-8.88,11.16-15.79,19.55-20.71,8.4-4.91,18.2-7.37,29.41-7.37s20.89,2.45,29.24,7.37c8.33,4.92,14.82,11.82,19.44,20.71,4.62,8.9,6.94,19.35,6.94,31.36s-2.28,22.27-6.82,31.11c-4.54,8.85-10.97,15.7-19.32,20.56-8.33,4.86-18.16,7.29-29.47,7.29ZM1521.41,866.65c4.24,0,8.03-1.07,11.35-3.22,3.31-2.15,5.91-5.69,7.81-10.6,1.87-4.91,2.83-11.51,2.83-19.8s-.96-15.39-2.83-20.51c-1.9-5.12-4.5-8.83-7.81-11.12-3.33-2.28-7.11-3.43-11.35-3.43s-8.04,1.15-11.36,3.43c-3.31,2.29-5.92,5.99-7.84,11.12-1.92,5.12-2.88,11.96-2.88,20.51s.96,14.89,2.88,19.8c1.92,4.9,4.53,8.45,7.84,10.6,3.33,2.15,7.11,3.22,11.36,3.22Z"/><path class="cls-1" d="M1596.94,889.92v-115.2h52.26c9.99,0,18.01,1.64,24.1,4.94,6.08,3.29,10.51,7.74,13.27,13.34,2.76,5.6,4.15,11.89,4.15,18.84,0,5.9-.8,10.93-2.37,15.1-1.57,4.17-3.72,7.73-6.44,10.68-2.73,2.95-5.88,5.5-9.44,7.68l20.24,44.62h-31.79l-16.74-39.68h-16.24v39.68h-30.99ZM1627.93,827.13h17.75c3.99,0,7.3-1.56,9.93-4.7,2.63-3.13,3.95-6.56,3.95-10.28,0-3.98-1.44-7.4-4.31-10.23-2.86-2.85-6.05-4.27-9.57-4.27h-17.75v29.48Z"/><path class="cls-1" d="M1713.01,889.92v-115.2h30.99v115.2h-30.99Z"/><path class="cls-1" d="M1819.05,891.51c-11.1,0-20.79-2.63-29.04-7.89-8.26-5.26-14.68-12.46-19.23-21.59-4.57-9.13-6.85-19.55-6.85-31.23s2.25-21.84,6.77-30.48c4.51-8.63,10.9-15.32,19.16-20.08,8.26-4.76,17.99-7.13,29.2-7.13,9.13,0,17.31,1.79,24.53,5.37,7.23,3.59,13.06,8.56,17.54,14.91,4.46,6.34,7.11,13.66,7.96,21.94h-32.34c-.58-3.55-1.67-6.64-3.27-9.24-1.6-2.6-3.67-4.61-6.26-6.02-2.57-1.4-5.65-2.11-9.21-2.11-3.87,0-7.33,1.02-10.35,3.04-3.04,2.02-5.42,5.46-7.13,10.31-1.74,4.86-2.6,11.51-2.6,19.95,0,12.8,1.89,21.91,5.66,27.29,3.77,5.39,8.58,8.09,14.41,8.09,3.56,0,6.64-.9,9.21-2.71,2.58-1.81,4.66-4.21,6.26-7.21,1.6-3,2.69-6.28,3.27-9.84h32.34c-.79,5.95-2.13,11.61-4.02,16.97-1.89,5.37-4.67,10.13-8.36,14.3-3.69,4.17-8.59,7.44-14.7,9.8-6.1,2.37-13.75,3.55-22.94,3.55Z"/><path class="cls-1" d="M1889.01,889.92v-115.2h30.99v115.2h-30.99Z"/></g></svg>