<?xml version="1.0" encoding="utf-8"?>
<!-- Generator: Adobe Illustrator 26.0.3, SVG Export Plug-In . SVG Version: 6.00 Build 0)  -->
<svg version="1.0" id="katman_1" xmlns="http://www.w3.org/2000/svg" xmlns:xlink="http://www.w3.org/1999/xlink" x="0px" y="0px"
	 viewBox="0 0 600 450" style="enable-background:new 0 0 600 450;" xml:space="preserve">
<style type="text/css">
	.st0{fill:#221F20;}
	.st1{fill-rule:evenodd;clip-rule:evenodd;fill:#221F20;}
</style>
<g transform="matrix(1,0,0,1,-4896.88,-4)">
	<g transform="matrix(1,0,0,1,4860,0)">
		<g transform="matrix(1,0,0,1,103.186,69.4293)">
			<path class="st0" d="M384.9,283.3c-1.5,0-2.6,0.4-3.7,1.3c-1.2,1-1.8,2.2-1.8,3.6c0,1.6,0.4,2.9,1.3,3.7c1.2,1.1,3,1.9,3.8,2.2
				c2.8,1,3.9,1.8,3.9,4.2c0,2.1-2,3-3.4,3c-1.3,0-2.6-0.6-3.4-1.9c-0.7-1.1-0.9-2.1-1-2.9l-0.1-0.2l-0.6,0l-0.1,0.2l-0.5,4.8
				l0.3,0.4l0.5-0.3l0.4-0.5l0.6,0.3c1,0.8,2.3,1.3,4.4,1.3c3.4,0,5.5-2.6,5.5-5.8c0-1.7-0.5-2.8-1.3-3.7c-1-1-2.2-1.6-3.7-2
				c-1-0.3-2.5-0.9-3.2-1.6c-0.6-0.7-0.7-1.4-0.7-2.3c0-0.9,0.8-2.6,2.9-2.6c1.2,0,2,0.4,2.7,1.1c0.9,1,1.3,2,1.6,2.8l0.3,0.1
				l0.4-0.1l0.2-0.2c0-0.3-0.4-3.9-0.4-4.3l-0.2-0.4l-0.4,0.2l-0.3,0.3l-0.5,0.1C387.6,283.7,386.6,283.3,384.9,283.3"/>
		</g>
	</g>
	<g transform="matrix(1,0,0,1,4860,0)">
		<g transform="matrix(1,0,0,1,88.5095,75.9995)">
			<path class="st0" d="M328.5-2.9H321c55.6,25.7,94.3,82,94.3,147.2c0,45.3-19.1,88.7-52.5,119.3H304c-3.1,0-15.6,0.6-24,1
				c3.3-0.3,7.2-1.1,9.3-1.7c51.9-15.1,88.3-64.2,88.3-118.6c0-68.5-55.7-124.3-124.3-124.3c-68.5,0-124.3,55.7-124.3,124.3
				c0,54.4,36.4,103.5,88.3,118.6c2.1,0.6,6,1.4,9.3,1.7c-8.4-0.4-20.8-1-24-1H144c-33.4-30.6-52.6-74.1-52.6-119.3
				c0-65.2,38.7-121.5,94.3-147.2h-7.4c-53.5,27.4-90.2,83.1-90.2,147.2c0,45,18.6,88.3,51,119.3H78.4v44.2h130.1v14.4l1.1,0.3
				c14.4,3.5,29.1,5.3,43.8,5.3c14.7,0,29.4-1.8,43.8-5.3l1.2-0.3v-14.4h120.2v-44.2h-51c32.5-31.1,51-74.3,51-119.3
				C418.6,80.1,381.9,24.5,328.5-2.9 M253.4,283.8c-6.4,0-13-0.5-19.5-1.4v-18l-0.1-0.3c-58.6-9.7-101.5-60.4-101.5-119.8
				c0-66.8,54.3-121.1,121.1-121.1c66.7,0,121.1,54.3,121.1,121.1c0,59.4-42,110.1-100.6,119.8l-1,0.3v18
				C266.4,283.3,259.8,283.8,253.4,283.8 M298.4,304.5v-27.1c0,0-16.2-9.9-20.8-11.4c2.8,0.8,8.7,0.8,9.8,0.8h128v37.7H298.4
				 M81.6,304.5v-37.7h137.8c1,0,7,0,9.8-0.8c-4.6,1.5-20.8,11.4-20.8,11.4v27.1H81.6 M275.5,282v-14.5c1.2,0.8,16.6,9.6,18,10.2
				C288.9,279.3,282,281.2,275.5,282 M231.3,282c-6.6-0.9-13.4-2.7-18-4.3c1.4-0.6,16.7-9.4,18-10.2V282 M253.4,286.8
				c14.2,0,28.3-2.2,41.9-6.4v39.3c-13.8,3.3-27.8,5-41.9,5c-14.1,0-28.2-1.7-41.9-5v-39.3C225.1,284.6,239.1,286.8,253.4,286.8"/>
		</g>
	</g>
	<g transform="matrix(1,0,0,1,4860,0)">
		<g transform="matrix(1,0,0,1,73.0171,7.729)">
			<path class="st0" d="M268.9,47.3c-27,0-52.5,6.5-75,18.1h7.4c20.6-9.5,43.5-14.8,67.6-14.8c24.1,0,47,5.3,67.6,14.8h7.4
				C321.4,53.8,295.9,47.3,268.9,47.3"/>
		</g>
	</g>
	<g transform="matrix(1,0,0,1,4860,0)">
		<g transform="matrix(1,0,0,1,87.8386,50.9395)">
			<path class="st0" d="M325.9,112.8h-48.8c-10.4,0-19.3,6.4-23,15.6c-0.4-1-0.9-1.9-1.4-2.8l-0.1-0.2c-4.3-7.5-12.2-12.6-21.5-12.6
				h-48.8c-0.6,0-1.1,0.2-1.4,0.7c-13.5,16.8-20.7,37.1-20.7,58.6c0,7.7,1.1,15.6,3.1,23.5l0,0.1l0.6,0.9l0.6,0.3l0.3,0l0.1,0h1.9
				v9.7c0,1,0.8,1.8,1.8,1.8h3.8v9.6c0,0.5,0.2,0.9,0.5,1.3c0.3,0.3,0.8,0.5,1.3,0.5l50.2,0c5.3,0,9.7,4.3,9.7,9.7
				c0,1,0.8,1.8,1.8,1.8h9l0,0v0h9l0,0l0,0h9.1v0l0,0h9c1,0,1.8-0.8,1.8-1.8c0-5.4,4.4-9.7,9.7-9.7l50.1,0c0.5,0,0.9-0.2,1.3-0.5
				c0.4-0.3,0.6-0.8,0.6-1.3v-9.6h3.8c1,0,1.8-0.8,1.8-1.8V197h1.8c0.8,0,1.6-0.6,1.8-1.4c2-7.9,3.1-15.8,3.1-23.5
				c0-21.5-7.2-41.8-20.7-58.6C326.9,113.1,326.4,112.8,325.9,112.8 M255.9,206v-68.3c0-11.6,9.5-21.2,21.2-21.2h47.8
				c12.7,16.1,19.4,35.3,19.4,55.7c0,6.9-0.9,14-2.7,21.2c-2.9,0-64.5,0-64.5,0C267.9,193.3,260.2,198.5,255.9,206 M165.4,187.8
				c-1-5.3-1.5-10.5-1.5-15.6c0-20.4,6.7-39.6,19.4-55.7h47.8c6.8,0,12.8,3.3,16.6,8.3C210.2,127.3,177.6,152.5,165.4,187.8
				 M167.6,193.3c10.5-36.9,44-63.4,82.4-65.1c1.4,2.9,2.3,6,2.3,9.4v68.3c-4.3-7.4-12-12.6-21.1-12.6
				C231.1,193.3,179.2,193.3,167.6,193.3 M255.9,227.8v-9.6c0-11.7,9.5-21.2,21.2-21.2l60.5,0.1v7.8h-57.1
				c-10.5,0-19.1,8.5-19.1,19.1v3.8H255.9 M170.6,204.9V197l60.5-0.1c11.7,0,21.1,9.5,21.1,21.2v9.6h-5.4V224
				c0-10.6-8.6-19.1-19.1-19.1H170.6 M265,227.8V224c0-8.5,6.9-15.5,15.4-15.5H332v7.8c-3.4,0-48.3,0-48.3,0c-6.7,0-12,5.1-13,11.5
				H265 M176.2,216.3v-7.8h51.6c8.5,0,15.4,6.9,15.4,15.5v3.8h-5.7c-0.9-6.4-6.3-11.5-12.9-11.5
				C224.5,216.3,184.7,216.3,176.2,216.3"/>
		</g>
	</g>
	<g transform="matrix(1,0,0,1,4860,0)">
		<g transform="matrix(1,0,0,1,39.7283,69.4293)">
			<path class="st0" d="M141,283.3c-1.4,0-2.5,0.4-3.5,1.3c-1.2,1-1.7,2.2-1.7,3.6c0,1.6,0.4,2.9,1.2,3.7c1.2,1.1,2.8,1.9,3.6,2.2
				c2.6,1,3.7,1.8,3.7,4.2c0,2.1-1.9,3-3.2,3c-1.2,0-2.5-0.6-3.2-1.9c-0.7-1.1-0.9-2.1-0.9-2.9l-0.2-0.2l-0.5,0l-0.1,0.2l-0.5,4.8
				l0.3,0.4l0.5-0.3l0.4-0.5l0.6,0.3c1,0.8,2.2,1.3,4.2,1.3c3.2,0,5.2-2.6,5.2-5.8c0-1.7-0.4-2.8-1.2-3.7c-0.9-1-2.1-1.6-3.6-2
				c-1-0.3-2.3-0.9-3-1.6c-0.6-0.7-0.7-1.4-0.7-2.3c0-0.9,0.8-2.6,2.7-2.6c1.1,0,1.9,0.4,2.6,1.1c0.9,1,1.3,2,1.5,2.8l0.2,0.1
				l0.4-0.1l0.1-0.2c0-0.3-0.4-3.9-0.4-4.3l-0.2-0.4l-0.4,0.2l-0.3,0.3l-0.5,0.1C143.6,283.7,142.6,283.3,141,283.3"/>
		</g>
	</g>
	<g transform="matrix(1,0,0,1,4860,0)">
		<g transform="matrix(1,0,0,1,43.0276,69.4293)">
			<path class="st0" d="M153.7,283.3c-2.9,0-5.1,1.3-6.4,2.8c-1.7,1.9-2.5,4.4-2.5,6.9c0,2.3,0.8,5.3,2.7,7c1.5,1.4,3.3,2.4,6.5,2.4
				c3.5,0,5.9-2.1,7.3-4.4l0-0.2l-0.4-0.4l-0.3,0.2c-1,1.6-3.2,3-5.9,3c-1.2,0-2.6-0.2-4.2-2c-1.8-2.1-2.3-5.2-2.3-6.8
				c0-3.7,1.6-7.5,5.6-7.5c1.9,0,3.2,0.8,4.3,1.9c1,1.1,1.6,2.4,1.9,3.4l0.3,0.3l0.5-0.2l0.1-0.3c-0.1-0.8-0.6-4.9-0.6-5.4
				c0-0.4,0-0.4-0.3-0.4l-0.4,0.2l-0.2,0.7c0,0.1,0,0.2-0.1,0.2c-0.1,0-0.2,0-0.3-0.2C157.7,284,155.9,283.3,153.7,283.3"/>
		</g>
	</g>
	<g transform="matrix(1,0,0,1,4860,0)">
		<g transform="matrix(1,0,0,1,46.3196,69.3602)">
			<path class="st0" d="M166.3,283.7c-0.3,0-1.1,0.1-3.5,0.1c-2.4,0-3.7-0.1-4-0.1l-0.2,0.2v0.7l0.2,0.2h1.3c0.7,0,0.9,0.2,1,0.9
				c0,0.3,0.1,5,0.1,5.6v1.8c0,1.4-0.1,7-0.1,7.4c-0.1,0.7-0.6,0.7-1.1,0.7h-1l-0.2,0.2v0.7l0.2,0.2c0.3,0,1.3-0.1,3.8-0.1
				c2.3,0,3.3,0.1,3.6,0.1l0.3-0.2v-0.7l-0.2-0.2h-1c-0.6,0-1-0.1-1-0.9l0-6.5v-2l0-6.3c0-0.5,0.4-0.7,1-0.7h0.9l0.2-0.2v-0.6
				L166.3,283.7"/>
		</g>
	</g>
	<g transform="matrix(1,0,0,1,4860,0)">
		<g transform="matrix(1,0,0,1,49.4182,69.3602)">
			<path class="st0" d="M178.2,283.7c-0.1,0-0.6,0-1,0c-1.1,0-6.8,0-7.8,0h-0.7c-0.3,0-0.6,0-0.8,0c-1.5,0-2.2-0.1-2.7-0.1l-0.2,0.2
				v0.7l0.2,0.2h0.9c0.7,0,1,0.2,1.1,0.9c0.1,0.4,0.1,3.6,0.1,5.7v8.7c0,0.9-0.1,1.1-1.2,1.1h-0.8l-0.2,0.2v0.6l0.2,0.2
				c0.2,0,0.6,0,1-0.1h10.3c1.5,0,2.1,0.1,2.2,0.1l0.5-0.4l1.2-3.9l0-0.2l-0.4-0.3l-0.3,0.1c-0.5,0.6-1.8,2.3-2.3,2.8
				c-0.6,0.6-1.6,0.8-2,0.9c-0.5,0.1-1.6,0.1-2.1,0.1c-0.9,0-1.5-0.1-1.9-0.2c-0.5-0.1-1-0.7-1-2c0-0.5,0-3-0.1-4.4l0-1.5
				c0.8,0,2,0,2.9,0.1c0.5,0.1,1,0.4,1.2,0.9c0.1,0.3,0.3,0.9,0.4,1.3l0.2,0.2l0.5-0.1l0.2-0.2c0-0.6-0.1-1.8-0.1-2.9
				c0-0.7,0-2.4,0.1-2.8l-0.2-0.2l-0.6,0l-0.2,0.2c0,0.5-0.2,1.1-0.4,1.5c-0.3,0.6-0.6,0.8-1.1,0.9c-0.3,0.1-2.1,0.1-2.8,0.1
				l0.1-7.5l3.8,0.1c0.7,0,1.3,0.4,1.9,0.7c0.6,0.3,2.6,2.7,2.7,2.9l0.2,0.1l0.5-0.2l0.1-0.3c-0.1-0.3-1-3.8-1.1-4.2L178.2,283.7"/>
		</g>
	</g>
	<g transform="matrix(1,0,0,1,4860,0)">
		<g transform="matrix(1,0,0,1,53.6648,69.4092)">
			<path class="st0" d="M194.5,283.6c-0.3,0-0.9,0.1-2.3,0.1c-1.7,0-2.5-0.1-2.8-0.1l-0.2,0.2v0.6l0.2,0.2h0.8c0.6,0,1.1,0.3,1.3,1
				c0.1,0.4,0.2,3,0.3,4c0.1,1.3,0.1,2.6,0.1,4.9v2.7h-0.1c-0.4-0.5-4.3-5.6-4.6-6c-0.5-0.7-5.3-7.1-5.6-7.4l-0.6-0.2l-0.7,0
				c-0.3,0-0.7,0-1.1,0c-1.1,0-1.8,0-2.2,0c-0.4,0-0.6,0-0.8,0l-0.1,0.1v0.7l0.1,0.2h0.8c1.1,0,1.9,1.2,1.9,2.7v3.3
				c0,4.2-0.1,7.8-0.2,8.3c-0.1,1.6-0.5,2.1-1.1,2.1h-0.8l-0.1,0.2v0.6l0.1,0.2c0.2,0,1.9-0.1,2.6-0.1c0.9,0,2.4,0.1,2.6,0.1
				l0.2-0.2v-0.6l-0.2-0.2h-0.6c-0.9,0-1.2-0.6-1.2-1.9c0-0.8-0.2-4.5-0.2-8.8v-3.2h0.1c0.3,0.4,4.3,5.6,4.6,5.9
				c0.3,0.4,2.2,2.8,4,5.1c1.5,1.9,2.9,3.5,3,3.8c0.2,0.2,0.5,0.4,0.9,0.4c0.3,0,0.3-0.4,0.3-0.7v-6.8c0-2.6,0.3-7,0.4-8.8
				c0.1-1,0.3-1.4,0.8-1.4h0.7l0.2-0.3v-0.6L194.5,283.6"/>
		</g>
	</g>
	<g transform="matrix(1,0,0,1,4860,0)">
		<g transform="matrix(1,0,0,1,57.1853,69.3608)">
			<path class="st0" d="M208.1,282.6l-0.4,0.3c-0.4,0.3-1.3,0.7-1.8,0.7c-1.1,0.1-2.2,0.2-4.9,0.2h-1.3c-2.4,0-3.5-0.1-4.8-0.2
				c-0.7,0-1.2-0.1-1.6-0.7l-0.4-0.3c-0.1,0-0.3,0.1-0.3,0.5c-0.1,0.3-0.9,3.8-1.2,4.8l0.1,0.3l0.5,0.2l0.3-0.2
				c0.5-0.9,1.4-2.6,2.2-3c1-0.3,2.8-0.3,3.6-0.3h0.7v6.5c0,0.5,0,8.5-0.1,9.1c0,0.4-0.3,0.7-0.8,0.7h-1.4l-0.2,0.2v0.6l0.2,0.2
				c0.3,0,1.4-0.1,3.9-0.1c2.7,0,3.5,0.1,3.7,0.1l0.2-0.3v-0.5l-0.1-0.2h-1.4c-0.6,0-0.8-0.5-0.8-2.5v-13.8h0.7c0.9,0,3.1,0,3.8,0.5
				c0.7,0.5,1.6,2.2,1.9,2.9l0.2,0.2l0.5-0.2l0.1-0.2c-0.2-1.2-0.7-4.5-0.7-4.9L208.1,282.6"/>
		</g>
	</g>
	<g transform="matrix(1,0,0,1,4860,0)">
		<g transform="matrix(1,0,0,1,88.3438,69.4502)">
			<path class="st0" d="M327.8,283.6C327.8,283.6,327.8,283.6,327.8,283.6L327.8,283.6L327.8,283.6 M321.7,283.6l-0.2,0.2v0.6
				l0.2,0.2h0.7c0.7,0,1,0.4,1,0.7c0,1.1-1.6,5-2,6.2c-0.3,0.8-1.9,5.1-2.5,6.5v0.1h0c-0.4-1.4-1.8-5.5-2.2-6.5
				c-0.5-1.5-1.5-4.6-1.7-5.5c-0.1-0.3-0.1-0.7-0.1-0.9c0-0.4,0.4-0.6,1.1-0.6h1.3l0.2-0.3v-0.6l-0.3-0.2c-0.2,0-1.4,0.1-3.8,0.1
				c-2.7,0-3.6-0.1-3.9-0.1l-0.1,0.2v0.6l0.1,0.2h0.6c0.6,0,0.9,0.2,1.1,0.8c0.3,0.8,1.4,4.1,2.1,6c0.9,2.4,3.1,8.4,3.9,10.6
				l0.6,0.6l0.5-0.3c0.2-0.5,3.3-8.1,3.9-9.2c0.7-1.7,2.3-5.8,3.1-7.2c0.6-0.9,1.3-1.2,1.9-1.2h0.6h-0.1l-0.2-0.2v-0.7l0.2-0.2
				c-0.3,0-1.1,0.1-2.9,0.1C323.1,283.7,321.9,283.6,321.7,283.6"/>
		</g>
	</g>
	<g transform="matrix(1,0,0,1,4860,0)">
		<g transform="matrix(1,0,0,1,89.9482,69.3602)">
			<path class="st0" d="M334,283.7c-0.4,0-1.2,0.1-3.7,0.1c-2.3,0-3.6-0.1-4.1-0.1h-0.1c0,0-0.1,0-0.1,0l-0.2,0.2v0.7l0.2,0.2h1.3
				c0.7,0,1,0.2,1.1,0.9c0,0.3,0.1,5,0.1,5.6v1.8c0,1.4-0.1,7-0.1,7.4c-0.1,0.7-0.7,0.7-1.2,0.7h-1l-0.2,0.2v0.7l0.2,0.2
				c0.3,0,1.4-0.1,4-0.1c2.4,0,3.4,0.1,3.8,0.1l0.3-0.2v-0.7l-0.2-0.2H333c-0.6,0-1-0.1-1-0.9l-0.1-6.5v-2l0.1-6.3
				c0-0.5,0.4-0.7,1-0.7h1l0.2-0.2v-0.6L334,283.7"/>
		</g>
	</g>
	<g transform="matrix(1,0,0,1,4860,0)">
		<g transform="matrix(1,0,0,1,94.2163,69.4092)">
			<path class="st0" d="M350.4,283.6c-0.3,0-0.9,0.1-2.5,0.1c-1.7,0-2.6-0.1-2.9-0.1l-0.2,0.2v0.6l0.2,0.2h0.8c0.6,0,1.2,0.3,1.4,1
				c0.1,0.4,0.2,3,0.3,4c0.1,1.3,0.1,2.6,0.1,4.9v2.7h-0.1c-0.4-0.5-4.5-5.6-4.8-6c-0.5-0.7-5.6-7.1-5.9-7.4l-0.6-0.2
				c-0.2,0-0.4,0-0.7,0c-0.3,0-0.7,0-1.1,0c-1.1,0-1.8,0-2.3,0c-0.5,0-0.7,0-0.8,0l-0.2,0.1v0.7l0.2,0.2h0.8c1.1,0,2,1.2,2,2.7v3.3
				c0,4.2-0.1,7.8-0.2,8.3c-0.1,1.6-0.5,2.1-1.2,2.1h-0.9l-0.2,0.2v0.6l0.2,0.2c0.2,0,2-0.1,2.7-0.1c1,0,2.5,0.1,2.8,0.1l0.2-0.2
				v-0.6l-0.2-0.2h-0.7c-0.9,0-1.2-0.6-1.3-1.9c-0.1-0.8-0.3-4.5-0.3-8.8v-3.2h0.2c0.3,0.4,4.5,5.6,4.8,5.9c0.3,0.4,2.3,2.8,4.2,5.1
				c1.6,1.9,3,3.5,3.2,3.8c0.2,0.2,0.5,0.4,0.9,0.4c0.3,0,0.3-0.4,0.3-0.7v-6.8c0-2.6,0.3-7,0.4-8.8c0.1-1,0.3-1.4,0.8-1.4h0.7
				l0.2-0.3v-0.6L350.4,283.6"/>
		</g>
	</g>
	<g transform="matrix(1,0,0,1,4860,0)">
		<g transform="matrix(1,0,0,1,96.5322,69.4293)">
			<path class="st0" d="M359.3,283.3c-3.1,0-5.3,1.3-6.7,2.8c-1.8,1.9-2.6,4.4-2.6,6.9c0,2.3,0.9,5.3,2.8,7c1.6,1.4,3.5,2.4,6.8,2.4
				c3.7,0,6.2-2.1,7.7-4.4l-0.1-0.2l-0.4-0.4l-0.3,0.2c-1.1,1.6-3.4,3-6.2,3c-1.2,0-2.7-0.2-4.5-2c-1.9-2.1-2.4-5.2-2.4-6.8
				c0-3.7,1.7-7.5,5.9-7.5c2,0,3.3,0.8,4.5,1.9c1.1,1.1,1.7,2.4,2,3.4l0.3,0.3l0.5-0.2l0.1-0.3c-0.1-0.8-0.6-4.9-0.6-5.4
				c0-0.4-0.1-0.4-0.4-0.4l-0.4,0.2l-0.2,0.7c0,0.1,0,0.2-0.1,0.2c-0.1,0-0.2,0-0.4-0.2C363.6,284,361.7,283.3,359.3,283.3"/>
		</g>
	</g>
	<g transform="matrix(1,0,0,1,4860,0)">
		<g transform="matrix(1,0,0,1,101.292,69.3602)">
			<path class="st0" d="M377.6,283.7c-0.1,0-0.6,0-1,0c-1.1,0-7.1,0-8.3,0h-0.7c-0.3,0-0.6,0-0.9,0c-1.6,0-2.3-0.1-2.8-0.1l-0.1,0.2
				v0.7l0.1,0.2h1c0.8,0,1,0.2,1.1,0.9c0,0.4,0.1,3.6,0.1,5.7v8.7c0,0.9-0.1,1.1-1.3,1.1H364l-0.3,0.2v0.6l0.2,0.2
				c0.2,0,0.6,0,1.1-0.1h10.9c1.6,0,2.2,0.1,2.3,0.1l0.6-0.4l1.2-3.9l-0.1-0.2l-0.4-0.3l-0.3,0.1c-0.5,0.6-1.9,2.3-2.4,2.8
				c-0.7,0.6-1.6,0.8-2.1,0.9c-0.5,0.1-1.7,0.1-2.2,0.1c-1,0-1.6-0.1-2-0.2c-0.6-0.1-1-0.7-1-2c0-0.5,0-3-0.1-4.4l0-1.5
				c0.8,0,2.1,0,3,0.1c0.6,0.1,1.1,0.4,1.3,0.9c0.1,0.3,0.3,0.9,0.4,1.3l0.2,0.2l0.6-0.1l0.2-0.2c-0.1-0.6-0.2-1.8-0.2-2.9
				c0-0.7,0-2.4,0.1-2.8l-0.2-0.2l-0.7,0l-0.2,0.2c0,0.5-0.3,1.1-0.4,1.5c-0.3,0.6-0.6,0.8-1.2,0.9c-0.3,0.1-2.2,0.1-3,0.1l0.1-7.5
				l4,0.1c0.7,0,1.4,0.4,1.9,0.7c0.6,0.3,2.8,2.7,2.9,2.9l0.2,0.1l0.5-0.2l0.1-0.3c-0.1-0.3-1.1-3.8-1.2-4.2L377.6,283.7"/>
		</g>
	</g>
	<g transform="matrix(1,0,0,1,4860,0)">
		<g transform="matrix(1,0,0,1,61.2451,73.5373)">
			<path class="st1" d="M223.7,279c-0.3,0.3-1.6,1.1-2.4,1.3l-0.2,0.3l0.1,0.3l0,0.9c-0.2,0.7-2.2,6.3-2.4,6.8
				c-0.7,2.2-2.5,6.8-2.8,7.3c-0.4,0.8-0.9,1.2-1.6,1.2h-0.7l-0.1,0.2l-0.2-0.2h-1c-0.6,0-1-0.1-1-0.9l0-6.5v-2l0-6.3
				c0-0.5,0.4-0.7,0.9-0.7h0.9l0.2-0.2v-0.6l-0.2-0.2c-0.3,0-1.1,0.1-3.5,0.1c-2.4,0-3.7-0.1-4-0.1l-0.2,0.2v0.7l0.2,0.2h1.3
				c0.7,0,0.9,0.2,1,0.9c0,0.3,0.1,5,0.1,5.6v1.8c0,1.4-0.1,7-0.1,7.4c-0.1,0.7-0.6,0.7-1.1,0.7h-1l-0.2,0.2v0.7l0.2,0.2
				c0.3,0,1.3-0.1,3.8-0.1c2.3,0,3.3,0.1,3.6,0.1l0.3-0.2l0.1,0.2c0.3,0,0.9-0.1,2.7-0.1c1.7,0,2.8,0.1,3.1,0.1l0.2-0.3v-0.6
				l-0.3-0.1h-1c-0.5,0-0.9-0.3-0.9-0.6l0-0.6c0.1-0.7,1.3-4.4,1.5-5h5.7c0.3,0.9,1.3,4.3,1.5,5.2c0.1,0.7,0,1-0.7,1h-0.6l-0.2,0.2
				v0.5l0.2,0.3c0.5,0,1.4-0.1,3.4-0.1c2.7,0,3.2,0.1,3.7,0.1l0.3-0.3v-0.6L232,297h-0.8c-0.5,0-1.1-0.3-1.6-1.2
				c-0.3-0.7-1.9-5.5-2.5-7.5c-0.4-1.7-2.4-7.5-2.8-9.1l-0.3-0.5L223.7,279 M221.9,282.5l0.3-0.3l0.2,0.5c0.2,0.5,1.8,6.4,2.1,7.2
				h-5.1C219.5,289.2,221.8,282.8,221.9,282.5 M309.3,295c-0.6,1-0.8,1.5-1.9,1.5h-6.8c-0.4,0-0.4,0.1-0.5,0.5l-1.1,9l0.3,0.5h0.5
				c1,0,2.4,0.2,3.7,0.8c1.6,0.7,2.5,2.1,2.5,4.1c0,2.9-2.5,4.4-4.4,4.4c-0.9,0-1.7-0.3-2.2-0.5c-0.5-0.3-1-0.6-1.6-0.7
				c-0.4,0-0.8,0.4-0.8,1c0,0.8,1.7,1.7,3.8,1.7c4.6,0,8.3-3.3,8.2-7.5c0-3-1.7-5-4.4-5.8c-1.1-0.3-3.4-0.6-4.1-0.5l0.5-3.9h6.5
				c0.9,0,1.1-0.1,1.3-0.6l1.1-3.7l-0.3-0.4L309.3,295 M260.1,296.3l-7,3.6l-0.2,0.4l0.3,0.6l0.3,0.1l1.8-0.5c0.5-0.2,1-0.2,1.3-0.2
				c0.5,0,0.7,0.6,0.7,1.5v6c0,0.8,0,5.4-0.1,6.3c-0.1,1.6-0.3,1.7-2.1,1.7h-1.2l-0.3,0.2v0.8l0.2,0.2c0.2,0,4.5-0.1,5.1-0.1
				c0.5,0,4.6,0.1,4.9,0.1l0.3-0.3v-0.7l-0.3-0.2h-1.1c-1.7,0-1.8-0.2-1.8-1.8c0-0.4-0.1-6.2-0.1-7.2v-1.3c0-3.9,0.1-8.6,0.1-8.9
				c0-0.4,0-0.5-0.2-0.5L260.1,296.3 M284.6,299c-1.2,1-2.2,3.4-2.2,5.2c0,2.5,1.4,5.7,5.3,5.7c1.7,0,2.8-0.6,3.4-1.2l0.1,0.1
				c-0.6,4.5-4,7.8-6.6,8.8l-0.3,0.5c0,0.3,0.3,0.5,0.5,0.5l0.9-0.2c1.7-0.6,3-1.2,4.7-2.6c3.4-2.9,5-7.3,5-11.4
				c0-0.9-0.3-3-1.7-4.8c-1.3-1.6-2.6-2.2-5-2.2C287.2,297.4,285.8,297.9,284.6,299 M285.7,303.3c0-3.1,1.3-4.8,3.1-4.8
				c2.2,0,2.8,2.5,2.8,5.3c0,1.3-0.1,2.8-0.5,3.4c-0.4,0.6-1.1,1.1-2.3,1.1C287.1,308.3,285.7,306.1,285.7,303.3 M269.4,299
				c-1.1,1-2.2,3.4-2.2,5.2c0,2.5,1.5,5.7,5.4,5.7c1.7,0,2.8-0.6,3.5-1.2l0.1,0.1c-0.6,4.5-4,7.8-6.6,8.8l-0.3,0.5
				c0,0.3,0.2,0.5,0.5,0.5l0.9-0.2c1.7-0.6,2.9-1.2,4.7-2.6c3.5-2.9,5-7.3,5-11.4c0-0.9-0.3-3-1.7-4.8c-1.3-1.6-2.6-2.2-5-2.2
				C272,297.4,270.6,297.9,269.4,299 M270.6,303.3c0-3.1,1.3-4.8,3.1-4.8c2.2,0,2.8,2.5,2.8,5.3c0,1.3-0.1,2.8-0.5,3.4
				c-0.4,0.6-1.1,1.1-2.3,1.1C271.9,308.3,270.6,306.1,270.6,303.3"/>
		</g>
	</g>
	<g transform="matrix(1,0,0,1,4860,0)">
		<g transform="matrix(1,0,0,1,46.1824,49.5069)">
			<path class="st0" d="M165.8,250.9l-1.1,0.6c-0.1-0.2-0.2-0.3-0.3-0.5c-0.2-0.5-0.5-1-0.7-1.5c-0.6-1.3-0.9-2.1-1.1-2.3
				c-0.4-0.8-0.8-1.5-1.2-2.3c-0.4-0.7-0.8-1.4-1.1-2c-0.3-0.6-0.5-1-0.6-1.2l0.2-0.1l0.8-0.5l0.1-0.1c0.4,0.5,0.7,1,1,1.6
				c0.3,0.5,0.6,0.8,0.9,0.9c0.2,0,0.8-0.2,1.8-0.7c0.3-0.2,0.6-0.3,0.7-0.4l0.5-0.3l1.4-0.7l1.1-0.7l2.5-1.2l3.6-2.1
				c1-0.6,1.8-1.3,2.3-2c0.4-0.6,0.5-1.2,0.5-1.9c0-1-0.2-1.9-0.6-2.7c-0.5-0.9-1-1.7-1.7-2.4c-0.4-0.4-0.8-0.7-1.4-1
				c-0.5-0.3-1-0.4-1.3-0.5c-0.7-0.1-1.3-0.1-1.9,0c-0.7,0.1-1.8,0.6-3.1,1.3c-2.3,1.2-4.9,2.7-7.7,4.5l-0.7,0.5
				c-0.6,0.3-0.9,0.6-1,0.9c-0.1,0.5-0.1,0.9,0.1,1.3l0.7,1.4l0.1,0.2l-1.1,0.5l-0.6-1.1l-1.3-2.8c-0.5-0.9-1-1.8-1.5-2.6l-0.1-0.3
				c0.3-0.2,0.5-0.4,0.6-0.4c0.1-0.1,0.3-0.1,0.4-0.1c0.3,0.3,0.5,0.7,0.8,1c0.4,0.6,0.7,0.9,0.8,1c0.2,0.1,0.4,0.1,0.6-0.1
				c0.2-0.1,0.4-0.2,0.7-0.4c0.2-0.2,0.6-0.4,1.2-0.7c0.3-0.2,0.6-0.3,0.8-0.4c0.2-0.1,0.4-0.2,0.6-0.3c0.7-0.4,1.4-0.8,2.1-1.2
				l2.9-1.7c2-1,3.3-1.6,4.1-1.8c0.7-0.2,1.4-0.3,1.9-0.3c0.8,0.1,1.6,0.3,2.4,0.7c0.8,0.4,1.6,1,2.4,1.9s1.5,1.9,2.2,3.2
				c0.8,1.5,1.2,2.9,1.4,4.2c0.2,1.3,0,2.4-0.3,3.2c-0.4,0.9-1,1.7-2,2.4c-0.6,0.5-1.6,1.1-3,1.8l-6.9,3.6c-1.6,0.8-2.5,1.4-2.7,1.7
				c-0.2,0.4,0,1.1,0.5,2.3C165.6,250.5,165.7,250.7,165.8,250.9"/>
		</g>
	</g>
	<g transform="matrix(1,0,0,1,4860,0)">
		<g transform="matrix(1,0,0,1,42.9492,41.9817)">
			<path class="st0" d="M153.4,225.1l-1.1,0.3l-0.3-1.4l-0.1-0.5c-0.2-0.6-0.3-1.1-0.3-1.3c0-0.1-0.1-0.5-0.2-1.1
				c0-0.1,0-0.3-0.1-0.4c0-0.1-0.1-0.4-0.3-1c-0.2-0.6-0.2-0.9-0.2-1c0-0.1-0.1-0.3-0.1-0.5c1.1-2,2.1-3.6,3-4.9
				c0.8-1.3,3.8-5.9,8.8-13.8l-0.4,0.1l-1.8,0.5c-1.1,0.3-1.9,0.5-2.6,0.7c-0.6,0.2-1.4,0.4-2.2,0.6c-0.9,0.2-1.7,0.4-2.4,0.6
				c-1.4,0.4-2.2,0.7-2.4,0.7c-0.7,0.2-1.1,0.3-1.2,0.5c-0.2,0.3-0.2,0.8-0.2,1.6c0,0.6,0,1.1-0.1,1.4l-0.9,0.2l-0.1-0.4l-0.8-3.1
				l-0.9-3.5c-0.1-0.2-0.1-0.5-0.2-0.7l1-0.3c0.2,0.2,0.3,0.4,0.5,0.7c0.3,0.6,0.5,1,0.6,1.1c0.4,0.5,0.7,0.7,0.8,0.8
				c0.2,0.1,0.4,0.1,0.6,0c0.1,0,0.3-0.1,0.7-0.2c0.2-0.1,0.6-0.2,1.3-0.3c1.5-0.4,2.8-0.7,3.6-0.9c0.3-0.1,0.6-0.2,1-0.3l5.6-1.4
				c0.4-0.1,0.7-0.2,0.8-0.2l2-0.4l0.8-0.2l0.9-0.1c0.4-0.1,0.7-0.2,0.8-0.2l0.8-0.2l0.5,1.8l-1.5,2.3l-3,4.7l-2.1,3.3l-1.6,2.5
				c-1,1.6-1.8,3-2.6,4.3l-1.8,3.1l5.9-1.5c0.4-0.1,0.7-0.2,1.1-0.3l1.1-0.2l2.1-0.6c0.9-0.2,1.8-0.5,2.8-0.8
				c0.3-0.1,0.5-0.2,0.6-0.2c0.1-0.1,0.3-0.2,0.4-0.3c0.1-0.4,0-1.4-0.3-2.8c0-0.1,0-0.3,0-0.4l1.3-0.4l0.2,0.6
				c0.1,0.3,0.2,1.4,0.5,3.3c0.4,1.7,0.7,2.8,0.8,3.4c0.2,0.6,0.3,0.9,0.3,0.9c0,0.1,0,0.3,0.1,0.5c-0.2,0.1-0.5,0.1-0.6,0.2
				c-0.1,0-0.3,0.1-0.6,0.1c-0.1-0.3-0.2-0.5-0.2-0.7c0-0.1,0-0.3-0.1-0.6c-0.2-0.9-0.4-1.4-0.6-1.5c-0.2-0.1-0.5-0.1-1.1,0
				c-1.7,0.3-2.7,0.5-3.1,0.6l-0.9,0.2l-5.2,1.1l-3.2,0.8c-1.2,0.3-2.1,0.6-2.5,0.8c-0.2,0.1-0.4,0.3-0.6,0.5
				c-0.3,0.5-0.5,0.9-0.6,1.4C153.3,223.1,153.3,223.9,153.4,225.1"/>
		</g>
	</g>
	<g transform="matrix(1,0,0,1,4860,0)">
		<g transform="matrix(1,0,0,1,45.7014,37.6007)">
			<path class="st0" d="M163.9,190.2l-1.2,0c-0.1-0.2-0.2-0.6-0.3-1.1c-0.2-0.7-0.4-1.2-0.6-1.6c-0.3-0.2-0.8-0.3-1.4-0.3l-1.9,0
				l-3.7,0l-0.9,0c-2.2,0-3.3-0.1-3.3-0.1l-2.2,0.1l-0.9,0l-1.9,0.1l-0.7,0c-0.1,0-0.3,0.1-0.5,0.1c-0.2,0.5-0.3,1.2-0.4,2.2
				c0,0.2,0,0.4,0,0.6l-1.4,0.1l0.1-4.7c0-0.6,0-0.9,0-1.1c0-0.6-0.1-1.7-0.2-3.1c-0.1-0.8-0.1-1.3-0.1-1.5c0.2,0,0.4,0,0.5,0
				c0.2,0,0.4,0,0.7,0c0.2,0.4,0.3,0.9,0.5,1.5c0.1,0.6,0.3,1,0.4,1.4c0.3,0.1,0.7,0.1,1.2,0.1c0.5,0,0.8,0,1.1-0.1
				c1.8,0,3.3,0,4.3,0l4.3-0.1l2.2,0l3.3-0.1l0.6,0c0.1,0,0.2,0,0.4-0.1c0.1-0.7,0.2-1.3,0.3-1.8c0-0.1,0-0.4,0.1-1
				c0.3,0,0.6-0.1,0.8-0.1c0.1,0,0.3,0,0.6,0c0,0.1,0,0.2,0,0.3c0,0.3,0,0.5,0,0.6c0,0.1,0,0.2,0,0.4c0,0.2-0.1,0.9-0.2,2.2l0,2.9
				c0,0.6,0.1,1.4,0.2,2.5C163.9,189.5,163.9,190,163.9,190.2"/>
		</g>
	</g>
	<g transform="matrix(1,0,0,1,4860,0)">
		<g transform="matrix(1,0,0,1,41.6011,30.5073)">
			<path class="st0" d="M148.2,175.8l-1.4-0.2c0.1-0.6,0.2-0.9,0.2-1c0.4-1.3,0.7-3,1.1-5.2c0.1-0.3,0.1-1,0.2-2
				c0.1-0.7,0.1-1.3,0.1-1.6l0.2-1.2c0.8,0.1,1.2,0.2,1.3,0.2c0,1.1-0.1,1.7,0,1.9c0,0.5,0.2,0.9,0.3,1.1c0.1,0.1,0.2,0.2,0.4,0.3
				c0.1,0,0.2,0,0.4,0l1.5-0.3c1.2-0.2,2.8-0.6,4.8-1.1l4.5-1.1c0.9-0.2,1.7-0.4,2.5-0.6l-2.1-1.3l-5-2.8l-1.1-0.6
				c-0.2-0.1-0.4-0.2-0.6-0.3c-0.9-0.4-1.6-0.8-2.1-1.1c-0.5-0.3-0.9-0.4-1.2-0.5c-0.2,0-0.4,0-0.6,0.2c-0.3,0.3-0.5,0.8-0.7,1.5
				c-0.1,0.1-0.1,0.3-0.2,0.6c-0.1,0.2-0.1,0.5-0.2,0.6c-0.2,0-0.4,0-0.5,0c-0.1,0-0.4-0.1-0.7-0.2c0-0.2,0.2-0.7,0.4-1.6
				c0.2-0.9,0.4-1.8,0.6-2.7c0.2-0.9,0.2-1.7,0.3-2.3c0-0.6,0.1-1.2,0.1-1.6l0.5,0.1c0.1,0,0.3,0.1,0.6,0.1c0.3,1.5,0.5,2.3,0.6,2.6
				c0.1,0.2,0.2,0.3,0.5,0.5c0.6,0.5,2,1.4,4.1,2.6l5,3c0.5,0.3,1,0.6,1.5,0.9c0.5,0.3,1.1,0.7,1.8,1.1c0.2,0.1,0.8,0.4,1.8,1.1
				l0.3,0.2c1.4,0.7,2.4,1.3,3,1.6c-0.1,0.4-0.1,0.7-0.1,0.8c0,0.2-0.1,0.5-0.2,0.8c-0.3,0.1-0.7,0.1-1,0.2
				c-0.4,0.1-1.6,0.3-3.7,0.8l-7.4,1.9l-4.7,1.1c-2.2,0.6-3.3,0.9-3.5,1c-0.3,0.1-0.5,0.3-0.7,0.5c-0.2,0.2-0.3,0.7-0.5,1.4
				L148.2,175.8z"/>
		</g>
	</g>
	<g transform="matrix(1,0,0,1,4860,0)">
		<g transform="matrix(1,0,0,1,42.8525,25.9067)">
			<path class="st0" d="M153,145.5c0.3-0.6,0.5-1,0.8-1.4c0.4-0.8,0.9-1.6,1.3-2.7c0.2-0.4,0.5-1.3,1.1-2.8c0.8-2.3,1.6-4.3,2.4-6.1
				l1.1-2.7c0.3-0.6,0.7-1.5,1.4-2.6c0.3-0.1,0.6-0.1,0.9,0.1l3.1,1.3l0.6,0.2c0.1,0,0.2,0.1,0.3,0.1l-0.2,0.6
				c0,0.1-0.1,0.2-0.2,0.5c-0.2,0-0.6,0-1,0l-1.3,0.2c-0.6,0-1.1,0.2-1.8,0.4c-0.2,0.2-0.3,0.5-0.5,0.9c-0.1,0.1-0.2,0.4-0.5,0.9
				c-0.5,0.9-0.9,1.9-1.4,3c-0.5,1.2-0.9,2.3-1.3,3.3c0.2,0.1,1.2,0.6,3,1.3l2.5,1l1.9,0.8c0.1-0.2,0.2-0.5,0.3-0.6
				c0.8-1.8,1.3-3.1,1.5-3.9s0.3-1.3,0.3-1.5c0-0.2-0.2-0.5-0.5-0.8c-0.2-0.2-0.9-0.7-2-1.5l0.1-0.2l0.4-0.9
				c0.9,0.3,1.6,0.6,2.1,0.8c1.1,0.4,1.7,0.7,2,0.9c0.3,0.1,0.5,0.2,0.7,0.3c0.3,0.1,0.7,0.3,1.3,0.5c0.6,0.2,1.1,0.4,1.4,0.5
				l0.3,0.1l-0.5,1.1c-0.2,0-0.5-0.1-1.1-0.2c-1-0.2-1.7-0.3-2-0.2c-0.2,0-0.5,0.2-0.7,0.4c-0.2,0.2-0.5,0.9-1,2.2
				c-0.6,1.5-1.1,2.7-1.3,3.5c0.3,0.1,0.4,0.2,0.5,0.2c1.2,0.5,2.2,0.9,3,1.2l3.2,1.4c0.4,0.2,0.7,0.1,1-0.1c0.4-0.3,1-1.5,1.9-3.7
				c0.6-1.4,1-2.6,1.2-3.7c0.1-0.7,0-1.5-0.3-2.2c-0.4-1-1.1-1.9-2.1-2.9c0.1-0.3,0.2-0.6,0.3-0.8c0-0.1,0.1-0.3,0.2-0.5
				c0.2,0.1,0.4,0.2,0.6,0.3l0.4,0.3l2.6,1.7l1.6,1c-0.2,0.7-0.4,1.2-0.6,1.6c-0.2,0.6-0.9,2.1-2,4.5c-0.8,1.7-1.7,3.8-2.7,6.2
				c-0.5,1.2-1.1,2.7-1.7,4.5l-0.3,0.6l-0.7,1.9l-1-0.4c0-0.2,0.1-0.6,0.3-1.2c0.3-1.1,0.5-1.9,0.4-2.4c-0.2-0.2-0.6-0.4-1-0.6
				c-0.2-0.1-0.5-0.2-0.9-0.3l-0.5-0.2l-5.7-2.3l-1.7-0.7l-2.4-0.9l-1.7-0.7l-1.9-0.6c-0.1,0-0.2-0.1-0.3-0.1
				c-0.2,0.1-0.3,0.2-0.4,0.4c-0.1,0.1-0.2,0.2-0.3,0.4c-0.4,0.5-0.7,1-0.9,1.6c-0.1,0.2-0.2,0.4-0.3,0.6L153,145.5z"/>
		</g>
	</g>
	<g transform="matrix(1,0,0,1,4860,0)">
		<g transform="matrix(1,0,0,1,48.3826,21.4373)">
			<path class="st0" d="M174.2,118.1c0.3-0.4,0.6-0.7,0.7-0.9c1.1-1.5,1.6-2.8,1.5-3.8c-0.1-1-0.6-1.9-1.5-2.5
				c-0.6-0.4-1.1-0.7-1.7-0.9c-0.6-0.2-1.1-0.3-1.5-0.2c-0.6,0.1-1.1,0.3-1.7,0.7c-0.4,0.3-0.9,0.9-1.5,1.7
				c-0.3,0.4-0.5,0.8-0.7,1.1l0.2,0.2l1.8,1.2l1.1,0.8l1.5,1c0.4,0.3,0.9,0.7,1.6,1.2L174.2,118.1z M178.6,130.2
				c0-0.3,0.2-0.7,0.5-1.2c0.3-0.5,0.5-1,0.6-1.4c-0.2-0.2-0.3-0.3-0.3-0.4c-0.1-0.1-0.5-0.4-1.3-0.9l-3-2.1l-1.6-1.2l-1.3-0.9
				l-0.7-0.5c-0.9-0.7-1.9-1.4-2.7-2c-1.9-1.3-3.1-2.1-3.6-2.4l-0.7,0.7c-0.6,0.7-0.9,1.1-1.2,1.3l-0.8-0.5l-0.1-0.2
				c0.2-0.5,0.5-0.9,0.8-1.3c0.1-0.2,0.4-0.6,0.9-1.2c0.5-0.6,0.8-0.9,0.8-1l0.5-0.7l1.1-1.7c0.6-1.1,1.4-2.3,2.2-3.4
				c1.3-1.8,2.8-2.9,4.5-3.4c1.7-0.4,3.1-0.2,4.3,0.6c0.9,0.6,1.5,1.5,1.8,2.6c0.3,1.1,0.2,2.4-0.2,3.9c0.3,0,0.6,0,1,0
				c0.8,0,1.5,0,2,0.1l5,0.3c1.3,0.1,2.1,0.1,2.3,0.1c0.3-0.1,0.7-0.3,1.2-0.7c0.4-0.3,0.8-0.5,1.1-0.6c0.2,0,0.3,0.1,0.5,0.2
				c0.1,0.1,0.2,0.1,0.3,0.2l-0.3,0.4l-0.2,0.3l-0.6,0.6l-0.4,0.5c-0.2,0.3-0.5,0.6-0.8,1l-1,1.3c-0.1,0.1-0.3,0.4-0.6,1
				c-0.1,0.3-0.3,0.5-0.3,0.6l-1.2-0.2c-0.9-0.1-1.6-0.2-2.1-0.3c-1.1-0.2-3-0.5-5.6-0.9c-1.2-0.2-1.9-0.2-2.1-0.1
				c-0.4,0.1-0.8,0.5-1.3,1.2c-0.1,0.2-0.3,0.5-0.6,0.9c0.2,0.2,0.5,0.4,0.9,0.7l3,2l2.5,1.9c0.3-0.1,0.7-0.4,1-0.7
				c0.6-0.6,1.2-1.1,1.8-1.4c0.4,0.3,0.8,0.6,0.9,0.8c-0.1,0.2-0.2,0.3-0.2,0.3L185,123c-1.5,1.8-2.4,2.9-2.7,3.2
				c-0.2,0.2-0.3,0.4-0.3,0.5l-1.2,1.9c-0.3,0.6-0.7,1.1-1,1.6l-0.4,0.6c-0.2-0.1-0.4-0.2-0.4-0.3
				C178.9,130.5,178.8,130.4,178.6,130.2"/>
		</g>
	</g>
	<g transform="matrix(1,0,0,1,4860,0)">
		<g transform="matrix(1,0,0,1,53.2036,13.2443)">
			<path class="st0" d="M192.8,115.1c-0.3-0.3-0.6-0.6-0.9-0.9c-0.2-1.2-0.4-3.7-0.6-7.5l-0.1-1.6c0-0.3,0-0.7-0.1-1.3
				c-0.1-0.9-0.2-2-0.3-3.2c-0.1-1.3-0.2-3-0.4-5.2c-0.1-0.9-0.2-1.6-0.2-2.2c0-0.8-0.1-1.3-0.1-1.6l-0.3,0.3l-1.1,0.9
				c-0.9,0.8-2,1.9-3.1,3.1c-1.2,1.3-1.9,2.2-2.2,2.7c-0.2,0.4-0.4,0.8-0.4,1.3c-0.1,0.8-0.1,1.5,0,1.9c0,0.2,0,0.3,0.1,0.4
				c-0.3,0.3-0.4,0.5-0.5,0.5c-0.1,0.1-0.2,0.1-0.3,0.2c-0.2-0.4-1.1-2.1-2.7-5.2L180,97c0.8,0.3,1.2,0.5,1.4,0.5
				c0.3,0,0.6-0.2,1.1-0.6c0.1-0.1,0.2-0.1,0.2-0.2l0.1-0.1c0.6-0.6,2.1-2.1,4.5-4.5c1.5-1.5,2.7-2.6,3.6-3.4l0.9-0.8l1.5-1.4
				c0.2,0.2,0.3,0.3,0.5,0.5c0.1,0.1,0.1,0.8,0.2,2c0.1,0.8,0.1,1.5,0.2,2l0.2,1.3l0,0.1l0.6,7.5l0.5,5.8c0.1,1.6,0.3,3,0.4,4.2
				c0.6-0.4,1.3-0.9,2-1.6l0.8-0.7l0.5-0.4c1-0.9,1.7-1.6,2.3-2.3c0.5-0.6,0.9-1.3,1.1-1.9c0.2-0.6,0.4-1.2,0.4-1.9
				c0-0.6,0-1.7-0.3-3.1c0.2-0.3,0.4-0.4,0.5-0.5l0.3-0.3l2.1,2.8l0.1,0.1c0.1,0.2,0.6,0.8,1.5,2l-5,4.2c-0.4,0.4-0.8,0.6-1,0.9
				l-1.4,1.3l-1.4,1.2l-0.3,0.2l-3.2,3.1c-0.3,0.3-0.5,0.5-0.8,0.7c-0.2,0.2-0.4,0.4-0.7,0.6C193.3,114.6,193,114.9,192.8,115.1"/>
		</g>
	</g>
	<g transform="matrix(1,0,0,1,4860,0)">
		<g transform="matrix(1,0,0,1,58.0117,12.745)">
			<path class="st0" d="M211.2,85.9c2.2-1.2,3.6-1.9,4-2.2l0.3-0.2c-0.8-0.7-1.7-1.5-2.8-2.3c-1.1-0.9-1.9-1.5-2.6-1.9L211.2,85.9z
				 M209.1,97.6l-0.5-1c0.2-0.2,0.4-0.4,0.8-0.8c0.7-0.6,1-0.9,1.1-1.1c0.1-0.2,0.1-0.6,0.1-1.1l-1.4-9.2l-1.6-10.8
				c0.3-0.2,0.6-0.3,0.9-0.5l0.6-0.4l0.3,0.2l5.8,4.5c1.3,0.9,2.4,1.9,3.6,2.8c1.1,0.9,2,1.7,2.8,2.2c0.4,0.3,1.1,0.9,1.9,1.6
				c0.4,0.4,1,0.9,1.8,1.4c0.4,0.3,0.7,0.4,0.8,0.5c0.3,0,0.6,0,1-0.2c0.4-0.2,0.9-0.3,1.4-0.4c0.2,0.3,0.4,0.5,0.5,0.7
				c0,0.1,0.1,0.2,0.2,0.3c-0.7,0.4-1.5,0.8-2.4,1.2c-0.9,0.4-1.7,0.8-2.3,1.2c-0.8,0.4-1.3,0.7-1.6,0.9l-2.3,1.5l-0.7,0.4
				c-0.2-0.3-0.4-0.7-0.5-1l1.4-1.2c0.4-0.4,0.6-0.6,0.7-0.8c0-0.2,0-0.3,0-0.4c-0.1-0.1-0.2-0.2-0.3-0.3l-1.4-1.1l-2.7-2.2
				l-5.4,3.1c0.1,0.6,0.3,1.9,0.6,4.1c0.1,0.6,0.2,1,0.3,1.2c0.1,0.2,0.3,0.4,0.5,0.4c0.3,0.1,0.8-0.1,1.5-0.3
				c0.1,0,0.5-0.2,1.1-0.4c0.2,0.3,0.3,0.6,0.4,0.7c0.1,0.1,0.1,0.2,0.2,0.3c-0.6,0.3-2,1-4.4,2.1l-0.5,0.4
				c-0.6,0.5-1.3,0.9-1.9,1.3L209.1,97.6z"/>
		</g>
	</g>
	<g transform="matrix(1,0,0,1,4860,0)">
		<g transform="matrix(1,0,0,1,64.5383,10.1487)">
			<path class="st0" d="M236.3,62.9l-0.3-1.4c0.6-0.1,0.9-0.2,1-0.2c1.3-0.1,3.1-0.4,5.2-0.8c0.3-0.1,1-0.2,1.9-0.5
				c0.7-0.2,1.2-0.4,1.6-0.5l1.2-0.2c0.2,0.8,0.3,1.2,0.3,1.3c-1,0.3-1.7,0.6-1.8,0.6c-0.4,0.2-0.8,0.5-0.9,0.7
				c-0.1,0.1-0.1,0.3-0.1,0.5c0,0.1,0.1,0.2,0.1,0.3l0.8,1.3c0.6,1,1.5,2.4,2.7,4.1l2.6,3.8c0.5,0.7,1,1.4,1.4,2.1l0.5-2.5l0.9-5.7
				l0.2-1.2c0-0.2,0-0.4,0.1-0.7c0.1-1,0.2-1.8,0.3-2.3c0.1-0.5,0.1-0.9,0-1.3c0-0.2-0.2-0.4-0.4-0.5c-0.4-0.2-0.9-0.2-1.6-0.1
				c-0.2,0-0.4,0-0.6,0c-0.3,0-0.5,0-0.7,0c-0.1-0.2-0.2-0.4-0.2-0.5c0-0.1-0.1-0.4-0.1-0.8c0.2,0,0.8-0.1,1.7-0.2
				c0.9-0.1,1.8-0.2,2.7-0.4c0.9-0.2,1.6-0.4,2.3-0.6c0.6-0.2,1.1-0.4,1.5-0.4l0.1,0.5c0,0.1,0.1,0.3,0.1,0.6
				c-1.3,0.8-2,1.3-2.2,1.5c-0.1,0.1-0.2,0.3-0.3,0.6c-0.3,0.8-0.6,2.4-1,4.7l-1,5.7c-0.1,0.6-0.2,1.1-0.3,1.8
				c-0.1,0.6-0.2,1.3-0.4,2c0,0.2-0.1,0.9-0.4,2.1l-0.1,0.3c-0.2,1.6-0.3,2.7-0.4,3.3c-0.4,0.1-0.7,0.2-0.8,0.2
				c-0.2,0-0.5,0.1-0.8,0.1c-0.2-0.3-0.4-0.6-0.5-0.9c-0.2-0.3-0.9-1.4-2.1-3.2l-4.4-6.2l-2.7-4c-1.3-1.8-2-2.8-2.2-2.9
				c-0.2-0.2-0.5-0.4-0.7-0.5c-0.2-0.1-0.7-0.1-1.5,0L236.3,62.9z"/>
		</g>
	</g>
	<g transform="matrix(1,0,0,1,4860,0)">
		<g transform="matrix(1,0,0,1,74.6555,11.2217)">
			<path class="st0" d="M275.2,56.3l0.1-1.1l1.4,0.2l0.5,0c0.6,0.1,1.1,0.1,1.4,0.1c0.1,0,0.5,0.1,1.1,0.2c0.1,0,0.3,0.1,0.4,0.1
				c0.1,0,0.4,0.1,1,0.1c0.6,0.1,0.9,0.1,1,0.1c0.1,0,0.3,0,0.5,0.1c1.4,1.8,2.6,3.2,3.5,4.5c0.9,1.2,4.2,5.6,9.8,13.1l0.1-0.4
				l0.2-1.9c0.1-1.1,0.2-2,0.2-2.6c0-0.7,0.1-1.4,0.2-2.3c0.1-0.9,0.2-1.7,0.2-2.4c0.1-1.4,0.1-2.3,0.2-2.5c0.1-0.7,0.1-1.1,0-1.3
				c-0.2-0.3-0.7-0.5-1.5-0.8c-0.6-0.2-1-0.4-1.3-0.6l0.2-1l0.4,0l3.2,0.4l3.6,0.4c0.2,0,0.5,0.1,0.7,0.1l-0.1,1.1
				c-0.3,0.1-0.5,0.2-0.8,0.2c-0.7,0.1-1.1,0.1-1.2,0.2c-0.6,0.2-0.9,0.4-1,0.4c-0.1,0.1-0.2,0.3-0.2,0.6c0,0.1,0,0.3-0.1,0.7
				c0,0.2-0.1,0.6-0.2,1.4c-0.2,1.6-0.3,2.8-0.4,3.7c0,0.3,0,0.6-0.1,1l-0.6,5.7c0,0.4-0.1,0.7-0.1,0.8l-0.3,2l-0.1,0.8l-0.2,0.9
				c0,0.5,0,0.7,0,0.8l-0.1,0.9l-1.9-0.2l-1.6-2.3l-3.4-4.5l-2.4-3.1l-1.7-2.4c-1.1-1.5-2.2-2.8-3.1-3.9l-2.3-2.8l-0.7,6
				c0,0.4-0.1,0.7-0.1,1.1l-0.2,1.1l-0.2,2.1c-0.1,0.9-0.2,1.9-0.2,2.9c0,0.3,0,0.5,0,0.6c0,0.1,0.1,0.3,0.1,0.5
				c0.4,0.2,1.3,0.5,2.7,0.7c0.1,0,0.2,0.1,0.4,0.2l-0.1,1.3l-0.6-0.1c-0.3,0-1.4-0.3-3.2-0.7c-1.7-0.2-2.9-0.4-3.4-0.4
				c-0.6,0-0.9-0.1-0.9-0.1c-0.1,0-0.3-0.1-0.5-0.1c0-0.3,0-0.5,0.1-0.7c0-0.1,0.1-0.3,0.1-0.6c0.3,0,0.6,0,0.8,0
				c0.1,0,0.3,0,0.6,0.1c0.9,0.1,1.5,0.1,1.6,0c0.2-0.1,0.3-0.5,0.4-1.1c0.3-1.7,0.5-2.7,0.6-3.1l0.1-0.9l0.8-5.3l0.4-3.3
				c0.2-1.2,0.2-2.1,0.1-2.6c0-0.3-0.1-0.5-0.3-0.7c-0.3-0.4-0.7-0.8-1.1-1.1C277.1,56.9,276.4,56.6,275.2,56.3"/>
		</g>
	</g>
	<g transform="matrix(1,0,0,1,4860,0)">
		<g transform="matrix(1,0,0,1,84.8992,12.6888)">
			<path class="st0" d="M314.6,66.4c-0.9-0.4-1.7-0.5-2.6-0.3c-0.8,0.1-1.5,0.4-2.1,0.7c-0.9,0.6-1.7,1.3-2.4,2.2
				c-0.6,0.9-1.3,2-1.9,3.5c-0.4,0.9-0.6,1.5-0.7,1.9c0,0.1-0.1,0.3-0.2,0.7c-0.2,0.8-0.3,1.4-0.4,1.8c-0.1,1.5-0.1,2.4-0.1,2.8
				c0.1,0.6,0.3,1.3,0.7,2.1c0.2,0.4,0.5,0.8,1,1.3c0.5,0.5,1,0.8,1.6,1c1.1,0.4,2.2,0.6,3.3,0.5c1.1-0.1,2.2-0.7,3.3-1.7
				c1.1-1,2-2.5,2.8-4.4c0.3-0.8,0.7-1.9,1.2-3.4l0-0.3c0-0.1,0-0.3,0.1-0.7c0.3-1.8,0.1-3.4-0.6-4.7C317.3,68,316.2,67,314.6,66.4
				 M300.8,70.6c0.5-1.2,1.3-2.4,2.3-3.5c0.7-0.8,1.6-1.4,2.5-1.9c0.9-0.5,2-0.8,3.2-1c1.2-0.2,2.3-0.2,3.5-0.1
				c1.1,0.2,2.3,0.5,3.5,1c2.1,0.9,3.8,2,5,3.4c1.2,1.4,2,3,2.3,4.7c0.4,2.2,0.2,4.3-0.5,6.2c-1.2,2.8-3.2,4.9-5.9,6.1
				c-2.8,1.2-5.9,1.1-9.4-0.3c-0.9-0.4-1.6-0.7-2.3-1.2c-0.5-0.3-1-0.6-1.3-0.9c-0.7-0.6-1-0.9-1.1-1c-0.8-1.1-1.5-2.1-1.9-3
				c-0.4-0.9-0.6-1.9-0.8-2.9c-0.1-0.6,0-1.5,0.2-2.9C300.1,72.6,300.4,71.6,300.8,70.6"/>
		</g>
	</g>
	<g transform="matrix(1,0,0,1,4860,0)">
		<g transform="matrix(1,0,0,1,89.1262,15.6554)">
			<path class="st0" d="M330.8,73.2l0.8-1.2c0.5,0.3,0.7,0.5,0.8,0.6c1,0.9,2.4,2,4.2,3.2c0.3,0.2,0.8,0.5,1.7,1.1
				c0.6,0.4,1.1,0.6,1.4,0.8l1,0.7c-0.4,0.7-0.7,1-0.7,1.1c-1-0.5-1.5-0.8-1.7-0.9c-0.5-0.2-0.9-0.2-1.2-0.2c-0.2,0-0.3,0.1-0.4,0.2
				c-0.1,0.1-0.1,0.2-0.2,0.3l-0.4,1.5c-0.3,1.1-0.7,2.7-1.1,4.8l-0.9,4.5c-0.2,0.9-0.3,1.7-0.5,2.5l2.1-1.4l4.7-3.3l1-0.7
				c0.1-0.1,0.3-0.3,0.6-0.4c0.8-0.6,1.4-1.1,1.9-1.4c0.4-0.3,0.8-0.6,0.9-0.8c0.1-0.2,0.1-0.4,0.1-0.6c-0.1-0.4-0.5-0.8-1-1.3
				c-0.1-0.1-0.2-0.3-0.4-0.4c-0.2-0.2-0.3-0.3-0.5-0.5c0.1-0.2,0.1-0.4,0.2-0.5c0.1-0.1,0.2-0.3,0.5-0.6c0.2,0.1,0.6,0.5,1.3,1.1
				c0.7,0.6,1.4,1.2,2.1,1.7c0.7,0.5,1.4,0.9,2,1.2c0.6,0.3,1,0.6,1.4,0.8l-0.3,0.4c-0.1,0.1-0.2,0.3-0.4,0.5
				c-1.4-0.4-2.3-0.6-2.6-0.6c-0.2,0-0.4,0.1-0.7,0.2c-0.8,0.4-2.1,1.2-4.1,2.5l-4.8,3.2c-0.5,0.3-1,0.6-1.5,1s-1.1,0.7-1.7,1.1
				c-0.1,0.1-0.7,0.5-1.8,1.2l-0.3,0.1c-1.3,1-2.2,1.6-2.7,2c-0.4-0.2-0.6-0.4-0.7-0.4c-0.2-0.1-0.4-0.3-0.7-0.5
				c0.1-0.3,0.2-0.7,0.3-1c0.1-0.3,0.4-1.6,0.9-3.7l1.5-7.5l1.1-4.7c0.4-2.2,0.6-3.4,0.6-3.6c0-0.3-0.1-0.6-0.2-0.8
				c-0.1-0.2-0.5-0.6-1-1L330.8,73.2z"/>
		</g>
	</g>
	<g transform="matrix(1,0,0,1,4860,0)">
		<g transform="matrix(1,0,0,1,91.7793,16.6508)">
			<path class="st0" d="M341,107.1l0.8-0.8c0.2,0.1,0.5,0.3,0.9,0.6c0.6,0.4,1.1,0.6,1.5,0.8c0.4-0.1,0.8-0.4,1.2-0.8l1.4-1.4
				l2.7-2.6l0.6-0.6c1.6-1.4,2.4-2.2,2.5-2.2l1.5-1.5l0.7-0.6l1.3-1.4l0.5-0.5c0.1-0.1,0.2-0.2,0.3-0.5c-0.2-0.5-0.6-1.1-1.2-1.8
				c-0.2-0.2-0.3-0.3-0.4-0.4l1-1l3.1,3.5c0.4,0.4,0.6,0.7,0.7,0.8c0.4,0.5,1.2,1.2,2.3,2.1c0.6,0.5,1,0.9,1.1,1
				c-0.1,0.2-0.3,0.3-0.4,0.4c-0.1,0.1-0.3,0.3-0.5,0.5c-0.4-0.2-0.9-0.5-1.4-0.8c-0.5-0.3-0.9-0.5-1.3-0.7
				c-0.3,0.2-0.6,0.4-0.9,0.8c-0.3,0.3-0.6,0.6-0.8,0.8c-1.3,1.3-2.4,2.2-3.1,2.9l-3.1,3l-1.6,1.5l-2.3,2.3l-0.5,0.4
				c-0.1,0.1-0.1,0.2-0.2,0.3c0.4,0.6,0.7,1.1,1.1,1.5c0.1,0.1,0.3,0.3,0.6,0.8c-0.2,0.3-0.4,0.5-0.5,0.6c-0.1,0.1-0.2,0.2-0.4,0.4
				c-0.1-0.1-0.2-0.2-0.2-0.2c-0.3-0.2-0.4-0.4-0.5-0.4c0-0.1-0.1-0.2-0.3-0.3c-0.1-0.1-0.5-0.7-1.4-1.7l-2-2.1
				c-0.4-0.4-1-1-1.9-1.7C341.5,107.6,341.2,107.3,341,107.1"/>
		</g>
	</g>
	<g transform="matrix(1,0,0,1,4860,0)">
		<g transform="matrix(1,0,0,1,101.683,23.9961)">
			<path class="st0" d="M379.1,133.1c-0.2,0.2-0.8,0.6-1.5,1.1c-0.8,0.5-1.4,0.9-1.7,1.1c-0.1,0.1-0.3,0.1-0.6,0.2
				c-0.2-0.4-0.4-0.8-0.4-1.1c0.7-1.3,1.2-2.2,1.3-2.7c0.2-0.8,0.3-1.8,0.2-2.9c-0.1-0.8-0.3-1.6-0.8-2.4c-0.9-1.6-2.3-2.6-4.4-3.1
				c-2.1-0.5-4.6,0.1-7.4,1.6c-1.3,0.7-2.5,1.6-3.5,2.8c-1,1.1-1.6,2.4-1.8,3.7c-0.2,1.3,0,2.6,0.7,3.9c0.3,0.6,0.8,1.2,1.3,1.9
				c0.3,0.3,0.6,0.5,0.9,0.6c0.2,0.1,0.5,0.1,0.9-0.1c0.6-0.2,1.4-0.6,2.4-1.1c1-0.5,1.7-0.9,2-1.1c0.1-0.1,0.2-0.3,0.2-0.3
				c0-0.1,0-0.3-0.1-0.7l-0.3-1.5c-0.1-0.3-0.1-0.5,0-0.6c0.1-0.1,0.2-0.1,0.3-0.2c0.1-0.1,0.3-0.1,0.6-0.2c0.1,0.1,0.2,0.2,0.3,0.3
				c0.6,1.1,1,2,1.3,2.8c0.1,0.3,0.3,0.6,0.4,0.9l1.2,2.3l0.5,0.9c0.1,0.1,0.2,0.4,0.5,1c-0.2,0.1-0.5,0.3-0.6,0.4
				c-0.1,0.1-0.2,0.1-0.4,0.1c-0.2-0.1-0.5-0.3-0.8-0.6c-0.4-0.3-0.6-0.5-0.6-0.5c-0.1,0-0.3,0-0.4,0s-0.8,0.3-1.7,0.9
				c-1.1,0.6-1.8,1-2,1.1c-0.7,0.3-1.1,0.5-1.2,0.6c-0.4,0.2-0.6,0.3-0.7,0.2c-0.4-0.1-1.2-0.8-2.2-2c-1.1-1.2-2.1-2.8-3.1-4.6
				c-0.7-1.3-1.2-2.5-1.5-3.6c-0.3-1.1-0.4-2-0.4-2.9c0.1-1.2,0.3-2.3,0.7-3.4c0.4-1.1,1-2,1.7-2.8c1-1.1,2.2-2,3.4-2.7
				c1.4-0.8,3-1.2,4.8-1.3c1.3-0.1,2.6,0.1,3.9,0.5c1.3,0.4,2.6,1.2,3.7,2.2c1.2,1,2.2,2.3,3,3.9c0.1,0.2,0.2,0.5,0.4,1
				c0.6,1.2,1.1,2.4,1.3,3.5C379,131.2,379.1,132.2,379.1,133.1"/>
		</g>
	</g>
	<g transform="matrix(1,0,0,1,4860,0)">
		<g transform="matrix(1,0,0,1,103.517,31.5632)">
			<path class="st0" d="M386.1,151c-0.2-0.9-0.6-1.7-1.2-2.3c-0.6-0.6-1.2-1-1.8-1.2c-1-0.4-2.1-0.6-3.2-0.6c-1.1,0-2.4,0.2-3.9,0.6
				c-0.9,0.2-1.5,0.4-1.9,0.6c-0.1,0.1-0.3,0.1-0.6,0.3c-0.8,0.3-1.3,0.5-1.6,0.8c-1.2,0.8-2,1.3-2.2,1.6c-0.5,0.5-0.9,1.1-1.3,1.8
				c-0.2,0.4-0.3,0.9-0.4,1.6c-0.1,0.7,0,1.3,0.1,1.9c0.3,1.1,0.8,2.1,1.6,3c0.8,0.8,1.9,1.4,3.3,1.7c1.4,0.3,3.2,0.2,5.2-0.4
				c0.8-0.2,2-0.6,3.4-1l0.3-0.2c0.1-0.1,0.3-0.2,0.6-0.3c1.6-0.8,2.8-1.9,3.4-3.2C386.4,154.2,386.5,152.7,386.1,151 M374.6,142.5
				c1.3-0.3,2.7-0.4,4.1-0.2c1,0.1,2,0.4,3,0.9c1,0.5,1.9,1.1,2.7,2c0.9,0.9,1.6,1.8,2.1,2.7c0.5,1,1,2.1,1.3,3.4
				c0.6,2.2,0.6,4.2,0.2,6c-0.4,1.8-1.2,3.4-2.4,4.7c-1.5,1.7-3.3,2.7-5.3,3.2c-3,0.7-5.8,0.4-8.5-1.1c-2.6-1.5-4.4-4.1-5.3-7.7
				c-0.2-0.9-0.4-1.8-0.5-2.6c-0.1-0.6-0.1-1.2,0-1.6c0.1-0.9,0.1-1.4,0.1-1.5c0.4-1.3,0.8-2.4,1.3-3.3c0.5-0.9,1.1-1.7,1.9-2.4
				c0.4-0.4,1.2-0.9,2.4-1.6C372.6,143.1,373.5,142.7,374.6,142.5"/>
		</g>
	</g>
	<g transform="matrix(1,0,0,1,4860,0)">
		<g transform="matrix(1,0,0,1,102.735,38.5948)">
			<path class="st0" d="M383.1,176.1c0,0.5,0,0.9,0,1.1c0,1.9,0.4,3.2,1.1,3.9c0.7,0.8,1.6,1.1,2.7,1.1c0.7,0,1.3-0.1,1.9-0.3
				c0.6-0.2,1-0.4,1.3-0.7c0.4-0.4,0.7-0.9,0.9-1.6c0.2-0.5,0.2-1.2,0.2-2.3c0-0.5,0-0.9-0.1-1.3l-0.3,0l-2.2,0.1l-1.3,0l-1.8,0
				c-0.5,0-1.1,0-1.9,0L383.1,176.1z M372.4,168.9c0.2,0.3,0.3,0.7,0.4,1.2c0.1,0.6,0.2,1.1,0.4,1.5c0.2,0.1,0.4,0.1,0.5,0.1
				c0.2,0,0.7,0,1.6,0l3.6-0.1l2,0l1.5-0.1l0.9,0c1.2,0,2.3,0,3.3,0c2.3,0,3.7-0.1,4.3-0.2l0.2-1c0-0.9,0.1-1.5,0.1-1.8l1,0l0.2,0.1
				c0.1,0.5,0.2,1,0.2,1.5c0,0.3,0,0.8,0,1.5c-0.1,0.8-0.1,1.2-0.1,1.3l0.1,0.9l0.1,2c0.2,1.3,0.2,2.6,0.3,4c0,2.2-0.5,4-1.6,5.4
				c-1.1,1.3-2.4,2-3.9,2.1c-1.1,0-2.1-0.3-3-1c-0.9-0.7-1.6-1.8-2.1-3.2c-0.2,0.1-0.5,0.3-0.8,0.5c-0.6,0.5-1.2,0.8-1.7,1.1
				l-4.2,2.7c-1.1,0.7-1.8,1.1-1.9,1.3c-0.2,0.2-0.4,0.6-0.6,1.3c-0.2,0.5-0.4,0.9-0.5,1.1c-0.2,0.1-0.3,0.1-0.5,0.1
				c-0.1,0-0.2,0-0.4,0l0-0.4l0-0.3l0.1-0.9l0-0.7c0-0.3,0.1-0.8,0.1-1.3l0-1.6c0-0.1,0-0.5-0.1-1.1c0-0.3-0.1-0.5-0.1-0.7l1.1-0.6
				c0.8-0.5,1.4-0.8,1.8-1c1-0.5,2.7-1.4,5-2.6c1.1-0.6,1.7-1,1.8-1.2c0.2-0.3,0.3-0.9,0.3-1.7c0-0.2,0-0.6-0.1-1.1
				c-0.3,0-0.7,0-1.1,0l-3.6,0.1l-3.1,0c-0.2,0.3-0.3,0.7-0.4,1.2c-0.2,0.9-0.4,1.6-0.6,2.2c-0.5,0-0.9,0-1.2,0c0-0.2,0-0.3,0-0.4
				l0-0.7c0.2-2.3,0.2-3.7,0.2-4.2c0-0.3,0-0.5,0-0.6l-0.2-2.3c-0.1-0.7-0.1-1.3-0.1-1.9l0-0.7c0.3,0,0.4,0,0.5,0
				C372,168.9,372.2,168.9,372.4,168.9"/>
		</g>
	</g>
	<g transform="matrix(1,0,0,1,4860,0)">
		<g transform="matrix(1,0,0,1,100.147,44.5501)">
			<path class="st0" d="M373.2,193l1.2,0.2c0,0.2,0.1,0.6,0.1,1.1c0.1,0.7,0.1,1.3,0.3,1.6c0.3,0.3,0.8,0.4,1.3,0.5l1.9,0.3l3.7,0.7
				l0.9,0.1c2.1,0.5,3.2,0.7,3.3,0.7l2.2,0.3l0.9,0.2l1.9,0.2l0.7,0.1c0.1,0,0.3,0,0.5,0c0.3-0.4,0.5-1.1,0.8-2.1
				c0.1-0.2,0.1-0.4,0.1-0.6l1.4,0.2l-1,4.6c-0.1,0.6-0.2,0.9-0.2,1.1c-0.1,0.6-0.2,1.7-0.4,3.1c-0.1,0.8-0.1,1.3-0.2,1.5
				c-0.2,0-0.4,0-0.5-0.1c-0.2,0-0.4-0.1-0.7-0.2c-0.1-0.5-0.1-1-0.2-1.5c0-0.6-0.1-1.1-0.2-1.4c-0.3-0.1-0.7-0.2-1.2-0.3
				c-0.5-0.1-0.8-0.1-1.1-0.1c-1.8-0.3-3.2-0.6-4.2-0.8l-4.3-0.7l-2.1-0.5l-3.2-0.5l-0.6-0.2c-0.1,0-0.2,0-0.4,0
				c-0.3,0.6-0.5,1.2-0.6,1.7c0,0.1-0.1,0.4-0.3,1c-0.3,0-0.6,0-0.8-0.1c-0.1,0-0.3-0.1-0.5-0.1c0-0.1,0-0.2,0-0.3
				c0-0.3,0.1-0.5,0.1-0.6c0-0.1,0.1-0.2,0.1-0.4c0-0.1,0.2-0.8,0.6-2.1l0.5-2.8c0.1-0.6,0.2-1.4,0.3-2.5
				C373.1,193.7,373.2,193.2,373.2,193"/>
		</g>
	</g>
	<g transform="matrix(1,0,0,1,4860,0)">
		<g transform="matrix(1,0,0,1,102.207,45.9855)">
			<path class="st0" d="M381.1,234.1c-0.4,0-1.3,0-2.9-0.1c-0.7-0.1-1.5-0.2-2.2-0.5l0.5-1.4c1.7-0.5,3.1-1.1,4.1-2
				c1-0.8,1.7-1.9,2.2-3.2c0.6-1.6,0.4-3.1-0.5-4.5c-1.2-1.9-3.3-3.4-6.3-4.5c-1.7-0.6-3-1-3.8-1c-1.3-0.1-2.5,0.1-3.4,0.3
				c-0.7,0.2-1.4,0.6-2,1.2c-0.8,0.7-1.4,1.6-1.7,2.6c-0.4,1.1-0.4,2.3-0.1,3.6s1,2.7,2.1,4.2c-0.1,0.4-0.2,0.9-0.4,1.5
				c-0.4-0.2-0.8-0.4-1.1-0.6c-0.2-0.1-0.8-0.4-1.8-1.1l-0.4-0.3l-0.6-0.5c-0.3-0.8-0.3-1.8-0.1-3s0.5-2.7,1.1-4.3
				c0.5-1.3,1-2.4,1.6-3.5c0.6-1,1.4-1.9,2.2-2.5c1.2-0.9,2.3-1.5,3.4-1.9c1.1-0.4,2.2-0.5,3.4-0.5c1.1,0,2.3,0.3,3.6,0.7
				c3.1,1.1,5.2,3,6.5,5.7c1.3,2.7,1.3,5.7,0.2,8.8c-0.5,1.3-0.9,2.4-1.5,3.5C382.3,232.3,381.7,233.2,381.1,234.1"/>
		</g>
	</g>
	<g transform="matrix(1,0,0,1,4860,0)">
		<g transform="matrix(1,0,0,1,97.2832,54.8246)">
			<path class="st0" d="M362.2,226.7l1,0.6c-0.1,0.2-0.2,0.6-0.3,1.1c-0.2,0.7-0.3,1.2-0.3,1.6c0.2,0.3,0.6,0.7,1.1,1l1.7,0.9
				l3.2,1.9l0.8,0.4c1.8,1.2,2.8,1.7,2.8,1.8l1.9,1.1l0.7,0.5l1.7,0.9l0.6,0.3c0.1,0,0.3,0.1,0.5,0.2c0.4-0.3,0.9-0.9,1.4-1.7
				c0.1-0.2,0.2-0.4,0.3-0.5l1.3,0.7l-2.5,4c-0.3,0.5-0.5,0.8-0.6,0.9c-0.3,0.6-0.8,1.5-1.4,2.7c-0.3,0.7-0.6,1.2-0.7,1.4
				c-0.2-0.1-0.3-0.2-0.5-0.2c-0.2-0.1-0.4-0.2-0.6-0.4c0.1-0.5,0.2-1,0.4-1.5s0.3-1,0.3-1.4c-0.2-0.2-0.5-0.4-1-0.7
				c-0.4-0.2-0.7-0.4-1-0.5c-1.6-0.9-2.8-1.7-3.7-2.2l-3.7-2.1l-1.9-1.2l-2.9-1.6l-0.5-0.4c-0.1,0-0.2-0.1-0.4-0.1
				c-0.5,0.5-0.8,1-1.2,1.4c-0.1,0.1-0.3,0.3-0.6,0.8c-0.3-0.1-0.6-0.2-0.7-0.4c-0.1-0.1-0.3-0.2-0.5-0.3c0.1-0.1,0.1-0.2,0.1-0.3
				c0.2-0.3,0.2-0.5,0.3-0.5c0-0.1,0.1-0.2,0.3-0.3c0.1-0.1,0.5-0.7,1.3-1.8l1.5-2.5c0.3-0.5,0.7-1.3,1.1-2.3
				C361.9,227.3,362.1,226.9,362.2,226.7"/>
		</g>
	</g>
</g>
</svg>
