<?xml version="1.0" standalone="no"?>
<!DOCTYPE svg PUBLIC "-//W3C//DTD SVG 20010904//EN"
 "http://www.w3.org/TR/2001/REC-SVG-20010904/DTD/svg10.dtd">
<svg version="1.0" xmlns="http://www.w3.org/2000/svg"
 width="940.000000pt" height="420.000000pt" viewBox="0 0 940.000000 420.000000"
 preserveAspectRatio="xMidYMid meet">

<g transform="translate(0.000000,420.000000) scale(0.100000,-0.100000)"
fill="#000000" stroke="none">
<path d="M0 4030 c0 -157 1 -170 19 -180 11 -5 33 -10 48 -10 16 0 46 -9 67
-20 40 -20 55 -23 94 -21 28 1 29 26 1 91 -30 70 -23 83 36 64 54 -19 75 -13
75 21 0 22 4 25 35 25 22 0 35 5 35 13 0 16 -40 40 -59 35 -8 -2 -16 3 -18 10
-3 8 1 10 11 6 9 -3 16 -2 16 3 0 5 -12 10 -27 11 -30 2 -47 22 -33 36 6 6 -5
24 -28 48 l-37 38 -117 0 -118 0 0 -170z m340 -10 c0 -5 -4 -10 -9 -10 -6 0
-13 5 -16 10 -3 6 1 10 9 10 9 0 16 -4 16 -10z"/>
<path d="M3680 4174 c0 -14 6 -31 13 -39 18 -18 93 -55 112 -55 8 0 20 -9 27
-20 26 -41 64 -9 70 60 3 25 8 53 12 63 8 16 -1 17 -113 17 l-121 0 0 -26z"/>
<path d="M4045 4190 c8 -13 35 -13 55 0 11 7 5 10 -23 10 -23 0 -36 -4 -32
-10z"/>
<path d="M4260 4190 c0 -6 10 -15 23 -19 12 -5 31 -23 42 -40 24 -37 57 -47
89 -26 17 11 26 13 31 5 4 -6 5 -13 4 -14 -4 -3 -356 -75 -494 -101 -83 -16
-853 -174 -1007 -207 -100 -21 -126 -35 -98 -53 5 -3 7 0 5 7 -4 10 19 19 87
33 51 10 105 18 120 16 14 -1 29 2 33 8 3 6 17 11 31 11 13 0 61 10 106 21 59
15 83 18 86 10 3 -8 8 -8 15 -2 7 5 39 14 72 19 91 16 204 40 214 46 9 6 206
46 251 52 14 1 45 8 70 14 25 7 54 14 65 17 11 3 38 8 60 13 44 8 307 63 395
81 30 7 66 13 80 15 14 2 59 10 100 19 60 13 85 13 125 4 77 -17 86 -20 80
-28 -2 -5 6 -6 19 -4 21 4 371 -62 456 -87 19 -5 50 -10 67 -10 24 0 33 -4 33
-17 0 -12 3 -14 10 -7 13 13 161 -21 172 -39 6 -9 10 -9 17 1 6 11 35 7 147
-19 76 -18 144 -39 150 -46 10 -11 13 -11 18 2 3 9 11 13 17 9 7 -4 26 -8 43
-9 40 -2 236 -44 258 -56 9 -5 27 -9 39 -9 23 0 140 -26 169 -37 8 -4 18 -6
21 -5 4 1 21 -3 38 -8 17 -5 33 -5 36 0 3 5 -21 14 -52 20 -32 7 -96 21 -143
32 -96 23 -318 69 -620 129 -113 22 -210 45 -216 50 -6 5 -13 7 -15 4 -5 -4
-554 105 -702 139 -88 21 -114 20 -226 -4 -52 -12 -99 -19 -105 -16 -6 2 -3 5
7 5 9 1 17 7 17 15 0 8 -8 17 -17 21 -17 7 -16 8 2 15 33 14 87 12 79 -2 -4
-7 2 -5 14 6 12 10 19 23 16 27 -7 13 -34 11 -34 -2 0 -10 -31 -7 -84 8 -12 3
-16 1 -12 -6 4 -6 2 -11 -3 -11 -6 0 -11 -7 -11 -16 0 -12 -8 -9 -33 10 -35
27 -57 33 -57 16 0 -5 -9 -10 -20 -10 -11 0 -20 5 -20 10 0 6 -13 10 -30 10
-16 0 -30 -5 -30 -10z"/>
<path d="M4670 4186 c21 -7 44 -9 58 -4 32 11 42 10 40 -4 -2 -6 6 -14 17 -16
20 -4 20 -4 1 17 -21 23 -55 28 -74 9 -9 -9 -12 -9 -12 0 0 7 -14 12 -32 11
l-33 0 35 -13z"/>
<path d="M5106 4191 c17 -17 74 -17 74 -1 0 6 -19 10 -42 10 -26 0 -38 -4 -32
-9z"/>
<path d="M5811 4174 c-9 -21 -16 -25 -37 -20 -23 6 -84 -19 -84 -34 0 -3 30
-5 68 -5 55 0 73 4 97 23 22 17 37 22 59 18 15 -3 33 -6 37 -6 5 0 14 -12 19
-26 6 -14 14 -23 19 -20 5 4 16 -1 25 -9 11 -12 20 -13 34 -6 25 13 192 -18
192 -36 0 -7 7 -13 15 -13 8 0 15 -7 15 -15 0 -11 12 -15 44 -15 29 0 46 -5
49 -14 3 -8 1 -17 -6 -19 -14 -4 8 -37 26 -37 5 0 16 -8 23 -17 7 -10 13 -13
14 -8 0 17 -14 33 -35 37 -20 5 -20 5 -1 13 15 6 23 3 33 -12 13 -19 18 -20
46 -11 18 6 42 20 54 31 18 16 20 24 12 39 -9 16 -6 25 11 43 14 15 20 30 16
43 -5 16 0 24 23 35 32 16 41 11 54 -26 5 -12 15 -17 29 -15 19 2 23 9 22 36
-1 17 2 32 7 32 5 0 9 7 9 16 0 9 7 14 18 12 12 -2 17 -13 16 -33 0 -17 4 -33
9 -36 5 -4 0 -12 -12 -18 -11 -7 -21 -18 -21 -26 0 -24 38 -17 55 9 21 32 41
39 68 24 12 -7 25 -11 30 -10 4 1 7 -3 7 -8 0 -6 6 -10 13 -10 10 0 14 14 15
46 0 34 -3 44 -13 40 -8 -3 -17 3 -20 15 -6 18 -18 19 -309 19 -188 0 -306 -4
-312 -10 -14 -14 -86 -15 -111 -2 -14 8 -76 12 -166 12 l-144 0 -12 -26z"/>
<path d="M7243 4193 c9 -2 23 -2 30 0 6 3 -1 5 -18 5 -16 0 -22 -2 -12 -5z"/>
<path d="M3600 4171 c0 -12 37 -24 50 -16 20 12 10 25 -20 25 -16 0 -30 -4
-30 -9z"/>
<path d="M4625 4170 c-3 -5 -1 -10 4 -10 6 0 11 5 11 10 0 6 -2 10 -4 10 -3 0
-8 -4 -11 -10z"/>
<path d="M4820 4176 c0 -2 7 -9 15 -16 13 -11 14 -10 9 4 -5 14 -24 23 -24 12z"/>
<path d="M4899 4173 l53 -4 -5 -35 c-3 -19 -2 -34 4 -34 5 0 9 18 9 40 l0 40
-57 -2 -58 -2 54 -3z"/>
<path d="M2066 4113 c-20 -20 15 -113 42 -113 9 0 8 6 -4 25 -10 16 -14 34 -9
53 4 21 2 31 -9 35 -8 3 -17 3 -20 0z"/>
<path d="M4680 4059 c0 -5 9 -9 20 -9 11 0 20 2 20 4 0 2 -9 6 -20 9 -11 3
-20 1 -20 -4z"/>
<path d="M4785 4035 c60 -17 73 -19 59 -5 -5 5 -32 12 -59 15 l-50 5 50 -15z"/>
<path d="M2010 4021 c0 -11 5 -23 10 -26 6 -4 10 5 10 19 0 14 -4 26 -10 26
-5 0 -10 -9 -10 -19z"/>
<path d="M4570 4030 c-18 -12 -2 -12 25 0 13 6 15 9 5 9 -8 0 -22 -4 -30 -9z"/>
<path d="M4705 4029 c23 -6 17 -7 -25 -4 -40 3 -50 2 -35 -5 15 -7 8 -8 -24
-4 -34 5 -42 3 -36 -6 6 -9 4 -11 -5 -5 -7 4 -16 2 -20 -5 -5 -8 -29 -14 -58
-14 -29 -1 -45 -4 -39 -9 7 -5 -5 -7 -28 -4 -22 3 -34 3 -27 0 25 -10 11 -21
-17 -13 -25 7 -29 6 -24 -7 5 -12 1 -14 -17 -8 -16 5 -20 4 -15 -5 6 -9 0 -10
-22 -6 -16 4 -57 0 -91 -9 -39 -10 -75 -14 -95 -9 -28 6 -30 8 -12 15 12 5 -4
6 -40 3 -33 -4 -67 -10 -75 -14 -8 -4 -34 -11 -58 -15 -24 -4 -41 -9 -38 -12
2 -3 39 2 82 11 70 15 144 13 144 -3 0 -3 -19 -7 -43 -7 -32 -1 -37 0 -22 7
15 7 12 8 -14 4 -18 -3 -39 -5 -45 -5 -6 0 -4 -5 4 -11 11 -7 4 -8 -25 -4 -31
5 -37 4 -25 -5 12 -8 6 -9 -25 -5 -25 4 -35 3 -27 -3 18 -12 -124 -43 -174
-36 -30 3 -34 2 -19 -5 16 -8 12 -9 -20 -7 -22 2 -32 1 -22 -1 9 -2 17 -8 17
-13 0 -6 -11 -5 -26 0 -14 6 -33 10 -42 9 -14 0 -13 -2 3 -10 14 -6 7 -7 -25
-4 l-45 6 34 -16 c29 -13 43 -13 92 -3 33 7 59 16 59 21 0 4 4 6 10 2 8 -5
121 17 775 150 l181 36 259 -55 c328 -70 331 -70 339 -57 7 11 -22 16 -72 13
-12 0 -20 3 -17 7 2 5 -17 12 -43 16 -39 6 -43 9 -27 16 15 7 12 8 -13 4 -22
-3 -31 -1 -26 6 4 8 -7 9 -37 5 -32 -5 -40 -4 -29 3 11 8 4 9 -24 4 -28 -4
-37 -3 -32 5 5 8 2 10 -9 6 -20 -8 -87 5 -81 15 3 4 -9 5 -26 3 -21 -3 -29 -1
-24 7 5 7 -3 9 -26 6 -27 -4 -29 -4 -13 5 15 8 10 9 -25 5 -29 -3 -38 -2 -25
3 16 8 14 10 -14 15 -46 10 -73 6 -36 -4z"/>
<path d="M4898 4013 c7 -3 16 -2 19 1 4 3 -2 6 -13 5 -11 0 -14 -3 -6 -6z"/>
<path d="M3035 3980 c-3 -5 -1 -10 4 -10 6 0 11 5 11 10 0 6 -2 10 -4 10 -3 0
-8 -4 -11 -10z"/>
<path d="M4938 3983 c7 -3 16 -2 19 1 4 3 -2 6 -13 5 -11 0 -14 -3 -6 -6z"/>
<path d="M5145 3960 c207 -46 386 -82 390 -78 7 6 -113 37 -352 89 -23 5 -59
9 -80 8 -30 -1 -22 -4 42 -19z"/>
<path d="M4248 3963 c6 -2 18 -2 25 0 6 3 1 5 -13 5 -14 0 -19 -2 -12 -5z"/>
<path d="M2983 3931 c0 -20 1 -21 9 -8 5 10 16 17 23 17 8 0 15 3 15 8 0 4
-11 7 -24 7 -18 0 -23 -5 -23 -24z"/>
<path d="M4198 3953 c7 -3 16 -2 19 1 4 3 -2 6 -13 5 -11 0 -14 -3 -6 -6z"/>
<path d="M6332 3934 c7 -16 17 -32 23 -36 16 -12 -4 -9 -28 4 -12 6 -28 18
-34 27 -11 13 -14 14 -22 2 -7 -11 -9 -11 -14 0 -4 11 -6 11 -6 1 -1 -7 -5
-10 -11 -7 -5 3 -10 0 -10 -7 1 -38 60 -60 108 -41 18 8 38 11 45 8 7 -3 2 2
-10 11 -13 9 -23 22 -23 29 0 7 -7 18 -16 25 -13 12 -14 10 -2 -16z"/>
<path d="M4490 3910 c-96 -20 -265 -55 -375 -78 -110 -23 -288 -60 -395 -82
-107 -23 -210 -44 -227 -47 -18 -3 -31 -9 -28 -13 2 -4 -6 -5 -18 -3 -12 2
-49 -3 -82 -11 -54 -13 84 -14 1315 -15 756 -1 1386 -4 1400 -8 14 -3 23 -3
19 0 -4 6 -193 47 -554 123 -204 42 -306 64 -400 84 -49 10 -146 31 -215 45
-69 14 -141 30 -161 35 -54 15 -87 11 -279 -30z m320 -85 c63 -14 232 -49 315
-65 22 -4 96 -19 165 -33 153 -30 203 -40 212 -41 3 -1 10 -4 14 -8 4 -5 -375
-8 -842 -7 -483 0 -840 4 -829 9 11 5 31 9 44 9 14 1 52 7 85 15 34 8 102 22
151 31 50 9 138 27 196 40 58 13 121 27 140 30 19 3 59 10 89 17 143 28 144
28 260 3z m-1262 -152 c-10 -2 -26 -2 -35 0 -10 3 -2 5 17 5 19 0 27 -2 18 -5z
m80 0 c-10 -2 -28 -2 -40 0 -13 2 -5 4 17 4 22 1 32 -1 23 -4z"/>
<path d="M3079 3911 l-36 -27 25 -12 c21 -10 29 -9 42 3 15 14 21 49 9 58 -2
3 -20 -8 -40 -22z"/>
<path d="M5178 3933 c7 -3 16 -2 19 1 4 3 -2 6 -13 5 -11 0 -14 -3 -6 -6z"/>
<path d="M5268 3913 c6 -2 18 -2 25 0 6 3 1 5 -13 5 -14 0 -19 -2 -12 -5z"/>
<path d="M5323 3903 c4 -3 3 -11 -3 -18 -7 -8 25 -18 118 -38 243 -50 468 -97
658 -138 183 -39 193 -40 220 -24 l29 16 -28 -6 c-19 -4 -26 -2 -22 5 3 5 0
10 -9 10 -8 0 -22 3 -32 7 -11 4 -15 3 -11 -4 4 -7 0 -10 -10 -7 -34 7 -229
46 -293 59 -55 10 -60 13 -35 17 17 3 8 3 -18 1 -34 -3 -47 -1 -42 7 4 7 -2 9
-19 4 -17 -4 -26 -2 -26 5 0 7 -10 9 -26 5 -21 -5 -25 -4 -19 6 6 10 1 11 -21
6 -22 -5 -26 -4 -14 4 12 9 8 11 -17 8 -18 -3 -29 0 -26 5 3 5 -12 7 -38 3
-33 -4 -39 -3 -24 4 16 8 14 9 -13 5 -42 -6 -90 4 -71 16 7 4 -7 5 -31 2 -28
-4 -41 -2 -37 4 4 6 -4 8 -21 6 -22 -4 -24 -2 -12 7 12 8 6 9 -25 5 -31 -5
-37 -4 -25 5 12 9 10 11 -12 7 -16 -2 -28 0 -28 4 0 5 -5 9 -12 9 -6 0 -8 -3
-5 -7z"/>
<path d="M2966 3882 c-2 -4 -1 -14 5 -22 7 -12 9 -10 9 8 0 23 -5 28 -14 14z"/>
<path d="M3805 3880 c-18 -8 -18 -9 5 -8 14 0 36 4 50 8 24 8 24 8 -5 8 -16 0
-39 -3 -50 -8z"/>
<path d="M6417 3876 c-4 -10 -5 -21 -2 -24 9 -9 17 6 13 25 -3 17 -4 17 -11
-1z"/>
<path d="M5551 3876 c2 -2 22 -6 44 -9 28 -5 34 -4 20 3 -19 8 -73 14 -64 6z"/>
<path d="M3758 3863 c7 -3 16 -2 19 1 4 3 -2 6 -13 5 -11 0 -14 -3 -6 -6z"/>
<path d="M3820 3860 c-20 -6 -21 -8 -5 -8 11 0 31 4 45 8 20 6 21 8 5 8 -11 0
-31 -4 -45 -8z"/>
<path d="M2997 3838 c-8 -28 -4 -32 22 -23 25 8 28 30 5 39 -22 8 -21 9 -27
-16z"/>
<path d="M6360 3841 c0 -12 2 -21 4 -21 2 0 12 -3 21 -6 13 -5 16 -2 13 17 -4
31 -38 39 -38 10z"/>
<path d="M3668 3843 c7 -3 16 -2 19 1 4 3 -2 6 -13 5 -11 0 -14 -3 -6 -6z"/>
<path d="M3758 3843 c6 -2 18 -2 25 0 6 3 1 5 -13 5 -14 0 -19 -2 -12 -5z"/>
<path d="M3558 3823 c6 -2 18 -2 25 0 6 3 1 5 -13 5 -14 0 -19 -2 -12 -5z"/>
<path d="M5798 3823 c7 -3 16 -2 19 1 4 3 -2 6 -13 5 -11 0 -14 -3 -6 -6z"/>
<path d="M6577 3823 c-14 -4 -16 -8 -7 -18 8 -10 18 -11 35 -5 15 6 27 6 30
-1 4 -5 11 -6 17 -3 7 5 4 12 -7 21 -19 13 -35 15 -68 6z"/>
<path d="M5895 3809 c-15 -6 -11 -8 18 -8 20 -1 37 1 37 3 0 9 -37 12 -55 5z"/>
<path d="M2240 3801 c0 -6 5 -13 10 -16 6 -3 10 1 10 9 0 9 -4 16 -10 16 -5 0
-10 -4 -10 -9z"/>
<path d="M3322 3784 c-11 -12 -9 -14 10 -13 13 1 34 5 48 10 22 8 22 8 -7 4
-17 -2 -33 0 -35 4 -2 5 -9 3 -16 -5z"/>
<path d="M3418 3793 c7 -3 16 -2 19 1 4 3 -2 6 -13 5 -11 0 -14 -3 -6 -6z"/>
<path d="M3455 3786 c-32 -8 -45 -15 -35 -19 8 -4 2 -5 -15 -2 -16 2 -48 0
-70 -4 -22 -5 -31 -9 -21 -10 11 0 17 -3 14 -6 -10 -10 -252 -56 -277 -52 -14
2 -19 2 -11 -1 8 -3 -7 -11 -35 -18 l-50 -12 53 -1 c32 -1 52 3 52 10 0 6 7 8
15 5 20 -7 335 55 329 66 -3 4 9 5 27 1 25 -5 30 -3 24 7 -5 8 -4 11 3 6 14
-9 145 15 135 25 -16 14 -89 17 -138 5z m89 -5 c3 -4 -6 -6 -19 -3 -14 2 -25
6 -25 8 0 8 39 4 44 -5z m-50 -10 c4 -5 -3 -7 -14 -4 -23 6 -26 13 -6 13 8 0
17 -4 20 -9z m-107 -17 c-3 -3 -12 -4 -19 -1 -8 3 -5 6 6 6 11 1 17 -2 13 -5z"/>
<path d="M5980 3790 c34 -11 60 -11 35 0 -11 5 -29 8 -40 8 -16 0 -15 -2 5 -8z"/>
<path d="M6047 3779 c7 -7 15 -10 18 -7 3 3 -2 9 -12 12 -14 6 -15 5 -6 -5z"/>
<path d="M5968 3773 c7 -3 16 -2 19 1 4 3 -2 6 -13 5 -11 0 -14 -3 -6 -6z"/>
<path d="M3268 3763 c7 -3 16 -2 19 1 4 3 -2 6 -13 5 -11 0 -14 -3 -6 -6z"/>
<path d="M6008 3763 c7 -3 16 -2 19 1 4 3 -2 6 -13 5 -11 0 -14 -3 -6 -6z"/>
<path d="M6118 3763 c7 -3 16 -2 19 1 4 3 -2 6 -13 5 -11 0 -14 -3 -6 -6z"/>
<path d="M2227 3754 c-14 -15 -6 -34 14 -34 14 0 19 5 17 17 -3 18 -20 27 -31
17z"/>
<path d="M3218 3753 c7 -3 16 -2 19 1 4 3 -2 6 -13 5 -11 0 -14 -3 -6 -6z"/>
<path d="M6068 3753 c7 -3 16 -2 19 1 4 3 -2 6 -13 5 -11 0 -14 -3 -6 -6z"/>
<path d="M6180 3750 c34 -11 60 -11 35 0 -11 5 -29 8 -40 8 -16 0 -15 -2 5 -8z"/>
<path d="M3189 3742 c11 -8 9 -11 -10 -15 -22 -5 -22 -5 -1 -4 25 2 32 19 10
25 -10 3 -9 1 1 -6z"/>
<path d="M3268 3743 c7 -3 16 -2 19 1 4 3 -2 6 -13 5 -11 0 -14 -3 -6 -6z"/>
<path d="M6120 3740 c14 -4 36 -8 50 -8 22 0 22 1 -5 8 -16 4 -39 8 -50 8 -16
0 -15 -2 5 -8z"/>
<path d="M3075 3730 c-18 -8 -18 -9 5 -8 14 0 36 4 50 8 24 8 24 8 -5 8 -16 0
-39 -3 -50 -8z"/>
<path d="M3228 3733 c7 -3 16 -2 19 1 4 3 -2 6 -13 5 -11 0 -14 -3 -6 -6z"/>
<path d="M6208 3723 c7 -3 16 -2 19 1 4 3 -2 6 -13 5 -11 0 -14 -3 -6 -6z"/>
<path d="M6271 3726 c2 -2 18 -6 34 -10 22 -5 26 -4 15 4 -14 9 -59 15 -49 6z"/>
<path d="M3028 3713 c7 -3 16 -2 19 1 4 3 -2 6 -13 5 -11 0 -14 -3 -6 -6z"/>
<path d="M3128 3713 c7 -3 16 -2 19 1 4 3 -2 6 -13 5 -11 0 -14 -3 -6 -6z"/>
<path d="M2940 3700 c-20 -6 -21 -8 -5 -8 11 0 31 4 45 8 20 6 21 8 5 8 -11 0
-31 -4 -45 -8z"/>
<path d="M6378 3703 c7 -3 16 -2 19 1 4 3 -2 6 -13 5 -11 0 -14 -3 -6 -6z"/>
<path d="M6478 3681 c34 -10 66 -22 70 -26 4 -5 -1 -5 -10 -2 -10 4 -18 2 -18
-4 0 -6 -330 -10 -967 -11 -533 0 -1033 -1 -1113 -1 -80 -1 -266 2 -415 6
-148 4 -470 7 -715 8 -245 1 -431 5 -415 9 l30 8 -30 2 c-26 1 -27 3 -10 10
16 7 13 9 -17 9 -36 1 -38 -1 -38 -29 0 -17 -7 -33 -17 -39 -16 -8 -15 -11 10
-20 16 -6 32 -11 37 -11 10 0 42 -59 55 -99 6 -21 5 -23 -14 -18 -11 3 -21 1
-21 -4 0 -5 -9 -9 -20 -9 -11 0 -20 7 -20 16 0 8 3 13 8 11 4 -3 16 -1 27 4
18 7 18 8 2 8 -10 1 -15 6 -12 11 3 6 0 11 -7 12 -7 0 -17 2 -23 2 -5 1 -16 5
-22 9 -8 5 -13 3 -13 -4 0 -8 -5 -7 -17 2 -11 10 -14 10 -9 2 9 -16 -6 -17
-22 -1 -7 7 -12 8 -12 2 0 -11 -90 -12 -107 -1 -7 5 -13 4 -13 0 0 -11 -41
-11 -57 0 -6 4 -14 3 -17 -2 -9 -13 -91 -8 -110 8 -13 11 -19 12 -29 2 -9 -10
-8 -11 8 -6 16 5 17 5 5 -3 -10 -8 -18 -8 -27 0 -9 7 -13 7 -13 0 0 -7 -10 -8
-30 -2 -16 5 -30 5 -30 1 0 -5 -11 -7 -25 -5 -14 2 -36 6 -50 8 -13 2 -22 0
-20 -4 6 -10 -71 -7 -80 2 -4 4 -16 3 -27 -3 -14 -7 -23 -7 -34 2 -8 6 -14 7
-14 2 0 -12 -38 -14 -45 -3 -3 5 -16 5 -32 -1 -18 -7 -30 -6 -41 3 -9 8 -13 8
-9 2 4 -7 -3 -11 -18 -11 -14 0 -28 3 -31 8 -3 5 -14 4 -26 -2 -14 -7 -23 -8
-30 -1 -7 7 -19 7 -34 2 -14 -6 -26 -6 -29 0 -3 6 -15 6 -30 0 -15 -6 -27 -6
-30 0 -3 5 -15 6 -28 1 -15 -6 -30 -3 -47 8 -13 9 -21 11 -17 5 4 -7 0 -14 -8
-18 -8 -3 -17 -2 -19 3 -5 8 -105 5 -114 -4 -3 -3 -11 0 -18 6 -9 7 -19 7 -33
0 -13 -8 -22 -8 -26 -1 -4 6 -11 8 -16 5 -5 -4 -9 0 -9 7 0 8 -5 6 -11 -5 -8
-14 -14 -16 -24 -7 -8 7 -19 9 -25 5 -5 -3 -10 0 -10 7 0 9 -2 10 -8 2 -4 -7
-19 -10 -34 -9 -16 2 -31 -1 -34 -7 -3 -5 -15 -2 -27 9 -11 10 -17 12 -13 5 6
-11 1 -12 -25 -8 -18 2 -40 1 -48 -4 -10 -5 -23 -3 -36 6 -10 8 -26 14 -34 14
-14 0 -14 -1 -1 -10 13 -8 13 -10 -2 -10 -9 0 -20 5 -23 10 -3 6 -16 10 -28 9
-21 0 -21 -1 -2 -9 17 -7 18 -9 2 -9 -9 -1 -26 5 -37 12 -17 10 -22 9 -29 -2
-7 -10 -13 -11 -29 -2 -28 15 -53 15 -32 0 15 -11 3 -9 -50 7 -12 4 -20 2 -20
-5 0 -8 -6 -9 -18 -2 -10 6 -24 6 -32 1 -8 -5 -19 -6 -25 -2 -15 10 -75 9 -75
-2 0 -5 -7 -3 -15 4 -11 9 -15 9 -15 1 0 -8 -5 -9 -18 -2 -10 5 -24 6 -32 1
-8 -5 -22 -4 -33 1 -12 7 -22 7 -31 0 -7 -6 -16 -8 -19 -4 -4 3 -37 7 -74 8
-38 2 -77 6 -88 10 -17 6 -17 5 -5 -5 12 -9 8 -11 -22 -6 -21 2 -40 0 -44 -5
-4 -6 -10 -6 -19 1 -7 6 -21 7 -30 3 -14 -5 -16 -3 -10 8 7 11 6 12 -6 3 -8
-7 -26 -11 -41 -9 -16 2 -28 -1 -28 -6 0 -6 -5 -7 -11 -3 -6 3 -32 7 -57 7
-41 0 -47 -2 -50 -22 -3 -21 -1 -22 85 -20 48 1 93 5 100 11 7 6 14 5 18 -2 9
-15 112 -13 118 3 4 9 6 9 6 -1 1 -8 9 -10 26 -6 13 3 38 1 55 -4 16 -6 30 -8
30 -4 0 9 70 7 93 -3 10 -4 23 -2 32 5 9 7 15 8 15 2 0 -5 23 -10 50 -9 28 0
50 4 50 9 0 4 5 8 11 8 5 0 7 -4 4 -10 -8 -12 -8 -12 33 -1 21 6 32 6 32 0 0
-12 222 -8 231 4 3 4 17 3 31 -2 32 -12 1478 -14 1542 -2 25 4 48 6 51 2 6 -5
48 -8 166 -10 33 -1 46 -5 46 -16 0 -13 -73 -15 -593 -15 -464 0 -593 3 -597
13 -4 10 -6 10 -6 0 -1 -7 -8 -13 -17 -13 -8 0 -13 3 -11 8 3 4 -51 3 -120 -2
-84 -6 -240 -5 -477 4 -197 7 -429 10 -527 7 -96 -4 -243 -7 -326 -7 -97 0
-153 -4 -153 -10 0 -11 172 -12 1916 -16 551 -1 1007 -4 1013 -8 6 -4 16 -17
22 -28 l11 -21 -1481 6 -1481 6 0 -38 c0 -35 3 -39 31 -45 17 -3 584 -6 1259
-6 1253 0 1624 -5 1613 -23 -3 -5 0 -8 8 -5 7 2 20 -3 29 -11 12 -13 32 -15
115 -10 l100 5 -100 3 c-55 1 -94 5 -87 8 6 2 9 9 6 14 -4 6 -10 6 -18 0 -10
-8 -11 -4 -8 19 3 24 9 30 31 31 132 4 3414 -3 3439 -7 32 -6 43 -26 21 -40
-6 -4 -51 -7 -100 -7 -49 0 -89 -4 -89 -9 0 -5 48 -7 113 -3 61 3 765 8 1562
10 798 3 1456 5 1463 5 7 0 12 15 12 40 l0 40 -772 0 c-425 0 -1093 3 -1485 7
l-711 6 11 24 c12 27 -65 24 700 24 296 1 557 -2 580 -5 39 -5 40 -5 12 5 -19
7 -256 13 -647 16 -686 6 -629 -1 -592 75 10 21 15 40 13 43 -3 2 -815 5
-1805 5 -1070 1 -1806 5 -1814 10 -12 8 -13 13 -3 29 10 15 10 21 0 24 -7 3
17 5 53 5 63 -1 63 -1 20 -8 -40 -7 -39 -7 10 -3 70 6 85 6 255 -1 77 -2 848
-5 1713 -5 1420 -1 1572 -3 1572 -17 0 -11 8 -15 33 -12 17 2 32 8 32 13 0 6
-6 9 -12 9 -8 -1 -11 7 -9 21 6 30 -9 50 -36 51 -13 1 -41 4 -63 8 -26 4 -17
-1 23 -13z m-5838 -171 c0 -5 -5 -10 -11 -10 -5 0 -7 5 -4 10 3 6 8 10 11 10
2 0 4 -4 4 -10z m677 -6 c-3 -3 -12 -4 -19 -1 -8 3 -5 6 6 6 11 1 17 -2 13 -5z
m70 0 c-3 -3 -12 -4 -19 -1 -8 3 -5 6 6 6 11 1 17 -2 13 -5z m430 0 c-3 -3
-12 -4 -19 -1 -8 3 -5 6 6 6 11 1 17 -2 13 -5z m4568 -34 c2 -3 6 -31 10 -63
l7 -58 -1697 5 c-934 3 -1700 8 -1702 10 -3 2 -1 30 2 61 l8 57 1684 -3 c927
-2 1686 -6 1688 -9z"/>
<path d="M6350 3683 c-43 -14 -44 -16 -10 -24 22 -5 45 -3 65 6 l30 13 -40 -5
c-30 -3 -36 -2 -25 6 16 11 6 13 -20 4z"/>
<path d="M2450 3620 c0 -5 7 -10 15 -10 8 0 15 5 15 10 0 6 -7 10 -15 10 -8 0
-15 -4 -15 -10z"/>
<path d="M2455 3540 c-3 -6 1 -7 9 -4 18 7 21 14 7 14 -6 0 -13 -4 -16 -10z"/>
<path d="M6524 3505 l1 -25 260 -1 c321 -1 302 -1 348 3 20 2 37 0 37 -4 0 -5
14 -8 31 -8 21 0 28 4 23 13 -6 9 -4 9 8 -1 16 -13 134 -12 156 2 7 4 12 2 12
-3 0 -14 37 -14 46 0 5 8 8 8 14 0 5 -9 14 -9 34 -1 17 6 25 6 21 0 -8 -13 28
-13 40 -1 6 6 29 6 55 1 25 -4 48 -6 53 -3 15 9 88 10 93 1 3 -4 10 -5 17 -1
16 10 86 10 90 0 1 -5 27 -4 57 1 33 6 56 7 58 1 4 -10 265 -13 275 -3 9 9 77
11 77 2 0 -6 191 -4 215 2 6 2 18 0 28 -5 10 -4 23 -2 32 5 8 7 15 8 15 3 0
-5 23 -10 50 -10 30 0 50 4 50 10 0 7 4 7 12 -1 16 -16 48 -16 48 0 0 9 3 9
12 0 15 -15 48 -16 48 -1 0 8 4 8 14 0 10 -9 52 -10 148 -6 161 7 134 7 248 2
106 -6 153 0 147 17 -2 6 -12 10 -22 8 -9 -2 -14 1 -11 7 4 6 -4 7 -24 1 -19
-5 -28 -5 -25 1 7 10 -8 12 -19 2 -10 -10 -46 -11 -46 -1 0 5 -6 6 -12 2 -18
-11 -48 -12 -48 -2 0 5 -5 6 -12 2 -18 -11 -108 -12 -101 -1 3 5 -4 4 -16 -2
-14 -8 -21 -8 -21 -1 0 5 -8 10 -17 10 -15 0 -16 -2 -3 -10 11 -7 5 -8 -20 -4
-19 4 -37 8 -39 10 -2 2 -10 -1 -17 -7 -9 -7 -19 -7 -32 0 -11 6 -22 7 -26 4
-8 -9 -117 -13 -112 -5 5 8 -56 8 -70 0 -13 -7 -200 -2 -212 6 -6 3 -13 2 -16
-3 -3 -5 -39 -7 -78 -5 -92 5 -83 5 -151 0 -39 -3 -55 -1 -50 6 4 7 1 8 -8 3
-19 -12 -119 -13 -112 -1 4 5 1 6 -7 1 -19 -12 -310 -12 -310 -1 0 6 -5 5 -12
-2 -13 -13 -32 -17 -24 -4 5 8 -62 7 -71 -2 -3 -3 -13 -1 -23 4 -10 5 -20 6
-24 3 -10 -10 -46 -11 -46 -1 0 5 -5 6 -11 2 -15 -9 -138 -11 -152 -2 -6 4
-17 2 -24 -3 -8 -7 -18 -7 -32 0 -13 7 -22 8 -26 1 -4 -7 -13 -6 -26 1 -15 7
-24 7 -35 -2 -11 -9 -14 -9 -14 1 0 9 -4 9 -17 -1 -15 -12 -16 -12 -8 1 6 12
5 13 -5 3 -9 -9 -19 -9 -33 -2 -13 8 -22 8 -30 0 -7 -7 -14 -5 -24 7 -8 9 -11
11 -7 3 5 -10 3 -13 -8 -8 -9 3 -19 3 -22 0 -8 -8 -68 -8 -89 0 -9 3 -19 1
-23 -5 -5 -7 -11 -5 -20 7 -11 14 -16 15 -28 6 -16 -14 -78 -11 -88 3 -4 6
-14 3 -26 -8 -19 -17 -21 -17 -30 0 -9 16 -12 16 -27 4 -14 -12 -18 -12 -25 0
-7 12 -12 11 -29 -4 -12 -11 -21 -14 -21 -8 0 12 -34 11 -46 -1 -4 -4 -16 1
-27 10 -11 10 -17 13 -14 7 4 -7 0 -14 -8 -18 -18 -6 -45 2 -45 15 0 5 -4 9
-9 9 -5 0 -8 -11 -7 -25z"/>
<path d="M1403 3473 c9 -2 23 -2 30 0 6 3 -1 5 -18 5 -16 0 -22 -2 -12 -5z"/>
<path d="M7830 3430 c-36 -3 294 -6 734 -7 451 -1 808 2 820 8 22 9 -1440 8
-1554 -1z"/>
<path d="M2990 3288 c0 -5 79 -8 177 -8 97 0 173 3 170 7 -10 9 -347 10 -347
1z"/>
<path d="M3350 3288 c0 -5 47 -8 105 -8 58 0 105 3 105 8 0 4 -47 7 -105 7
-58 0 -105 -3 -105 -7z"/>
<path d="M3600 3289 c-19 -4 71 -6 200 -6 232 1 219 4 -35 9 -71 2 -146 0
-165 -3z"/>
<path d="M4043 3284 c6 -7 339 -5 346 1 2 3 -76 5 -174 5 -98 0 -176 -3 -172
-6z"/>
<path d="M4423 3283 c15 -2 39 -2 55 0 15 2 2 4 -28 4 -30 0 -43 -2 -27 -4z"/>
<path d="M4605 3280 c82 -5 90 -7 45 -10 l-55 -4 48 -3 c27 -2 54 1 62 7 16
14 528 13 520 -1 -4 -5 -1 -9 4 -9 6 0 11 3 11 8 0 4 11 8 25 8 16 1 22 -2 18
-10 -4 -6 1 -5 10 3 14 11 17 11 17 0 0 -9 3 -10 8 -3 9 14 45 14 54 0 5 -8 8
-7 8 2 0 9 5 10 18 3 13 -7 23 -6 31 2 9 9 14 8 21 -3 9 -13 10 -13 10 0 0 10
3 11 8 4 4 -6 16 -9 27 -7 11 3 131 5 268 6 136 0 247 4 247 9 0 4 -339 7
-752 6 -414 -1 -708 -5 -653 -8z"/>
<path d="M6030 3282 c0 -4 9 -8 20 -9 11 -1 20 2 20 5 0 4 -9 8 -20 9 -11 1
-20 -2 -20 -5z"/>
<path d="M6080 3280 c0 -5 5 -10 10 -10 6 0 10 5 10 10 0 6 -4 10 -10 10 -5 0
-10 -4 -10 -10z"/>
<path d="M6110 3281 c0 -4 29 -9 65 -10 36 -1 65 2 65 7 0 4 -29 9 -65 10 -36
1 -65 -2 -65 -7z"/>
<path d="M4533 3263 c9 -2 25 -2 35 0 9 3 1 5 -18 5 -19 0 -27 -2 -17 -5z"/>
<path d="M6368 3253 c6 -2 18 -2 25 0 6 3 1 5 -13 5 -14 0 -19 -2 -12 -5z"/>
<path d="M2900 3198 c-19 -5 -274 -11 -570 -14 -294 -3 -536 -7 -539 -9 -2 -3
260 -5 582 -5 580 0 587 0 587 20 0 22 -7 23 -60 8z"/>
<path d="M1 3185 c8 -7 1779 -11 1779 -3 0 4 -401 8 -892 8 -490 0 -889 -2
-887 -5z"/>
<path d="M6440 3168 c0 -9 -6 -9 824 -9 313 0 571 3 574 6 3 3 -179 5 -404 5
-225 0 -541 1 -702 2 -160 2 -292 0 -292 -4z"/>
<path d="M7851 3166 c10 -10 165 -14 179 -6 10 6 -19 10 -84 10 -55 0 -97 -2
-95 -4z"/>
<path d="M8071 3166 c8 -8 238 -11 245 -3 4 4 -50 7 -121 7 -71 0 -126 -2
-124 -4z"/>
<path d="M8361 3166 c8 -8 277 -11 285 -3 4 4 -59 7 -141 7 -82 0 -146 -2
-144 -4z"/>
<path d="M8733 3163 c9 -2 25 -2 35 0 9 3 1 5 -18 5 -19 0 -27 -2 -17 -5z"/>
<path d="M9033 3153 c71 -2 183 -2 250 0 67 1 10 3 -128 3 -137 0 -192 -2
-122 -3z"/>
<path d="M0 3119 c0 -5 578 -9 1412 -9 776 0 1409 3 1406 6 -10 9 -2818 13
-2818 3z"/>
<path d="M2830 3118 c0 -5 27 -8 60 -8 33 0 60 3 60 8 0 4 -27 7 -60 7 -33 0
-60 -3 -60 -7z"/>
<path d="M6490 3098 c0 -4 9 -8 20 -8 11 0 20 4 20 9 0 6 -9 9 -20 8 -11 -1
-20 -5 -20 -9z"/>
<path d="M6540 3098 c0 -4 16 -8 35 -8 19 0 35 4 35 10 0 5 -16 9 -35 8 -19
-1 -35 -5 -35 -10z"/>
<path d="M6620 3099 c0 -5 45 -9 100 -9 55 0 100 3 100 8 0 4 -45 8 -100 8
-55 1 -100 -3 -100 -7z"/>
<path d="M6830 3098 c0 -4 171 -8 380 -8 209 0 380 3 380 8 0 4 -171 7 -380 7
-209 1 -380 -3 -380 -7z"/>
<path d="M7600 3098 c0 -4 351 -8 780 -9 429 0 825 -1 880 -2 55 -1 100 1 100
6 0 4 -300 7 -667 8 -368 0 -764 1 -880 3 -117 1 -213 -2 -213 -6z"/>
<path d="M1118 3093 c7 -3 16 -2 19 1 4 3 -2 6 -13 5 -11 0 -14 -3 -6 -6z"/>
<path d="M1223 3093 c15 -2 39 -2 55 0 15 2 2 4 -28 4 -30 0 -43 -2 -27 -4z"/>
<path d="M1323 3093 c9 -2 25 -2 35 0 9 3 1 5 -18 5 -19 0 -27 -2 -17 -5z"/>
<path d="M1458 3093 c46 -2 118 -2 160 0 42 1 5 3 -83 3 -88 0 -123 -2 -77 -3z"/>
<path d="M1728 3093 c17 -2 47 -2 65 0 17 2 3 4 -33 4 -36 0 -50 -2 -32 -4z"/>
<path d="M1918 3093 c29 -2 74 -2 100 0 26 2 2 3 -53 3 -55 0 -76 -1 -47 -3z"/>
<path d="M2333 3093 c9 -2 23 -2 30 0 6 3 -1 5 -18 5 -16 0 -22 -2 -12 -5z"/>
<path d="M3303 3087 c3 -8 3 -17 -1 -19 -4 -2 -14 -17 -23 -33 -14 -28 -14
-34 1 -70 9 -22 15 -49 12 -59 -3 -11 -1 -17 4 -14 5 4 10 -8 10 -25 1 -30 1
-30 -21 14 -13 24 -21 48 -17 53 3 5 0 6 -6 2 -11 -6 -7 -31 9 -51 10 -13 32
-94 35 -125 1 -14 -9 -123 -23 -243 -13 -120 -22 -224 -19 -230 2 -7 5 5 5 26
1 23 5 36 11 32 6 -4 10 16 10 54 0 59 19 99 21 44 l1 -28 9 25 c12 34 3 -68
-27 -325 -37 -312 -41 -336 -44 -295 l-2 35 -8 -35 c-5 -19 -9 -66 -9 -105 0
-38 -5 -106 -11 -150 -6 -44 -15 -141 -20 -215 -4 -74 -22 -252 -39 -395 -57
-471 -71 -599 -82 -705 -12 -127 -13 -130 -39 -130 -12 0 -18 -5 -15 -10 10
-16 0 -12 -26 11 -16 13 -31 18 -47 14 -18 -4 -22 -2 -16 7 4 8 3 10 -2 5 -18
-17 -9 -32 26 -44 19 -7 43 -13 53 -13 13 0 17 -5 12 -19 -6 -20 18 -47 33
-37 6 3 12 -3 15 -14 4 -17 15 -19 131 -19 102 -1 124 2 120 13 -8 22 31 26
223 25 189 -1 215 3 206 29 -5 12 -2 14 11 9 15 -6 17 -3 13 12 -6 25 12 32
71 26 34 -4 42 -3 27 4 -11 5 -37 10 -57 10 -42 1 -47 12 -20 39 15 15 20 41
26 131 3 61 9 135 11 164 3 28 10 135 15 237 11 184 36 524 45 610 2 25 7 95
10 155 3 61 8 129 11 153 l6 42 -191 1 c-216 2 -211 1 -211 12 0 4 0 12 0 18
0 8 5 8 15 -1 11 -9 15 -9 15 -1 0 9 48 11 185 9 102 -2 185 -3 185 -3 1 0 18
194 39 445 31 368 52 580 61 630 10 50 28 101 31 85 1 -5 4 3 8 19 4 22 15 32
43 42 38 13 101 5 122 -16 8 -8 7 -9 -6 -5 -12 5 -20 1 -24 -9 -9 -22 5 -34
16 -16 8 12 10 10 10 -7 0 -14 6 -23 15 -23 9 0 15 -9 15 -22 0 -17 3 -19 9
-9 6 10 10 10 16 1 8 -13 -2 -903 -11 -1032 l-6 -78 379 -1 c208 -1 394 0 414
1 21 1 40 -4 44 -10 6 -9 9 -9 15 0 4 7 5 247 2 534 -5 505 -1 617 19 585 6
-10 9 -3 9 24 0 23 4 36 10 32 6 -4 8 -11 5 -16 -4 -5 -1 -9 5 -9 6 0 10 10 9
23 -5 31 8 47 36 47 13 0 27 5 30 10 5 8 11 8 20 0 10 -8 14 -7 18 2 4 10 6
10 6 1 1 -7 11 -13 24 -14 12 0 16 -3 10 -6 -7 -2 -13 -9 -13 -15 0 -6 7 -8
15 -4 11 4 15 -2 15 -22 0 -21 2 -24 10 -12 8 12 10 9 10 -12 0 -14 5 -28 10
-30 11 -3 36 -268 70 -748 11 -162 22 -310 23 -328 l3 -33 219 -2 220 -2 3
-23 3 -23 -221 3 -221 3 6 -60 c6 -71 27 -413 55 -895 31 -548 29 -529 51
-541 28 -14 23 -37 -8 -42 -27 -4 -27 -4 3 -6 27 -1 31 -4 27 -25 -4 -17 3
-29 25 -45 28 -20 42 -21 232 -21 131 0 199 -3 195 -10 -4 -7 61 -10 188 -10
l194 0 -5 30 c-3 18 0 30 7 30 6 0 11 4 11 9 0 6 -9 9 -20 8 -12 -1 -18 -7
-16 -14 8 -21 -32 -37 -49 -19 -8 8 -15 17 -15 20 0 11 71 35 86 29 12 -4 14
2 12 34 -3 35 -6 39 -26 35 -12 -2 -25 -8 -28 -13 -12 -20 -25 -7 -24 24 1 17
-4 75 -10 127 -6 52 -22 199 -36 325 -14 127 -27 237 -30 245 -3 8 -14 121
-25 250 -22 277 -25 304 -46 475 -9 72 -16 158 -15 193 2 34 -1 62 -6 62 -4 0
-6 16 -4 36 3 24 1 34 -6 30 -7 -4 -12 19 -15 66 -3 40 -10 107 -15 148 -6 41
-18 158 -26 260 -9 102 -21 226 -27 276 -9 77 -9 97 4 125 9 19 18 43 20 54 5
22 12 -54 9 -99 -1 -16 2 -34 6 -40 5 -6 13 -54 17 -106 7 -101 12 -147 20
-207 3 -21 9 -80 15 -131 12 -123 30 -240 40 -266 9 -21 9 -21 9 1 1 12 -10
111 -23 220 -14 109 -32 263 -41 343 -10 80 -23 189 -29 242 -7 54 -10 102 -6
107 3 6 48 12 100 14 l95 3 -102 2 c-112 2 -105 -1 -103 57 0 3 -7 19 -15 35
l-16 30 36 0 c19 0 35 5 35 10 0 6 -12 8 -26 6 -33 -6 -54 2 -54 23 0 13 -2
13 -9 2 -8 -12 -212 -13 -1378 -8 -752 3 -1377 9 -1387 13 -15 6 -18 4 -13 -9z
m1042 -39 c26 -12 55 -54 55 -81 0 -8 -8 -25 -18 -38 -15 -19 -17 -31 -10 -57
8 -29 11 -32 24 -21 14 11 15 8 12 -21 -2 -22 -12 -40 -30 -53 -15 -12 -30
-19 -32 -16 -3 3 2 24 10 48 10 29 12 47 5 54 -5 5 -7 16 -4 24 4 11 -2 12
-33 7 -31 -4 -45 -1 -67 16 -15 12 -27 30 -27 41 0 11 -4 18 -9 14 -6 -3 -28
-1 -50 4 -23 5 -41 6 -41 2 0 -3 -16 -7 -35 -8 -19 -1 -35 3 -35 8 0 5 5 9 11
9 5 0 7 5 4 10 -14 23 -31 9 -27 -24 3 -27 -1 -37 -25 -55 -52 -42 -133 -9
-133 53 0 42 24 74 63 85 49 14 361 13 392 -1z m994 1 c103 2 130 -8 155 -57
34 -66 -57 -132 -121 -87 -30 21 -46 72 -26 79 23 9 8 19 -17 11 -16 -5 -18
-10 -10 -20 8 -10 8 -15 -1 -20 -6 -4 -14 -3 -18 3 -3 6 -22 12 -41 14 -23 2
-34 8 -32 16 1 8 -2 11 -8 7 -6 -3 -8 -11 -5 -16 4 -5 2 -9 -4 -9 -5 0 -12 6
-14 13 -3 7 -6 5 -6 -5 -1 -10 -6 -18 -11 -18 -6 0 -10 7 -8 16 2 10 -3 19
-10 22 -9 3 -13 -3 -12 -19 4 -48 -1 -59 -31 -75 -37 -18 -74 -12 -106 18 -31
29 -29 68 5 101 24 23 36 26 112 29 47 2 92 2 100 0 8 -2 57 -3 109 -3z m598
-103 c4 -3 -47 -5 -113 -4 -92 1 -105 3 -59 7 71 7 164 5 172 -3z m-710 -22
c-3 -3 -12 -4 -19 -1 -8 3 -5 6 6 6 11 1 17 -2 13 -5z m-213 -81 c-4 -20 1
-34 15 -50 23 -25 26 -33 11 -33 -22 0 -60 49 -60 77 0 21 3 24 10 13 8 -12
10 -12 16 3 10 26 14 20 8 -10z m456 -25 c0 -23 -30 -58 -51 -58 -22 0 -26 15
-5 23 8 3 18 22 21 41 6 30 9 33 21 21 8 -7 14 -20 14 -27z m-1513 6 c-2 -14
0 -24 7 -24 7 0 12 -9 13 -20 2 -17 -1 -18 -17 -10 -40 21 -53 75 -19 77 17 2
20 -3 16 -23z m2120 -586 c-3 -8 -6 -5 -6 6 -1 11 2 17 5 13 3 -3 4 -12 1 -19z
m-2620 -120 c-3 -8 -6 -5 -6 6 -1 11 2 17 5 13 3 -3 4 -12 1 -19z m2493 -17
c0 -24 5 -41 14 -44 7 -3 19 -29 26 -57 11 -44 10 -53 -4 -69 -14 -16 -15 -22
-2 -52 7 -19 17 -54 20 -79 13 -85 18 -100 32 -100 10 0 14 -14 14 -52 0 -29
10 -84 21 -123 10 -38 21 -83 23 -100 2 -16 1 -22 -1 -12 -6 24 -16 21 -30 -8
-6 -14 -7 -25 -2 -25 5 0 12 -12 15 -27 4 -16 10 -33 15 -38 8 -11 -59 -125
-73 -125 -5 0 -8 10 -8 23 0 12 -18 216 -40 452 -44 475 -44 475 -30 475 6 0
10 -18 10 -39z m-385 -1 c3 -6 -1 -7 -9 -4 -18 7 -21 14 -7 14 6 0 13 -4 16
-10z m-1837 -73 c-1 -19 2 -39 6 -45 4 -7 3 -12 -2 -12 -13 0 -24 47 -17 71 9
29 15 23 13 -14z m52 19 c0 -3 -4 -8 -10 -11 -5 -3 -10 -1 -10 4 0 6 5 11 10
11 6 0 10 -2 10 -4z m-344 -183 c-31 -303 -39 -357 -53 -371 -10 -11 -11 -17
-2 -28 8 -10 8 -46 -1 -140 l-13 -126 -23 26 c-13 14 -24 29 -24 34 0 5 -10
21 -21 36 l-21 27 21 23 c13 14 19 29 15 40 -4 10 0 22 9 29 9 7 17 26 19 42
2 17 8 34 13 38 6 6 6 10 -2 14 -8 3 -11 14 -7 29 4 16 2 24 -7 25 -8 0 -5 4
7 9 16 6 23 24 34 79 7 39 16 71 19 71 3 0 4 25 3 56 -3 44 -1 55 9 49 8 -6
11 -4 7 6 -6 15 7 148 17 180 16 49 16 -1 1 -148z m1274 147 c0 -5 -11 -10
-24 -10 -14 0 -28 5 -31 10 -4 6 7 10 24 10 17 0 31 -4 31 -10z m902 -22 c-7
-7 -12 -8 -12 -2 0 14 12 26 19 19 2 -3 -1 -11 -7 -17z m37 -71 c1 -5 -4 -5
-11 -1 -7 4 -8 3 -4 -5 4 -6 3 -18 -4 -26 -8 -10 -8 -19 -1 -34 7 -12 7 -22 2
-25 -5 -4 -15 11 -22 31 -6 21 -18 42 -25 46 -18 10 -18 28 -1 21 7 -2 22 5
32 16 18 20 20 20 26 3 4 -10 8 -22 8 -26z m-1155 7 c3 -8 2 -12 -4 -9 -6 3
-10 10 -10 16 0 14 7 11 14 -7z m46 -21 c0 -14 -34 -43 -49 -42 -9 0 -11 3 -4
5 7 3 9 13 6 21 -5 12 -2 15 10 10 9 -3 17 -2 17 3 0 6 5 10 10 10 6 0 10 -3
10 -7z m305 -29 c19 -45 19 -44 -4 -44 -11 0 -23 -9 -26 -20 -7 -21 -43 -46
-53 -36 -3 3 -1 6 5 6 6 0 14 12 18 28 3 15 14 35 22 44 12 13 13 21 4 31 -11
14 -6 27 11 27 4 0 15 -16 23 -36z m-455 -43 c0 -5 -10 -11 -22 -14 -22 -6
-22 -6 -4 8 23 17 26 18 26 6z m126 0 c-4 -5 0 -11 6 -14 10 -3 9 -9 -3 -21
-14 -16 -16 -15 -16 14 0 16 4 30 9 30 5 0 7 -4 4 -9z m234 -12 c0 -5 -7 -9
-15 -9 -9 0 -12 6 -9 15 6 15 24 11 24 -6z m-292 -16 c-8 -10 -20 -27 -26 -38
-10 -17 -11 -18 -12 -2 0 9 9 26 20 37 25 25 39 27 18 3z m427 7 c3 -6 -1 -13
-10 -16 -19 -8 -30 0 -20 15 8 14 22 14 30 1z m-276 -58 c-12 -5 -39 17 -39
30 0 5 11 1 24 -9 13 -10 20 -20 15 -21z m-889 24 c0 -11 -19 -15 -25 -6 -3 5
1 10 9 10 9 0 16 -2 16 -4z m627 -18 c-3 -8 -6 -5 -6 6 -1 11 2 17 5 13 3 -3
4 -12 1 -19z m553 6 c0 -8 -4 -12 -10 -9 -5 3 -10 10 -10 16 0 5 5 9 10 9 6 0
10 -7 10 -16z m-1155 -4 c-3 -5 -11 -10 -16 -10 -6 0 -7 5 -4 10 3 6 11 10 16
10 6 0 7 -4 4 -10z m75 0 c0 -5 -5 -10 -11 -10 -5 0 -7 5 -4 10 3 6 8 10 11
10 2 0 4 -4 4 -10z m1854 -9 c3 -4 -6 -6 -19 -3 -14 2 -25 6 -25 8 0 8 39 4
44 -5z m376 -31 c0 -5 -4 -10 -10 -10 -5 0 -10 5 -10 10 0 6 5 10 10 10 6 0
10 -4 10 -10z m-2190 -132 c-1 -27 -2 -30 -11 -15 -5 9 -18 17 -27 17 -15 1
-15 2 2 15 29 22 36 19 36 -17z m30 22 c0 -5 -4 -10 -10 -10 -5 0 -10 5 -10
10 0 6 5 10 10 10 6 0 10 -4 10 -10z m-28 -103 c-13 -6 -26 -23 -29 -39 -3
-16 -9 -30 -13 -33 -7 -5 -35 45 -32 58 1 4 -4 7 -10 7 -10 0 -10 2 0 9 7 4
34 8 60 8 41 1 44 -1 24 -10z m8 -207 c0 -5 -9 -10 -21 -10 -11 0 -18 -4 -15
-9 6 -9 -23 -25 -31 -17 -3 2 0 14 7 25 11 21 60 30 60 11z m-10 -166 c0 -15
-6 -24 -15 -24 -8 0 -15 7 -15 15 0 20 -10 19 -25 -2 -18 -24 -45 -10 -39 21
3 19 0 26 -11 26 -8 0 -15 7 -15 14 0 11 14 16 48 18 41 3 49 0 60 -21 6 -13
12 -34 12 -47z m-505 15 c11 -17 -1 -21 -15 -4 -8 9 -8 15 -2 15 6 0 14 -5 17
-11z m2695 -13 c0 -2 -7 -6 -15 -10 -8 -3 -15 -1 -15 4 0 6 7 10 15 10 8 0 15
-2 15 -4z m147 -43 c-3 -10 -5 -4 -5 12 0 17 2 24 5 18 2 -7 2 -21 0 -30z
m-2847 -53 c0 -5 -2 -10 -4 -10 -3 0 -8 5 -11 10 -3 6 -1 10 4 10 6 0 11 -4
11 -10z m2864 -15 c-4 -8 -1 -15 6 -15 8 0 10 -9 6 -25 -4 -14 -3 -25 1 -25 9
0 11 -125 2 -135 -4 -3 -10 34 -14 82 -3 48 -9 98 -12 111 -3 12 0 22 6 22 6
0 8 -7 5 -15z m-2893 -39 c0 -6 5 -2 10 9 21 44 0 -209 -56 -685 -14 -117 -25
-231 -25 -251 0 -37 0 -38 -40 -37 l-40 0 6 42 c3 22 8 47 10 55 2 7 7 50 10
95 6 82 14 116 14 58 0 -17 5 -34 10 -37 13 -8 13 16 -1 71 -9 33 -9 48 1 59
6 8 9 18 7 22 -3 5 5 101 18 213 13 113 26 248 30 300 4 52 9 98 11 102 7 10
34 -2 35 -16z m539 0 c0 -11 -19 -15 -25 -6 -3 5 1 10 9 10 9 0 16 -2 16 -4z
m2247 -58 c-3 -7 -5 -2 -5 12 0 14 2 19 5 13 2 -7 2 -19 0 -25z m-35 -3 c2 3
11 -11 18 -30 8 -19 17 -35 22 -35 13 0 9 -38 -6 -53 -21 -21 -25 -62 -5 -61
13 1 18 -13 23 -75 8 -90 30 -294 51 -480 14 -126 13 -161 -3 -134 -5 7 -11 7
-20 -3 -11 -12 -9 -14 13 -14 14 0 25 -4 25 -10 0 -5 -16 -10 -35 -10 -23 0
-35 4 -34 13 2 6 -1 44 -4 82 -23 224 -77 800 -77 818 1 20 2 21 14 5 7 -10
15 -16 18 -13z m189 -216 c3 -52 6 -86 7 -76 3 27 22 20 22 -9 0 -14 -4 -23
-9 -20 -10 7 -21 -17 -20 -42 1 -10 4 -6 8 8 5 15 11 -33 16 -125 5 -82 9
-157 10 -165 1 -8 2 -34 3 -58 1 -26 6 -41 12 -37 5 3 7 0 4 -9 -4 -9 2 -16
18 -19 21 -4 21 -4 -4 -6 -33 -1 -31 -12 -63 294 -41 383 -40 368 -24 363 10
-3 16 -30 20 -99z m-2894 -1 c-3 -7 -5 -2 -5 12 0 14 2 19 5 13 2 -7 2 -19 0
-25z m2916 -18 c3 -11 1 -20 -4 -20 -5 0 -9 9 -9 20 0 11 2 20 4 20 2 0 6 -9
9 -20z m-2926 -102 c-3 -8 -6 -5 -6 6 -1 11 2 17 5 13 3 -3 4 -12 1 -19z m-34
-225 c-4 -9 -2 -14 3 -10 10 6 3 -96 -16 -233 -8 -61 -8 -60 -4 25 5 93 12
214 13 228 1 4 3 7 6 7 2 0 1 -7 -2 -17z m3041 -232 c3 -5 -10 -9 -29 -8 -19
1 -35 5 -35 9 0 11 57 10 64 -1z"/>
<path d="M4116 3042 c-2 -4 -1 -14 5 -22 7 -12 9 -10 9 8 0 23 -5 28 -14 14z"/>
<path d="M4164 3031 c4 -5 1 -12 -4 -14 -6 -3 -5 -4 2 -3 15 3 23 26 8 26 -6
0 -9 -4 -6 -9z"/>
<path d="M4228 2993 c7 -3 16 -2 19 1 4 3 -2 6 -13 5 -11 0 -14 -3 -6 -6z"/>
<path d="M3978 2953 c7 -3 16 -2 19 1 4 3 -2 6 -13 5 -11 0 -14 -3 -6 -6z"/>
<path d="M4285 2950 c3 -5 10 -10 16 -10 5 0 9 5 9 10 0 6 -7 10 -16 10 -8 0
-12 -4 -9 -10z"/>
<path d="M5210 3030 c0 -11 4 -20 9 -20 6 0 9 9 8 20 -1 11 -5 20 -9 20 -4 0
-8 -9 -8 -20z"/>
<path d="M5260 3020 c0 -5 5 -10 11 -10 5 0 7 5 4 10 -3 6 -8 10 -11 10 -2 0
-4 -4 -4 -10z"/>
<path d="M5408 2973 c-24 -6 -23 -33 2 -33 14 0 18 5 13 17 -5 12 -3 14 7 8 9
-5 11 -4 6 3 -4 7 -8 11 -9 11 -1 -1 -10 -3 -19 -6z"/>
<path d="M5452 2960 c0 -14 2 -19 5 -12 2 6 2 18 0 25 -3 6 -5 1 -5 -13z"/>
<path d="M5070 2955 c0 -16 16 -20 24 -6 3 5 -1 11 -9 15 -9 3 -15 0 -15 -9z"/>
<path d="M5428 2923 c7 -3 16 -2 19 1 4 3 -2 6 -13 5 -11 0 -14 -3 -6 -6z"/>
<path d="M3190 95 c0 -25 14 -34 24 -16 8 12 -3 41 -15 41 -5 0 -9 -11 -9 -25z"/>
<path d="M6080 820 c0 -5 5 -10 11 -10 5 0 7 5 4 10 -3 6 -8 10 -11 10 -2 0
-4 -4 -4 -10z"/>
<path d="M2900 3071 c0 -5 5 -13 10 -16 6 -3 10 -2 10 4 0 5 -4 13 -10 16 -5
3 -10 2 -10 -4z"/>
<path d="M3045 3070 c-3 -5 -1 -10 4 -10 6 0 11 5 11 10 0 6 -2 10 -4 10 -3 0
-8 -4 -11 -10z"/>
<path d="M3070 3068 c0 -8 2 -9 63 -12 56 -3 45 12 -13 16 -28 1 -50 0 -50 -4z"/>
<path d="M3184 3071 c-12 -12 0 -18 34 -15 20 2 43 3 50 3 6 1 12 4 12 9 0 7
-88 10 -96 3z"/>
<path d="M7963 3073 c87 -2 227 -2 310 0 84 1 13 3 -158 3 -170 0 -239 -2
-152 -3z"/>
<path d="M8573 3073 c26 -2 67 -2 90 0 23 2 2 3 -48 3 -49 0 -68 -1 -42 -3z"/>
<path d="M2930 3066 c0 -2 16 -6 35 -8 19 -2 35 0 35 4 0 4 -16 8 -35 8 -19 0
-35 -2 -35 -4z"/>
<path d="M3015 3060 c3 -5 8 -10 11 -10 2 0 4 5 4 10 0 6 -5 10 -11 10 -5 0
-7 -4 -4 -10z"/>
<path d="M6180 3059 c0 -5 30 -9 67 -9 36 0 64 3 61 6 -10 10 -128 13 -128 3z"/>
<path d="M6428 3053 c12 -2 30 -2 40 0 9 3 -1 5 -23 4 -22 0 -30 -2 -17 -4z"/>
<path d="M2920 3030 c0 -5 5 -10 10 -10 6 0 10 5 10 10 0 6 -4 10 -10 10 -5 0
-10 -4 -10 -10z"/>
<path d="M2950 3026 c0 -10 8 -13 21 -11 26 5 35 13 25 22 -4 4 -11 1 -16 -7
-7 -10 -10 -11 -10 -2 0 6 -4 12 -10 12 -5 0 -10 -6 -10 -14z"/>
<path d="M3010 3024 c0 -8 5 -12 10 -9 6 3 10 10 10 16 0 5 -4 9 -10 9 -5 0
-10 -7 -10 -16z"/>
<path d="M3042 3030 c6 -18 30 -20 34 -2 1 7 0 8 -3 2 -3 -7 -10 -7 -21 2 -13
11 -14 11 -10 -2z"/>
<path d="M3130 3031 c0 -5 5 -13 10 -16 6 -3 10 -2 10 4 0 5 -4 13 -10 16 -5
3 -10 2 -10 -4z"/>
<path d="M3187 3028 c-4 -13 -1 -16 15 -13 25 5 34 13 24 22 -4 4 -11 1 -15
-6 -7 -11 -9 -11 -13 0 -3 9 -6 9 -11 -3z"/>
<path d="M3240 3030 c0 -5 5 -10 10 -10 6 0 10 5 10 10 0 6 -4 10 -10 10 -5 0
-10 -4 -10 -10z"/>
<path d="M6130 3031 c0 -6 4 -12 8 -15 5 -3 9 1 9 9 0 8 -4 15 -9 15 -4 0 -8
-4 -8 -9z"/>
<path d="M6160 3025 c0 -8 2 -15 4 -15 2 0 6 7 10 15 3 8 1 15 -4 15 -6 0 -10
-7 -10 -15z"/>
<path d="M6186 3024 c-6 -15 -4 -15 10 -3 13 11 18 11 21 2 6 -18 20 -16 20 2
0 21 -43 19 -51 -1z"/>
<path d="M6250 3025 c0 -8 4 -15 10 -15 5 0 7 7 4 15 -4 8 -8 15 -10 15 -2 0
-4 -7 -4 -15z"/>
<path d="M6276 3025 c5 -11 19 -15 51 -13 24 1 46 5 49 9 2 4 19 2 37 -6 32
-13 72 -6 48 9 -6 4 -11 2 -11 -5 0 -8 -4 -8 -15 1 -8 7 -15 9 -15 6 0 -4 -9
-2 -19 4 -11 6 -22 6 -25 1 -7 -11 -76 -9 -93 2 -9 6 -11 3 -7 -8z"/>
<path d="M310 2928 c0 -3 8 -9 18 -12 18 -6 48 -46 33 -46 -4 0 -20 9 -34 20
-29 23 -49 26 -41 6 3 -8 1 -24 -5 -35 -9 -16 -8 -22 8 -30 10 -6 22 -7 26 -3
5 4 5 2 1 -5 -4 -7 3 -17 16 -24 13 -7 37 -23 55 -36 29 -22 31 -27 21 -54
-12 -35 -16 -35 -99 22 -33 22 -63 39 -65 36 -3 -2 26 -25 65 -50 38 -26 72
-50 75 -55 2 -4 -42 -138 -100 -297 -60 -166 -102 -296 -98 -307 3 -10 1 -18
-4 -18 -5 0 -7 -11 -5 -24 6 -31 -15 -98 -29 -90 -6 4 -8 -1 -4 -12 3 -11 1
-26 -4 -34 -5 -9 -5 -19 2 -27 8 -10 6 -13 -9 -13 -16 0 -19 5 -15 30 6 40 -5
38 -17 -2 -5 -18 -30 -91 -55 -162 l-46 -129 0 -205 0 -205 71 5 c68 5 70 5
65 -16 -20 -70 -28 -63 83 -65 118 -2 102 -19 167 171 197 577 296 864 335
973 139 396 200 591 194 622 l-6 33 146 0 c148 0 166 -5 133 -39 -11 -10 -9
-15 7 -27 11 -9 19 -20 18 -25 -2 -5 2 -8 9 -6 7 1 17 -8 23 -21 5 -12 15 -20
21 -18 6 2 16 0 21 -5 11 -11 5 -56 -8 -64 -4 -3 -31 15 -59 40 -28 25 -56 45
-63 45 -7 -1 -3 -8 9 -18 11 -9 41 -35 66 -57 l46 -40 -125 -430 c-68 -236
-164 -565 -214 -730 -49 -165 -89 -303 -89 -307 0 -5 37 -8 81 -8 l81 0 -5
-27 c-3 -16 -9 -36 -12 -45 -6 -16 0 -17 64 -14 71 4 76 2 65 -28 -6 -14 -65
-16 -565 -16 -531 0 -559 -1 -559 -18 0 -16 11 -18 99 -18 81 0 98 3 89 13 -7
8 -7 13 0 13 5 0 12 -6 15 -13 3 -9 36 -13 126 -12 66 0 121 -3 121 -7 0 -4
-102 -9 -227 -11 -126 -1 20 -3 322 -3 303 0 525 2 495 5 -30 3 -50 9 -45 13
6 3 25 4 43 2 22 -2 35 1 38 11 7 17 34 21 34 5 0 -5 -4 -10 -9 -10 -5 0 -7
-8 -5 -18 4 -15 -50 -210 -235 -848 -23 -77 -41 -144 -41 -147 0 -4 22 -7 49
-7 l50 0 15 53 c8 28 36 133 61 232 26 99 55 209 65 245 10 36 42 154 71 263
l52 197 709 0 c604 0 708 2 708 14 0 8 3 21 6 30 6 15 -60 16 -700 16 -388 0
-706 3 -706 8 1 27 22 36 92 37 l72 1 10 39 c5 22 12 42 16 45 4 3 33 104 64
225 72 274 133 505 151 570 15 52 90 339 176 673 32 124 47 198 41 205 -5 7
-12 24 -16 40 l-6 27 -278 0 c-203 0 -281 3 -290 12 -7 7 -12 8 -12 2 0 -5 9
-17 20 -27 11 -9 20 -21 20 -27 0 -14 -6 -13 -25 7 -15 14 -41 17 -169 18 -83
0 -157 4 -164 8 -7 5 -108 8 -225 8 -116 0 -247 3 -289 7 -43 4 -78 4 -78 0z
m1249 -732 c8 -10 8 -16 -2 -24 -10 -8 -13 -5 -15 14 -2 28 1 30 17 10z m-207
-14 c-7 -2 -12 -10 -12 -18 0 -9 5 -12 12 -8 7 4 8 3 4 -5 -11 -17 -26 -3 -24
23 2 17 7 22 17 18 10 -4 11 -7 3 -10z m-852 -18 c7 -7 16 -11 21 -8 15 9 10
-5 -13 -36 -12 -17 -28 -30 -35 -30 -7 0 -13 -4 -13 -10 0 -5 5 -10 10 -10 6
0 10 -4 10 -9 0 -5 -15 -4 -35 2 -19 6 -35 14 -35 18 0 21 21 59 30 54 6 -3
10 4 10 17 0 28 32 35 50 12z m826 -66 c-15 -10 -16 -6 -9 22 6 22 7 22 13 4
4 -10 2 -22 -4 -26z m-951 1 c-4 -5 -16 -14 -28 -21 -19 -10 -20 -9 -10 4 7 8
9 19 5 23 -4 5 -1 5 6 1 6 -4 12 -2 12 4 0 6 5 8 10 5 6 -4 8 -11 5 -16z
m1055 -24 c28 -15 43 -55 20 -55 -5 0 -11 -8 -11 -17 -1 -16 -2 -16 -6 -2 -8
33 -78 39 -86 8 -5 -17 -11 -20 -30 -15 -21 5 -24 2 -24 -21 0 -16 -10 -34
-23 -45 -19 -16 -24 -16 -42 -4 -11 8 -27 12 -34 9 -10 -4 -12 0 -8 11 4 9 9
15 12 12 2 -3 13 6 24 19 11 14 29 25 41 25 18 0 19 2 7 10 -13 8 -11 13 10
34 26 25 99 48 86 27 -4 -7 -1 -9 7 -5 8 3 18 1 22 -5 3 -6 13 -11 22 -11 12
0 11 5 -7 20 -28 24 -20 26 20 5z m-1060 -62 c0 -16 3 -46 6 -68 5 -39 5 -40
-10 -15 -16 27 -19 110 -5 110 5 0 9 -12 9 -27z m157 -10 c-9 -8 -48 8 -42 18
4 5 14 5 26 -2 12 -6 18 -13 16 -16z m-207 13 c0 -2 -9 -6 -20 -9 -11 -3 -18
-1 -14 4 5 9 34 13 34 5z m1 -47 c-5 -13 -10 -19 -10 -12 -1 15 10 45 15 40 3
-2 0 -15 -5 -28z m-57 -4 c-4 -8 -16 -15 -28 -15 -20 0 -20 1 4 14 14 8 26 14
27 15 1 1 0 -6 -3 -14z m233 -5 c-1 -12 -5 -16 -10 -11 -5 5 -6 14 -3 20 11
16 15 13 13 -9z m879 -17 c-10 -10 -19 5 -10 18 6 11 8 11 12 0 2 -7 1 -15 -2
-18z m179 -33 c-3 -5 -12 -10 -18 -10 -7 0 -6 4 3 10 19 12 23 12 15 0z
m-1218 -34 c-6 -13 -17 -21 -24 -19 -10 4 -7 11 8 24 28 24 29 24 16 -5z m836
-11 c-3 -9 -8 -14 -10 -11 -3 3 -2 9 2 15 9 16 15 13 8 -4z m-946 -1 c-3 -3
-12 -4 -19 -1 -8 3 -5 6 6 6 11 1 17 -2 13 -5z m213 -13 c0 -4 -7 -8 -15 -8
-16 0 -20 9 -9 20 8 8 24 -1 24 -12z m-117 -138 c-13 -2 -35 -2 -50 0 -16 2
-5 4 22 4 28 0 40 -2 28 -4z m930 -45 c-8 -59 -13 -61 -13 -5 0 26 4 47 9 47
5 0 7 -19 4 -42z m86 26 c35 -7 37 -16 16 -58 -8 -15 -15 -35 -15 -42 0 -10
-12 -14 -38 -14 -34 0 -38 3 -40 28 -1 21 0 24 9 12 8 -11 9 -4 5 28 -4 29 -3
41 4 37 5 -3 10 -1 10 4 0 13 6 13 49 5z m64 -63 c-21 -39 -42 -66 -46 -62
-11 11 32 113 44 105 5 -3 12 2 15 10 3 9 10 16 15 16 5 0 -8 -31 -28 -69z
m-603 -623 c0 -4 -6 -8 -14 -8 -8 0 -17 4 -20 8 -2 4 4 8 15 8 10 0 19 -4 19
-8z m80 2 c0 -5 -2 -10 -4 -10 -3 0 -8 5 -11 10 -3 6 -1 10 4 10 6 0 11 -4 11
-10z m78 -4 c3 -3 -11 -6 -32 -6 -20 0 -35 4 -32 9 6 9 54 7 64 -3z m267 3
c-7 -11 -35 -12 -35 -1 0 4 9 8 20 9 11 1 18 -2 15 -8z m238 -1 c-2 -5 -53 -8
-114 -8 -60 0 -109 3 -109 8 0 4 51 7 114 7 63 0 112 -3 109 -7z m317 0 c0 -5
-62 -8 -137 -8 -76 0 -133 4 -126 8 15 9 263 9 263 0z m130 -4 c0 -2 -9 -4
-20 -4 -11 0 -20 4 -20 9 0 5 9 7 20 4 11 -3 20 -7 20 -9z m123 -1 c-7 -2 -19
-2 -25 0 -7 3 -2 5 12 5 14 0 19 -2 13 -5z m135 0 c-10 -2 -26 -2 -35 0 -10 3
-2 5 17 5 19 0 27 -2 18 -5z m-1098 -347 c0 -2 -7 -6 -15 -10 -8 -3 -15 -1
-15 4 0 6 7 10 15 10 8 0 15 -2 15 -4z"/>
<path d="M2120 2925 c0 -3 7 -13 15 -21 8 -9 15 -21 15 -27 0 -7 -7 -4 -14 6
-16 21 -48 23 -40 3 3 -8 1 -23 -5 -34 -8 -15 -5 -24 15 -43 13 -12 31 -45 39
-71 13 -45 12 -58 -10 -166 -61 -290 -85 -404 -99 -464 -8 -36 -31 -141 -51
-234 -20 -93 -61 -280 -91 -417 l-55 -247 -43 -45 c-23 -25 -49 -45 -56 -45
-11 -1 -10 -5 5 -15 30 -24 69 -14 73 18 2 16 9 27 19 27 9 0 13 6 9 15 -4 10
1 15 15 15 18 0 20 -4 14 -32 -4 -18 -8 -37 -9 -43 0 -6 48 -10 129 -10 l130
0 9 53 10 52 133 0 c82 0 133 -4 133 -10 0 -9 -167 -16 -225 -10 -11 1 -17 -1
-13 -5 4 -4 61 -9 126 -11 l119 -4 12 58 c6 31 45 239 86 462 41 223 90 488
109 590 19 102 49 262 66 355 35 182 42 248 29 239 -5 -3 -9 1 -9 10 0 8 3 16
8 19 4 2 1 2 -5 1 -7 -2 -13 3 -13 11 0 13 -40 15 -274 15 -151 0 -281 3 -290
6 -9 3 -16 3 -16 -1z m56 -775 c-8 -59 -15 -82 -25 -75 -4 2 -2 30 5 62 15 70
13 63 20 63 4 0 4 -23 0 -50z m398 -32 c-3 -5 -12 -1 -20 9 -20 26 -17 35 5
16 11 -9 18 -21 15 -25z m-409 -68 c3 -5 -2 -22 -12 -37 -12 -19 -14 -25 -4
-18 11 6 13 4 8 -8 -3 -9 -9 -39 -13 -67 -4 -27 -11 -50 -16 -50 -5 0 -6 -4
-3 -10 4 -6 -9 -10 -32 -9 -21 0 -32 3 -25 6 6 2 12 14 12 26 1 39 38 159 52
168 17 11 26 11 33 -1z m405 -19 c0 -12 -31 -51 -41 -51 -13 0 -11 44 2 57 11
11 39 7 39 -6z m-33 -83 c-2 -7 -12 -13 -22 -13 -10 0 -21 -8 -24 -17 -10 -28
-60 -78 -79 -78 -14 0 -12 5 9 23 15 12 36 39 48 60 17 27 29 37 48 37 15 0
23 -5 20 -12z m-127 -77 c0 -5 -7 -14 -15 -21 -16 -13 -45 -7 -45 9 0 6 6 8
14 5 8 -3 17 -1 21 5 8 13 25 15 25 2z m83 -18 c-7 -2 -19 -2 -25 0 -7 3 -2 5
12 5 14 0 19 -2 13 -5z"/>
<path d="M2536 2031 c-4 -7 -5 -15 -2 -18 9 -9 19 4 14 18 -4 11 -6 11 -12 0z"/>
<path d="M7245 2910 c-11 -4 -141 -5 -288 -2 -226 4 -267 3 -265 -9 2 -8 -3
-13 -10 -11 -9 2 -11 -4 -7 -18 4 -12 2 -27 -4 -34 -9 -10 3 -94 44 -327 31
-173 70 -390 86 -484 17 -93 41 -231 54 -305 13 -74 31 -175 40 -225 8 -49 25
-141 36 -202 l21 -112 136 -3 136 -3 9 -42 8 -43 139 0 139 0 -9 30 c-7 26 -6
30 10 30 13 0 22 -10 28 -32 8 -31 8 -32 74 -32 l66 -1 -5 30 c-3 17 -20 93
-38 170 -18 77 -40 174 -49 215 -9 41 -30 134 -47 205 -17 72 -37 159 -44 195
-14 66 -62 289 -134 617 -22 100 -45 202 -52 225 -15 58 -17 97 -5 102 6 2 4
5 -4 5 -8 1 -22 16 -30 35 -12 27 -19 32 -35 26z m56 -156 c10 -12 -27 -52
-38 -41 -3 4 -1 7 6 7 7 0 9 5 6 10 -3 6 -1 10 4 10 6 0 11 4 11 9 0 5 -8 8
-17 7 -14 -2 -17 -11 -16 -39 2 -22 -3 -40 -14 -48 -14 -12 -15 -10 -8 20 5
23 4 31 -4 27 -20 -12 -12 4 22 46 26 33 33 37 36 22 2 -11 7 -24 12 -30z m20
-136 c11 -40 23 -103 26 -140 3 -38 9 -68 13 -68 4 0 8 -10 8 -22 0 -48 23
-183 32 -192 6 -6 10 -26 10 -45 0 -49 18 -111 33 -111 7 0 6 -4 -3 -10 -8 -5
-10 -10 -4 -10 12 0 22 -51 27 -140 3 -46 41 -167 58 -185 5 -5 10 -29 10 -55
1 -28 3 -36 7 -20 3 17 10 -4 23 -65 24 -115 24 -154 2 -162 -10 -4 -21 -11
-24 -16 -4 -5 -10 1 -14 14 -4 13 -13 31 -19 39 -21 27 -82 257 -72 268 3 3 1
11 -5 18 -6 8 -9 20 -6 29 4 8 2 17 -2 20 -5 3 -12 28 -16 55 -6 40 -17 63
-54 108 -47 55 -72 112 -51 112 9 0 11 -5 10 -25 -1 -13 32 -65 40 -65 6 0 10
-6 10 -14 0 -7 7 -19 16 -27 13 -11 15 -9 10 12 -31 142 -37 181 -32 195 3 8
2 12 -4 9 -6 -3 -10 -3 -10 1 0 4 -23 121 -52 261 l-51 253 29 29 c16 16 30
28 32 26 2 -2 12 -36 23 -77z m-280 -480 c36 -16 62 -62 63 -114 0 -24 4 -44
8 -44 4 0 8 -7 8 -15 0 -8 -4 -15 -9 -15 -13 0 -21 27 -21 71 0 21 -4 39 -10
39 -5 0 -10 11 -10 25 0 17 -4 23 -15 19 -8 -4 -17 1 -21 10 -3 9 -10 13 -15
10 -5 -3 -9 0 -9 5 0 23 -16 9 -26 -21 -5 -18 -15 -32 -22 -30 -8 1 -12 -15
-11 -55 0 -32 3 -51 6 -43 3 8 14 25 25 37 13 14 19 32 16 55 -4 41 20 46 38
8 18 -39 33 -89 26 -88 -22 2 -33 -5 -47 -33 -9 -17 -14 -33 -11 -36 2 -3 1
-16 -4 -29 -8 -20 -6 -24 9 -24 14 0 18 5 14 20 -3 11 -1 20 5 20 11 0 25 -47
18 -59 -3 -4 -33 -8 -68 -8 -35 0 -51 1 -37 4 29 4 39 25 39 81 0 19 -5 31
-12 30 -6 -2 -17 8 -24 22 -16 32 -1 117 22 135 11 8 15 21 12 39 -5 26 -5 26
16 11 11 -9 33 -21 47 -27z m204 12 c-3 -5 -11 -10 -16 -10 -6 0 -7 5 -4 10 3
6 11 10 16 10 6 0 7 -4 4 -10z m1 -69 c-4 -6 -12 -8 -18 -5 -12 8 -3 -11 18
-36 14 -17 46 -120 37 -120 -3 0 -1 -6 5 -13 6 -7 15 -25 21 -40 9 -22 8 -27
-5 -27 -10 0 -14 6 -11 14 3 8 -4 25 -17 39 -12 13 -22 35 -21 47 1 13 -11 49
-28 81 -22 42 -28 65 -23 85 l7 27 21 -20 c11 -12 17 -26 14 -32z m-166 -160
c0 -16 5 -42 10 -57 8 -19 8 -30 0 -38 -7 -7 -10 -6 -10 2 0 6 -8 9 -17 6 -14
-5 -15 -4 -4 4 10 7 11 23 6 61 -5 34 -3 51 4 51 6 0 11 -13 11 -29z m-135
-40 c-3 -6 -11 -11 -17 -11 -6 0 -6 6 2 15 14 17 26 13 15 -4z m-45 -41 c0 -5
-6 -10 -14 -10 -8 0 -18 5 -21 10 -3 6 3 10 14 10 12 0 21 -4 21 -10z m610
-453 c0 -5 -4 -5 -10 -2 -5 3 -10 14 -10 23 0 15 2 15 10 2 5 -8 10 -19 10
-23z m10 -27 c0 -5 -4 -10 -10 -10 -5 0 -10 5 -10 10 0 6 5 10 10 10 6 0 10
-4 10 -10z m60 -61 c0 -5 -4 -9 -10 -9 -5 0 -10 7 -10 16 0 8 5 12 10 9 6 -3
10 -10 10 -16z"/>
<path d="M10 2900 c0 -5 5 -10 11 -10 5 0 7 5 4 10 -3 6 -8 10 -11 10 -2 0 -4
-4 -4 -10z"/>
<path d="M65 2900 c3 -5 8 -10 11 -10 2 0 4 5 4 10 0 6 -5 10 -11 10 -5 0 -7
-4 -4 -10z"/>
<path d="M90 2900 c0 -5 5 -10 10 -10 6 0 10 5 10 10 0 6 -4 10 -10 10 -5 0
-10 -4 -10 -10z"/>
<path d="M145 2900 c3 -5 8 -10 11 -10 2 0 4 5 4 10 0 6 -5 10 -11 10 -5 0 -7
-4 -4 -10z"/>
<path d="M170 2900 c0 -5 5 -10 10 -10 6 0 10 5 10 10 0 6 -4 10 -10 10 -5 0
-10 -4 -10 -10z"/>
<path d="M200 2900 c0 -5 5 -10 10 -10 6 0 10 5 10 10 0 6 -4 10 -10 10 -5 0
-10 -4 -10 -10z"/>
<path d="M230 2902 c0 -4 9 -8 20 -8 11 0 20 4 20 8 0 4 -9 8 -20 8 -11 0 -20
-4 -20 -8z"/>
<path d="M1820 2898 c0 -4 41 -8 92 -8 50 0 89 2 86 5 -8 9 -178 11 -178 3z"/>
<path d="M2755 2900 c-19 -8 -19 -9 3 -9 12 -1 22 4 22 9 0 6 -1 10 -2 9 -2 0
-12 -4 -23 -9z"/>
<path d="M2790 2898 c0 -5 26 -9 58 -10 42 -1 47 -2 20 -5 -21 -2 -38 -8 -38
-14 0 -5 -5 -9 -11 -9 -5 0 -8 4 -5 8 2 4 -7 9 -20 10 -15 1 -22 -2 -19 -8 3
-6 2 -10 -4 -10 -5 0 -12 5 -14 10 -3 6 -4 5 -3 -2 4 -18 153 -23 153 -6 0 7
2 20 4 28 3 11 -9 14 -58 15 -35 0 -63 -3 -63 -7z"/>
<path d="M7878 2902 c-181 -1 -288 -6 -288 -12 0 -6 -8 -10 -17 -10 -15 0 -16
-2 -3 -10 12 -7 12 -13 2 -32 -15 -27 -15 -25 46 -258 22 -85 62 -236 87 -335
25 -99 59 -229 75 -290 25 -98 166 -646 193 -750 5 -22 18 -47 28 -55 9 -8 19
-26 21 -40 3 -23 8 -25 63 -30 53 -4 60 -8 63 -28 l3 -23 -690 7 -691 7 0 -25
0 -26 698 -7 698 -7 42 -172 c122 -496 172 -707 172 -722 0 -10 -6 -14 -17
-11 -10 3 -52 2 -93 -2 l-75 -8 97 -2 96 -1 7 -30 c6 -29 9 -30 60 -30 l54 0
-9 31 -9 31 457 -5 457 -5 -459 12 -460 11 -8 35 c-5 19 -29 109 -54 200 -99
366 -175 658 -173 667 1 4 -2 19 -8 33 -30 73 -33 70 57 70 l81 0 -6 32 -6 33
82 -3 c80 -4 82 -4 92 -33 l11 -29 89 0 c84 0 88 1 83 20 -3 11 -9 30 -12 43
-3 12 -12 36 -19 52 -11 27 -31 94 -83 278 -9 31 -20 57 -25 57 -5 0 -6 -8 -2
-17 4 -10 11 -36 15 -58 4 -22 15 -58 25 -80 24 -54 27 -103 8 -114 -11 -6
-12 -10 -4 -15 6 -4 11 -14 11 -23 0 -12 -8 -14 -32 -10 -41 7 -106 25 -94 26
5 1 3 8 -4 16 -7 8 -28 72 -47 142 -19 71 -40 151 -48 178 -13 47 -88 315
-159 565 -18 63 -57 200 -86 303 l-53 189 44 39 c24 21 47 39 50 39 13 0 29
-50 44 -140 9 -52 23 -116 31 -142 8 -26 13 -51 12 -55 -1 -4 10 -34 25 -65
15 -31 27 -63 27 -70 0 -7 7 -22 15 -32 9 -12 15 -42 15 -79 0 -36 5 -64 14
-72 7 -8 16 -12 18 -9 8 7 26 -46 33 -98 3 -25 13 -52 20 -58 8 -7 15 -19 15
-28 0 -20 18 -80 36 -115 7 -15 11 -34 8 -42 -3 -8 1 -24 10 -37 9 -12 16 -32
16 -43 1 -11 8 -31 16 -45 l15 -25 -4 25 c-3 14 -37 131 -77 260 -39 129 -75
249 -80 265 -4 17 -20 71 -35 120 -15 50 -44 149 -65 220 -21 72 -48 162 -60
200 -12 39 -22 78 -22 87 0 9 -6 19 -14 22 -8 3 -13 2 -10 -3 3 -4 -19 -29
-49 -55 -30 -26 -55 -46 -55 -44 0 2 -4 18 -9 35 -9 30 -7 34 27 55 20 13 40
23 45 24 4 1 12 2 17 3 6 0 10 7 9 14 -1 6 1 20 5 29 4 9 3 25 -3 36 -8 15 -8
22 2 25 7 3 5 6 -5 6 -9 1 -21 7 -25 14 -6 9 -74 11 -295 9z m-7 -754 c1 -13
2 -33 2 -45 1 -13 7 -23 13 -23 7 0 17 -6 21 -14 4 -7 15 -16 23 -19 11 -4 10
-6 -5 -6 -17 -1 -17 -3 -5 -11 11 -7 7 -10 -18 -10 -22 0 -31 4 -26 11 5 9 -1
10 -20 5 -41 -10 -66 9 -66 51 0 59 78 117 81 61z m286 -40 c-3 -8 -6 -5 -6 6
-1 11 2 17 5 13 3 -3 4 -12 1 -19z m-67 -38 c0 -5 -11 -12 -25 -16 -25 -6 -25
-7 -8 -27 18 -19 18 -20 -4 -8 -28 14 -29 29 -5 47 20 16 42 18 42 4z m-165
-157 c3 -27 10 -58 15 -70 7 -17 6 -21 -5 -16 -8 3 -15 1 -15 -4 0 -4 -21 -6
-47 -4 l-48 4 45 11 c30 7 46 17 48 29 5 26 -16 47 -49 47 -16 0 -29 5 -29 10
0 6 11 10 25 10 14 0 28 7 31 15 11 28 23 15 29 -32z m82 19 c-9 -2 -14 -8
-11 -14 4 -7 2 -8 -5 -4 -9 6 -9 11 0 22 6 7 16 11 23 7 7 -5 5 -9 -7 -11z
m-17 -37 c10 -13 9 -15 -11 -14 -13 0 -18 3 -11 6 6 2 10 9 6 14 -9 15 2 10
16 -6z m220 -45 c12 -8 10 -10 -10 -11 l-25 -1 25 -8 c18 -6 20 -8 7 -9 -10
-1 -28 4 -39 10 -17 9 -18 13 -7 20 18 11 30 11 49 -1z m-130 -17 c0 -5 -11
-9 -25 -9 -14 -1 -22 2 -19 7 6 11 44 12 44 2z m45 -3 c3 -5 -1 -10 -9 -10 -8
0 -18 5 -21 10 -3 6 1 10 9 10 8 0 18 -4 21 -10z m205 -6 c0 -2 -14 -4 -31 -4
-16 0 -28 4 -25 9 5 8 56 3 56 -5z m-212 -199 l0 -50 -9 40 c-4 22 -8 58 -7
80 0 38 1 39 8 10 4 -16 8 -52 8 -80z m-21 -31 c-1 -1 -15 -5 -32 -8 -28 -6
-31 -4 -53 45 -13 28 -22 53 -19 55 2 2 23 5 45 7 23 1 43 7 43 12 1 6 5 -17
9 -50 5 -33 7 -61 7 -61z m-127 71 c0 6 5 3 10 -5 5 -8 7 -23 4 -34 -4 -12 -2
-16 5 -12 7 5 11 -3 11 -21 l0 -28 -20 30 c-10 17 -26 48 -35 70 l-16 40 20
-25 c11 -14 21 -20 21 -15z m717 -517 c-3 -8 -6 -5 -6 6 -1 11 2 17 5 13 3 -3
4 -12 1 -19z m-527 -149 c0 -5 -30 -8 -67 -7 -60 1 -62 2 -18 5 28 2 54 8 59
13 10 10 26 4 26 -11z m-1113 5 c-3 -3 -12 -4 -19 -1 -8 3 -5 6 6 6 11 1 17
-2 13 -5z m762 -9 c2 -3 -62 -5 -142 -5 -81 0 -147 3 -147 8 0 8 281 5 289 -3z
m64 -2 c-7 -2 -21 -2 -30 0 -10 3 -4 5 12 5 17 0 24 -2 18 -5z m70 0 c-7 -2
-21 -2 -30 0 -10 3 -4 5 12 5 17 0 24 -2 18 -5z m394 -455 c-3 -7 -5 -2 -5 12
0 14 2 19 5 13 2 -7 2 -19 0 -25z m33 -93 c0 -8 -2 -15 -4 -15 -2 0 -6 7 -10
15 -3 8 -1 15 4 15 6 0 10 -7 10 -15z"/>
<path d="M7830 2131 c-14 -27 -13 -68 3 -74 8 -3 12 9 12 44 0 27 -1 49 -2 49
-1 0 -7 -9 -13 -19z"/>
<path d="M8788 2903 c-181 -2 -288 -7 -288 -13 0 -6 -8 -10 -17 -10 -15 0 -16
-2 -3 -10 12 -7 12 -12 0 -34 -12 -24 -2 -58 128 -448 77 -233 208 -623 291
-868 83 -244 151 -446 151 -447 0 -2 50 -3 110 -3 l111 0 -15 29 c-9 16 -13
31 -10 33 2 3 38 3 80 0 l75 -5 -3 209 c-3 196 -4 212 -27 259 -13 28 -34 82
-47 120 -12 39 -66 192 -119 340 -53 149 -114 322 -136 385 -22 63 -45 125
-50 138 -16 41 -9 56 46 95 60 41 85 47 85 18 0 -10 7 -24 15 -31 8 -7 15 -19
15 -28 0 -8 3 -13 6 -9 8 8 -37 117 -48 117 -5 0 -6 5 -3 10 3 6 1 10 -4 10
-6 0 -11 8 -12 18 0 9 -3 12 -5 5 -3 -7 0 -21 5 -32 8 -14 8 -22 0 -27 -14 -8
-25 4 -33 37 -4 21 -1 28 19 37 l24 11 -24 45 c-13 24 -21 47 -18 50 4 3 2 5
-3 4 -5 -2 -138 -4 -296 -5z m292 -27 c0 -2 -7 -7 -16 -10 -8 -3 -12 -2 -9 4
6 10 25 14 25 6z m1 -135 l17 -29 -44 -31 c-52 -36 -60 -38 -67 -11 -3 13 0
20 9 20 8 0 14 4 14 10 0 5 -7 7 -15 4 -28 -11 -15 11 23 38 20 14 39 27 42
27 3 1 12 -12 21 -28z m-351 -551 c0 -5 6 -10 14 -10 15 0 30 -29 21 -39 -8
-7 -40 13 -40 25 0 5 -4 15 -8 22 -5 7 -4 12 2 12 6 0 11 -4 11 -10z m368
-143 c4 -30 -13 -67 -31 -67 -7 0 -29 11 -50 25 -38 26 -49 55 -21 55 8 0 12
-5 9 -11 -7 -11 22 -38 42 -39 13 0 34 55 25 66 -4 3 0 5 8 2 8 -2 16 -16 18
-31z m-291 -38 c6 -6 9 -17 7 -24 -3 -7 8 -20 25 -28 34 -17 36 -15 21 14 -6
10 -7 19 -3 19 11 0 49 -59 45 -72 -1 -5 1 -15 6 -22 5 -6 12 -23 16 -37 5
-23 2 -27 -19 -32 -23 -4 -24 -3 -11 12 21 24 4 56 -46 87 -50 30 -68 51 -68
76 0 20 11 23 27 7z m340 -5 c-3 -3 -12 -4 -19 -1 -8 3 -5 6 6 6 11 1 17 -2
13 -5z m-115 -82 c-2 -13 2 -29 8 -37 7 -8 7 -15 1 -19 -12 -8 -16 -1 -29 47
-9 34 -9 38 6 35 11 -2 16 -11 14 -26z m143 -102 c-3 -5 -14 -10 -23 -10 -12
0 -13 3 -5 11 6 6 9 19 5 28 -5 14 -4 14 12 -1 9 -10 14 -22 11 -28z"/>
<path d="M9050 2740 c0 -5 5 -10 10 -10 6 0 10 5 10 10 0 6 -4 10 -10 10 -5 0
-10 -4 -10 -10z"/>
<path d="M9020 2725 c0 -5 5 -17 10 -25 5 -8 10 -10 10 -5 0 6 -5 17 -10 25
-5 8 -10 11 -10 5z"/>
<path d="M2028 2893 c12 -2 30 -2 40 0 9 3 -1 5 -23 4 -22 0 -30 -2 -17 -4z"/>
<path d="M4070 2890 c0 -5 5 -10 11 -10 5 0 7 5 4 10 -3 6 -8 10 -11 10 -2 0
-4 -4 -4 -10z"/>
<path d="M5180 2890 c0 -5 5 -10 11 -10 5 0 7 5 4 10 -3 6 -8 10 -11 10 -2 0
-4 -4 -4 -10z"/>
<path d="M6480 2881 c0 -4 23 -8 51 -10 31 -1 48 2 45 8 -7 11 -96 13 -96 2z"/>
<path d="M6610 2880 c0 -5 5 -10 10 -10 6 0 10 5 10 10 0 6 -4 10 -10 10 -5 0
-10 -4 -10 -10z"/>
<path d="M6640 2879 c0 -5 5 -7 10 -4 6 3 10 8 10 11 0 2 -4 4 -10 4 -5 0 -10
-5 -10 -11z"/>
<path d="M7320 2878 c0 -4 9 -8 20 -8 11 0 20 4 20 8 0 4 -9 8 -20 8 -11 0
-20 -4 -20 -8z"/>
<path d="M7385 2880 c-18 -8 -17 -9 8 -9 16 -1 26 3 22 9 -3 6 -7 10 -8 9 -1
0 -11 -4 -22 -9z"/>
<path d="M7445 2880 c-19 -8 -19 -9 3 -9 12 -1 22 4 22 9 0 6 -1 10 -2 9 -2 0
-12 -4 -23 -9z"/>
<path d="M60 2870 c0 -5 5 -10 11 -10 5 0 7 5 4 10 -3 6 -8 10 -11 10 -2 0 -4
-4 -4 -10z"/>
<path d="M175 2870 c-3 -5 -1 -10 4 -10 6 0 11 5 11 10 0 6 -2 10 -4 10 -3 0
-8 -4 -11 -10z"/>
<path d="M980 2871 c0 -7 -7 -11 -15 -8 -8 4 -17 1 -21 -6 -4 -7 -4 -9 1 -5 4
4 14 3 20 -2 9 -8 15 -6 19 6 4 9 4 19 1 22 -3 3 -5 0 -5 -7z"/>
<path d="M1846 2863 c-6 -14 -5 -15 5 -6 7 7 10 15 7 18 -3 3 -9 -2 -12 -12z"/>
<path d="M1906 2863 c-6 -14 -5 -15 5 -6 7 7 10 15 7 18 -3 3 -9 -2 -12 -12z"/>
<path d="M1933 2867 c0 -8 6 -14 14 -14 9 0 10 4 2 14 -6 7 -12 13 -14 13 -1
0 -2 -6 -2 -13z"/>
<path d="M8268 2873 c12 -2 30 -2 40 0 9 3 -1 5 -23 4 -22 0 -30 -2 -17 -4z"/>
<path d="M8428 2873 c6 -2 18 -2 25 0 6 3 1 5 -13 5 -14 0 -19 -2 -12 -5z"/>
<path d="M9275 2870 c-3 -5 -1 -10 4 -10 6 0 11 5 11 10 0 6 -2 10 -4 10 -3 0
-8 -4 -11 -10z"/>
<path d="M9335 2870 c-3 -5 -1 -10 4 -10 6 0 11 5 11 10 0 6 -2 10 -4 10 -3 0
-8 -4 -11 -10z"/>
<path d="M9360 2870 c0 -5 5 -10 11 -10 5 0 7 5 4 10 -3 6 -8 10 -11 10 -2 0
-4 -4 -4 -10z"/>
<path d="M1016 2858 c3 -5 10 -6 15 -3 13 9 11 12 -6 12 -8 0 -12 -4 -9 -9z"/>
<path d="M1055 2860 c-2 -3 5 -6 15 -7 11 -1 22 2 24 5 3 4 -4 8 -15 8 -11 0
-22 -3 -24 -6z"/>
<path d="M1116 2862 c-3 -5 1 -9 9 -9 8 0 12 4 9 9 -3 4 -7 8 -9 8 -2 0 -6 -4
-9 -8z"/>
<path d="M1996 2860 c3 -3 21 -5 40 -6 19 0 32 2 29 5 -3 2 -21 5 -40 6 -18 0
-32 -2 -29 -5z"/>
<path d="M0 2836 c0 -31 6 -34 13 -6 3 11 1 23 -4 26 -5 3 -9 -6 -9 -20z"/>
<path d="M6487 2846 c-4 -9 2 -13 16 -12 11 1 22 8 24 16 4 13 3 13 -6 0 -7
-10 -11 -11 -11 -2 0 16 -17 15 -23 -2z"/>
<path d="M6543 2845 c0 -8 4 -12 9 -9 4 3 8 9 8 15 0 5 -4 9 -8 9 -5 0 -9 -7
-9 -15z"/>
<path d="M6570 2850 c0 -5 5 -10 10 -10 6 0 10 5 10 10 0 6 -4 10 -10 10 -5 0
-10 -4 -10 -10z"/>
<path d="M6600 2849 c0 -5 5 -7 10 -4 6 3 10 8 10 11 0 2 -4 4 -10 4 -5 0 -10
-5 -10 -11z"/>
<path d="M7330 2850 c0 -5 5 -10 11 -10 5 0 7 5 4 10 -3 6 -8 10 -11 10 -2 0
-4 -4 -4 -10z"/>
<path d="M7360 2851 c0 -6 4 -13 10 -16 6 -3 7 1 4 9 -7 18 -14 21 -14 7z"/>
<path d="M7445 2850 c-3 -5 -1 -10 4 -10 6 0 11 5 11 10 0 6 -2 10 -4 10 -3 0
-8 -4 -11 -10z"/>
<path d="M9386 2814 c3 -35 14 -43 14 -11 0 14 -4 28 -9 31 -4 3 -7 -6 -5 -20z"/>
<path d="M1231 2764 c0 -11 3 -14 6 -6 3 7 2 16 -1 19 -3 4 -6 -2 -5 -13z"/>
<path d="M2073 2764 c-4 -10 8 -30 33 -55 49 -50 58 -42 10 11 -20 23 -34 45
-31 50 4 6 4 10 0 10 -3 0 -8 -7 -12 -16z"/>
<path d="M6105 2767 c-4 -10 -5 -21 -1 -24 10 -10 18 4 13 24 -4 17 -4 17 -12
0z"/>
<path d="M1848 2763 c7 -3 16 -2 19 1 4 3 -2 6 -13 5 -11 0 -14 -3 -6 -6z"/>
<path d="M2798 2763 c17 -2 47 -2 65 0 17 2 3 4 -33 4 -36 0 -50 -2 -32 -4z"/>
<path d="M6503 2753 c9 -2 23 -2 30 0 6 3 -1 5 -18 5 -16 0 -22 -2 -12 -5z"/>
<path d="M380 2730 c0 -5 5 -10 10 -10 6 0 10 5 10 10 0 6 -4 10 -10 10 -5 0
-10 -4 -10 -10z"/>
<path d="M1265 2731 c-3 -5 -1 -12 5 -16 5 -3 10 1 10 9 0 18 -6 21 -15 7z"/>
<path d="M8110 2710 c0 -5 5 -10 11 -10 5 0 7 5 4 10 -3 6 -8 10 -11 10 -2 0
-4 -4 -4 -10z"/>
<path d="M2031 2594 c0 -11 3 -14 6 -6 3 7 2 16 -1 19 -3 4 -6 -2 -5 -13z"/>
<path d="M9190 2596 c0 -8 4 -17 9 -20 5 -4 7 3 4 14 -6 23 -13 26 -13 6z"/>
<path d="M1101 2564 c0 -11 3 -14 6 -6 3 7 2 16 -1 19 -3 4 -6 -2 -5 -13z"/>
<path d="M9211 2550 c0 -8 4 -22 9 -30 12 -18 12 -2 0 25 -6 13 -9 15 -9 5z"/>
<path d="M9230 2488 c0 -9 5 -20 10 -23 13 -8 13 5 0 25 -8 13 -10 13 -10 -2z"/>
<path d="M9250 2438 c0 -9 5 -20 10 -23 13 -8 13 5 0 25 -8 13 -10 13 -10 -2z"/>
<path d="M9280 2365 c0 -5 5 -17 10 -25 5 -8 10 -10 10 -5 0 6 -5 17 -10 25
-5 8 -10 11 -10 5z"/>
<path d="M9296 2303 c-6 -14 -5 -15 5 -6 7 7 10 15 7 18 -3 3 -9 -2 -12 -12z"/>
<path d="M1951 2244 c0 -11 3 -14 6 -6 3 7 2 16 -1 19 -3 4 -6 -2 -5 -13z"/>
<path d="M9335 2225 c4 -11 9 -31 12 -45 6 -34 13 -39 13 -9 -1 13 -8 35 -16
49 -11 17 -13 19 -9 5z"/>
<path d="M136 1965 c-3 -8 -1 -15 4 -15 6 0 10 7 10 15 0 8 -2 15 -4 15 -2 0
-6 -7 -10 -15z"/>
<path d="M6242 1930 c0 -19 2 -27 5 -17 2 9 2 25 0 35 -3 9 -5 1 -5 -18z"/>
<path d="M1881 1924 c0 -11 3 -14 6 -6 3 7 2 16 -1 19 -3 4 -6 -2 -5 -13z"/>
<path d="M6249 1855 c-7 -74 -6 -114 2 -109 5 3 9 -28 9 -68 0 -41 5 -79 11
-85 5 -5 11 -42 12 -82 1 -39 6 -71 11 -71 4 0 6 -6 3 -14 -6 -14 6 -111 22
-181 18 -79 11 10 -24 308 -39 330 -41 346 -46 302z"/>
<path d="M3888 1673 c7 -3 16 -2 19 1 4 3 -2 6 -13 5 -11 0 -14 -3 -6 -6z"/>
<path d="M3182 1630 c0 -19 2 -27 5 -17 2 9 2 25 0 35 -3 9 -5 1 -5 -18z"/>
<path d="M4260 1583 c0 -107 -37 -1147 -46 -1299 -6 -86 -4 -102 10 -117 11
-10 17 -33 18 -59 0 -57 11 -72 19 -28 l6 35 2 -35 c1 -19 5 -41 10 -49 11
-16 14 40 42 628 13 282 17 436 10 440 -5 4 -7 32 -4 70 l6 64 350 -6 c277 -4
352 -8 358 -19 13 -20 11 -108 -2 -108 -11 0 -8 -261 6 -505 9 -158 15 -313
17 -452 l3 -143 40 2 c30 1 33 2 13 5 -35 5 -35 19 -3 45 27 21 32 43 13 51
-7 3 7 6 32 8 25 1 117 5 205 9 l160 8 -199 -2 c-144 -1 -200 2 -203 11 -2 6
4 14 15 17 18 6 19 15 16 124 -2 64 -8 270 -14 457 -5 187 -13 469 -16 628
l-7 287 -26 0 c-14 0 -207 1 -429 2 l-402 3 0 -72z m401 7 c4 -8 1 -18 -5 -22
-8 -5 -7 -8 2 -8 7 0 15 7 19 16 4 12 9 8 20 -15 8 -16 22 -32 31 -34 10 -2
-9 -4 -41 -4 -63 -1 -68 4 -15 18 26 7 22 8 -19 3 -32 -3 -53 -1 -53 5 0 6 -6
8 -14 5 -8 -3 -17 -1 -21 5 -3 6 -15 11 -26 11 -15 0 -19 -6 -17 -22 2 -11 -3
-23 -9 -25 -8 -3 -13 4 -13 16 0 11 -4 23 -10 26 -24 15 -6 25 43 26 39 0 47
3 32 9 -14 7 -4 9 35 7 38 -1 57 -7 61 -17z m-82 -59 c11 -7 11 -13 -3 -32 -9
-13 -17 -19 -17 -14 -8 58 -6 62 20 46z m288 -17 c-3 -3 -12 -4 -19 -1 -8 3
-5 6 6 6 11 1 17 -2 13 -5z m-577 -194 c0 -5 -5 -10 -11 -10 -5 0 -7 5 -4 10
3 6 8 10 11 10 2 0 4 -4 4 -10z m40 0 c0 -5 -4 -10 -9 -10 -6 0 -13 5 -16 10
-3 6 1 10 9 10 9 0 16 -4 16 -10z m770 -2 c0 -10 -1 -10 -394 -12 -234 -1
-333 2 -344 10 -12 9 74 11 361 10 207 0 377 -4 377 -8z m-37 -37 c15 -1 27
-5 27 -11 0 -6 -91 -10 -253 -10 -288 0 -557 10 -557 20 0 5 624 6 783 1z
m-756 -108 c-2 -16 -4 -3 -4 27 0 30 2 43 4 28 2 -16 2 -40 0 -55z m773 -43
c0 -27 -4 -50 -10 -50 -5 0 -11 -33 -13 -72 l-3 -73 -2 78 c-1 47 2 77 8 77 6
0 9 18 6 45 -2 25 0 45 5 45 5 0 9 -22 9 -50z m-778 -15 c-2 -15 0 -25 7 -25
7 0 10 -21 9 -57 l-2 -58 -3 53 c-2 28 -8 52 -14 52 -5 0 -9 14 -9 30 0 17 4
30 9 30 4 0 6 -11 3 -25z m1 -366 c-4 -5 -6 42 -3 104 l5 112 3 -104 c1 -57
-1 -108 -5 -112z m764 -21 c-2 -29 -3 -8 -3 47 0 55 1 79 3 53 2 -26 2 -71 0
-100z m-770 -135 c-2 -27 -3 -5 -3 47 0 52 1 74 3 48 2 -27 2 -69 0 -95z m780
-150 c-2 -32 -3 -6 -3 57 0 63 1 89 3 58 2 -32 2 -84 0 -115z m-790 -40 c-2
-27 -3 -5 -3 47 0 52 1 74 3 48 2 -27 2 -69 0 -95z m-10 -195 c-2 -24 -4 -5
-4 42 0 47 2 66 4 43 2 -24 2 -62 0 -85z m810 -15 c-2 -27 -3 -5 -3 47 0 52 1
74 3 48 2 -27 2 -69 0 -95z"/>
<path d="M4608 1573 c6 -2 18 -2 25 0 6 3 1 5 -13 5 -14 0 -19 -2 -12 -5z"/>
<path d="M3201 1574 c0 -11 3 -14 6 -6 3 7 2 16 -1 19 -3 4 -6 -2 -5 -13z"/>
<path d="M3162 1455 c0 -16 2 -22 5 -12 2 9 2 23 0 30 -3 6 -5 -1 -5 -18z"/>
<path d="M4351 1168 c0 -24 3 -37 6 -30 13 32 18 5 12 -60 -4 -40 -9 -154 -13
-253 -4 -99 -9 -220 -12 -270 -4 -69 -3 -87 6 -75 10 12 11 10 5 -10 -3 -14
-8 -33 -10 -42 -2 -10 2 -21 8 -24 7 -4 9 -4 5 1 -4 4 -4 13 1 19 5 6 14 153
20 326 7 173 14 336 16 362 2 26 1 47 -3 47 -4 -1 -14 -1 -22 0 -13 1 -13 2 0
11 10 6 11 10 3 10 -7 0 -13 5 -13 10 0 6 7 10 15 10 8 0 15 -7 15 -15 0 -13
24 -15 168 -13 l167 2 -162 3 c-136 3 -163 6 -163 18 0 9 -10 15 -25 15 -23 0
-25 -4 -24 -42z"/>
<path d="M4508 1203 c7 -3 16 -2 19 1 4 3 -2 6 -13 5 -11 0 -14 -3 -6 -6z"/>
<path d="M6325 1178 c2 -13 7 -50 10 -83 3 -33 10 -76 15 -95 9 -32 9 -31 5
15 -13 150 -19 185 -27 185 -4 0 -6 -10 -3 -22z"/>
<path d="M4817 1173 c18 -2 50 -2 70 0 21 2 7 4 -32 4 -38 0 -55 -2 -38 -4z"/>
<path d="M4991 1168 c-1 -9 -7 -19 -13 -21 -9 -4 -8 -6 2 -6 10 -1 11 -4 4 -9
-7 -5 -8 -62 -3 -187 4 -99 8 -241 10 -315 1 -74 4 -124 7 -110 l5 25 8 -25
c8 -25 7 26 -7 418 -5 142 -4 192 5 192 6 0 11 12 11 28 0 19 -3 23 -9 13 -7
-11 -9 -11 -14 0 -4 10 -6 9 -6 -3z"/>
<path d="M6960 1153 c0 -14 59 -16 150 -4 51 7 48 8 -48 12 -77 3 -102 1 -102
-8z"/>
<path d="M7178 1153 c7 -3 16 -2 19 1 4 3 -2 6 -13 5 -11 0 -14 -3 -6 -6z"/>
<path d="M4420 1133 c-1 -45 -30 -845 -36 -980 l-7 -153 116 0 c66 0 118 4
122 10 3 6 11 10 16 10 6 0 7 -4 4 -10 -3 -5 -2 -10 4 -10 5 0 12 10 14 23 l4
22 2 -22 c1 -19 7 -23 31 -23 17 0 30 5 30 12 0 9 3 9 12 0 16 -16 60 -15 77
0 11 11 13 11 7 0 -6 -9 13 -12 80 -12 l87 0 -7 183 c-10 281 -25 803 -26 890
l0 77 -265 0 c-246 0 -265 -1 -265 -17z m92 -65 c-9 -9 -15 -9 -24 0 -9 9 -7
12 12 12 19 0 21 -3 12 -12z m113 2 c-3 -5 -12 -10 -20 -10 -8 0 -17 5 -20 10
-4 6 5 10 20 10 15 0 24 -4 20 -10z m42 -22 c-3 -7 -5 -2 -5 12 0 14 2 19 5
13 2 -7 2 -19 0 -25z m40 -20 c-2 -13 -4 -5 -4 17 -1 22 1 32 4 23 2 -10 2
-28 0 -40z m76 41 c-8 -8 -16 -8 -30 0 -16 9 -14 10 12 11 21 0 26 -3 18 -11z
m99 -1 c-9 -9 -15 -9 -24 0 -9 9 -7 12 12 12 19 0 21 -3 12 -12z m-413 -12 c9
-10 8 -16 -4 -26 -13 -11 -15 -8 -15 14 0 30 3 32 19 12z m110 0 c9 -10 8 -16
-4 -26 -13 -11 -15 -8 -15 14 0 30 3 32 19 12z m160 0 c9 -10 8 -16 -4 -26
-13 -11 -15 -8 -15 14 0 30 3 32 19 12z m71 -12 c0 -22 -2 -25 -15 -14 -12 10
-13 16 -4 26 16 20 19 18 19 -12z m104 -23 c-2 -2 -10 2 -19 9 -12 10 -13 16
-3 28 11 13 13 11 19 -9 3 -13 4 -26 3 -28z m23 2 c-3 -10 -5 -2 -5 17 0 19 2
27 5 18 2 -10 2 -26 0 -35z m-397 16 c0 -18 -2 -19 -15 -9 -15 12 -12 30 6 30
5 0 9 -10 9 -21z m110 1 c0 -13 -5 -18 -15 -14 -16 7 -19 17 -8 27 12 13 23 7
23 -13z m192 5 c0 -5 -5 -11 -10 -13 -5 -1 -9 4 -9 13 0 9 4 14 9 13 5 -2 10
-8 10 -13z m-327 -25 c3 -5 -3 -10 -15 -10 -12 0 -18 5 -15 10 3 6 10 10 15
10 5 0 12 -4 15 -10z m99 1 c3 -5 -3 -11 -14 -14 -20 -5 -26 3 -13 16 9 10 21
9 27 -2z m176 -7 c0 -2 -12 -4 -27 -4 -21 0 -24 3 -14 9 13 8 41 5 41 -5z m98
-2 c2 -7 -7 -12 -23 -12 -24 0 -26 2 -15 15 14 17 31 16 38 -3z m-375 -33 c-8
-8 -16 -8 -30 0 -16 9 -14 10 12 11 21 0 26 -3 18 -11z m104 0 c-14 -8 -22 -8
-30 0 -8 8 -3 11 19 11 25 -1 27 -2 11 -11z m50 -41 c-2 -13 -4 -5 -4 17 -1
22 1 32 4 23 2 -10 2 -28 0 -40z m118 42 c-3 -5 -12 -10 -20 -10 -8 0 -17 5
-20 10 -4 6 5 10 20 10 15 0 24 -4 20 -10z m102 -1 c-14 -8 -22 -8 -30 0 -8 8
-3 11 19 11 25 -1 27 -2 11 -11z m-418 -13 c9 -10 8 -16 -4 -26 -13 -11 -15
-8 -15 14 0 30 3 32 19 12z m71 -12 c0 -22 -2 -25 -15 -14 -12 10 -13 16 -4
26 16 20 19 18 19 -12z m36 -13 c-19 -19 -30 -9 -21 19 5 17 9 19 21 9 13 -11
13 -14 0 -28z m70 -8 c-3 -3 -13 0 -22 8 -14 12 -14 14 3 27 16 11 18 11 21
-8 2 -12 1 -24 -2 -27z m61 0 c-3 -10 -5 -2 -5 17 0 19 2 27 5 18 2 -10 2 -26
0 -35z m32 33 c9 -10 8 -16 -4 -26 -13 -11 -15 -8 -15 14 0 30 3 32 19 12z
m69 -21 c-2 -10 -7 -12 -17 -5 -13 7 -13 11 -1 25 15 18 24 8 18 -20z m110 0
c-2 -10 -7 -12 -17 -5 -13 7 -13 11 -1 25 15 18 24 8 18 -20z m-73 5 c0 -22
-21 -22 -22 1 -1 12 3 19 10 16 7 -2 12 -10 12 -17z m-330 -20 c4 -6 -5 -10
-20 -10 -15 0 -24 4 -20 10 3 6 12 10 20 10 8 0 17 -4 20 -10z m105 -5 c11
-13 8 -15 -14 -13 -26 2 -32 9 -19 21 10 11 19 8 33 -8z m168 -2 c2 -8 -6 -13
-22 -13 -25 0 -33 10 -19 24 10 10 36 3 41 -11z m102 2 c11 -13 8 -15 -20 -15
-28 0 -31 2 -20 15 7 8 16 15 20 15 4 0 13 -7 20 -15z m-97 -32 c-13 -2 -35
-2 -50 0 -16 2 -5 4 22 4 28 0 40 -2 28 -4z m100 -20 c-13 -2 -33 -2 -45 0
-13 2 -3 4 22 4 25 0 35 -2 23 -4z m-386 -24 c-14 -8 -22 -8 -30 0 -8 8 -3 11
19 11 25 -1 27 -2 11 -11z m200 -41 c-2 -13 -4 -5 -4 17 -1 22 1 32 4 23 2
-10 2 -28 0 -40z m183 37 c-9 -11 -17 -12 -31 -4 -27 14 -24 19 12 19 27 0 30
-2 19 -15z m-354 -43 c-4 -3 -11 -1 -18 6 -8 8 -8 15 3 28 13 16 14 16 17 -5
2 -13 1 -25 -2 -29z m40 9 c-13 -20 -26 -11 -26 16 0 25 1 26 16 11 9 -9 13
-21 10 -27z m170 0 c-13 -20 -26 -11 -26 16 0 25 1 26 16 11 9 -9 13 -21 10
-27z m62 4 c-2 -10 -7 -12 -17 -5 -13 7 -13 11 -1 25 15 18 24 8 18 -20z
m-343 5 c0 -7 -5 -15 -10 -17 -6 -2 -11 6 -11 17 0 11 5 19 11 17 5 -2 10 -10
10 -17z m175 -1 c0 -11 -4 -17 -10 -14 -5 3 -10 13 -10 21 0 8 5 14 10 14 6 0
10 -9 10 -21z m202 -11 c-9 -9 -12 -7 -12 12 0 19 3 21 12 12 9 -9 9 -15 0
-24z m78 12 c0 -11 -4 -20 -9 -20 -14 0 -23 18 -16 30 10 17 25 11 25 -10z
m-410 -25 c11 -13 8 -15 -20 -15 -28 0 -31 2 -20 15 7 8 16 15 20 15 4 0 13
-7 20 -15z m120 -10 c0 -3 -14 -5 -31 -5 -27 0 -30 2 -19 15 9 11 17 12 31 4
10 -5 19 -12 19 -14z m155 5 c4 -6 -5 -10 -20 -10 -15 0 -24 4 -20 10 3 6 12
10 20 10 8 0 17 -4 20 -10z m105 0 c11 -7 6 -10 -20 -10 -26 0 -31 3 -20 10 8
5 17 10 20 10 3 0 12 -5 20 -10z m-380 -32 c0 -16 -23 -19 -37 -5 -14 13 -13
15 11 14 14 -1 26 -5 26 -9z m107 -5 c-16 -16 -18 -16 -34 0 -16 16 -15 17 17
17 32 0 33 -1 17 -17z m90 -45 c-2 -13 -4 -5 -4 17 -1 22 1 32 4 23 2 -10 2
-28 0 -40z m73 48 c0 -11 -19 -15 -25 -6 -3 5 1 10 9 10 9 0 16 -2 16 -4z
m110 -2 c0 -8 -19 -13 -24 -6 -3 5 1 9 9 9 8 0 15 -2 15 -3z m-360 -30 c0 -22
-2 -25 -15 -14 -12 10 -13 16 -4 26 16 20 19 18 19 -12z m39 12 c9 -10 8 -16
-4 -26 -13 -11 -15 -8 -15 14 0 30 3 32 19 12z m71 -12 c0 -22 -2 -25 -15 -14
-12 10 -13 16 -4 26 16 20 19 18 19 -12z m99 12 c9 -10 8 -16 -4 -26 -13 -11
-15 -8 -15 14 0 30 3 32 19 12z m71 -12 c0 -22 -2 -25 -15 -14 -12 10 -13 16
-4 26 16 20 19 18 19 -12z m110 0 c0 -22 -2 -25 -15 -14 -12 10 -13 16 -4 26
16 20 19 18 19 -12z m-66 7 c3 -5 -1 -14 -9 -21 -13 -10 -15 -9 -15 9 0 21 14
28 24 12z m-79 -31 c3 -5 -3 -10 -15 -10 -12 0 -18 5 -15 10 3 6 10 10 15 10
5 0 12 -4 15 -10z m120 -1 c10 -15 2 -19 -24 -12 -17 4 -19 8 -9 14 18 12 26
11 33 -2z m-285 -84 c-10 -12 -16 -13 -29 -3 -9 7 -18 14 -20 15 -2 2 10 3 29
3 28 0 31 -2 20 -15z m170 0 c-10 -12 -16 -13 -29 -3 -9 7 -18 14 -20 15 -2 2
10 3 29 3 28 0 31 -2 20 -15z m110 0 c-10 -12 -16 -13 -26 -4 -20 16 -18 19
12 19 22 0 25 -2 14 -15z m-430 -20 c0 -8 -4 -17 -10 -20 -6 -4 -10 5 -10 20
0 15 4 24 10 20 6 -3 10 -12 10 -20z m68 -10 c-2 -10 -7 -12 -17 -5 -13 7 -13
11 -1 25 15 18 24 8 18 -20z m282 3 c0 -30 -1 -31 -17 -16 -13 14 -14 20 -3
32 18 22 20 20 20 -16z m-247 -3 c-7 -21 -13 -19 -13 6 0 11 4 18 10 14 5 -3
7 -12 3 -20z m73 -1 c2 -12 -1 -13 -12 -3 -7 6 -11 16 -8 21 7 11 17 3 20 -18z
m103 12 c9 -10 8 -16 -4 -26 -13 -11 -15 -8 -15 14 0 30 3 32 19 12z m110 0
c9 -10 8 -16 -4 -26 -13 -11 -15 -8 -15 14 0 30 3 32 19 12z m-239 -31 c11
-13 8 -15 -21 -15 -32 1 -33 1 -15 15 24 18 21 18 36 0z m280 0 c11 -13 8 -15
-15 -15 -23 0 -26 2 -15 15 7 8 14 15 15 15 1 0 8 -7 15 -15z m-385 -5 c4 -6
-5 -10 -20 -10 -15 0 -24 4 -20 10 3 6 12 10 20 10 8 0 17 -4 20 -10z m280 0
c4 -6 -5 -10 -20 -10 -15 0 -24 4 -20 10 3 6 12 10 20 10 8 0 17 -4 20 -10z
m-184 -43 c-7 -7 -14 -8 -21 -1 -6 6 -2 10 12 11 16 2 18 -1 9 -10z m180 4
c-8 -5 -20 -7 -28 -4 -21 8 -15 13 15 13 20 0 23 -3 13 -9z m111 -3 c-9 -9
-15 -9 -24 0 -9 9 -7 12 12 12 19 0 21 -3 12 -12z m-455 -35 c-3 -10 -5 -4 -5
12 0 17 2 24 5 18 2 -7 2 -21 0 -30z m88 -11 c-12 -13 -24 22 -12 37 10 12 13
11 15 -8 2 -13 1 -26 -3 -29z m44 35 c8 -11 6 -18 -9 -32 -20 -18 -20 -17 -20
13 0 34 10 41 29 19z m71 -19 c-1 -31 -1 -32 -15 -14 -11 14 -12 23 -4 33 17
19 19 17 19 -19z m100 8 c0 -8 -4 -18 -10 -21 -5 -3 -10 3 -10 14 0 12 5 21
10 21 6 0 10 -6 10 -14z m177 -7 c2 -16 -1 -19 -9 -11 -5 5 -7 15 -4 21 10 15
12 14 13 -10z m-107 -5 c0 -8 -5 -12 -10 -9 -6 4 -8 11 -5 16 9 14 15 11 15
-7z m-310 -19 c11 -13 7 -15 -26 -15 -35 0 -37 1 -18 15 24 18 29 18 44 0z
m110 0 c11 -13 8 -15 -19 -15 -27 0 -30 2 -19 15 17 18 23 18 38 0z m290 0
c11 -13 7 -15 -26 -15 -35 0 -37 1 -18 15 24 18 29 18 44 0z m-135 -5 c3 -5
-1 -10 -10 -10 -9 0 -13 5 -10 10 3 6 8 10 10 10 2 0 7 -4 10 -10z m-262 -27
c-13 -2 -33 -2 -45 0 -13 2 -3 4 22 4 25 0 35 -2 23 -4z m130 -20 c-7 -2 -19
-2 -25 0 -7 3 -2 5 12 5 14 0 19 -2 13 -5z m-124 -26 c-2 -1 -11 -8 -20 -15
-13 -10 -19 -9 -29 3 -11 13 -8 15 20 15 19 0 31 -1 29 -3z m98 -14 c-16 -16
-18 -16 -34 0 -16 16 -15 17 17 17 32 0 33 -1 17 -17z m192 14 c-2 -1 -11 -8
-20 -15 -13 -10 -19 -9 -29 3 -11 13 -8 15 20 15 19 0 31 -1 29 -3z m-159 -39
c0 -30 -1 -31 -17 -16 -13 14 -14 20 -3 32 18 22 20 20 20 -16z m-180 7 c0 -1
-7 -8 -15 -15 -13 -10 -15 -9 -15 8 0 15 5 20 15 16 8 -4 15 -7 15 -9z m60 -5
c0 -13 -5 -18 -15 -14 -12 5 -13 10 -4 20 15 19 19 18 19 -6z m39 6 c9 -10 8
-15 -4 -20 -10 -4 -15 1 -15 14 0 24 4 25 19 6z m191 -6 c0 -4 -7 -13 -15 -20
-13 -11 -15 -8 -15 13 0 19 4 25 15 21 8 -4 15 -10 15 -14z m60 -2 c0 -16 -3
-19 -11 -11 -6 6 -8 16 -5 22 11 17 16 13 16 -11z m27 0 c-3 -8 -6 -5 -6 6 -1
11 2 17 5 13 3 -3 4 -12 1 -19z m83 2 c0 -5 -2 -10 -4 -10 -3 0 -8 5 -11 10
-3 6 -1 10 4 10 6 0 11 -4 11 -10z m-430 -25 c11 -13 8 -15 -21 -15 -31 0 -32
1 -13 15 10 8 20 15 20 15 1 0 7 -7 14 -15z m130 -11 c0 -2 -15 -4 -32 -3 -27
0 -29 2 -13 8 18 8 45 4 45 -5z m280 -4 c0 -5 -9 -6 -20 -3 -11 3 -17 9 -15
14 7 10 35 1 35 -11z m-410 -35 c-9 -11 -17 -12 -31 -4 -27 14 -24 19 12 19
27 0 30 -2 19 -15z m118 4 c-12 -7 -24 -7 -35 0 -15 9 -12 10 17 10 29 0 32
-1 18 -10z m49 -56 c-2 -16 -4 -5 -4 22 0 28 2 40 4 28 2 -13 2 -35 0 -50z
m-137 25 c0 -30 -1 -31 -17 -16 -13 14 -14 20 -3 32 18 22 20 20 20 -16z m116
-25 c-3 -3 -12 0 -21 7 -14 12 -14 15 2 33 18 19 18 19 21 -8 2 -15 1 -29 -2
-32z m218 39 c15 -18 15 -20 -4 -37 -20 -18 -20 -18 -20 18 0 43 1 43 24 19z
m-413 -6 c5 3 9 0 9 -5 0 -6 -7 -11 -15 -11 -8 0 -15 8 -14 18 0 10 3 12 6 4
2 -6 9 -10 14 -6z m124 -6 c0 -7 -6 -15 -12 -17 -8 -3 -13 4 -13 17 0 13 5 20
13 18 6 -3 12 -11 12 -18z m181 9 c3 -6 -1 -18 -10 -27 -15 -15 -16 -14 -16
11 0 27 13 36 26 16z m176 -11 c-7 -7 -12 -8 -12 -2 0 14 12 26 19 19 2 -3 -1
-11 -7 -17z m-302 -38 c0 -6 -16 -10 -37 -10 -35 0 -36 0 -18 20 13 15 22 17
36 9 11 -5 19 -14 19 -19z m-145 10 c-3 -5 -12 -10 -18 -10 -7 0 -6 4 3 10 19
12 23 12 15 0z m425 0 c8 -5 13 -10 10 -11 -56 -11 -63 -10 -50 5 15 18 20 19
40 6z m-282 -37 c-16 -2 -40 -2 -55 0 -16 2 -3 4 27 4 30 0 43 -2 28 -4z m180
0 c-16 -2 -40 -2 -55 0 -16 2 -3 4 27 4 30 0 43 -2 28 -4z m129 1 c-3 -3 -12
-4 -19 -1 -8 3 -5 6 6 6 11 1 17 -2 13 -5z m-414 -21 c-7 -2 -19 -2 -25 0 -7
3 -2 5 12 5 14 0 19 -2 13 -5z m85 0 c-10 -2 -28 -2 -40 0 -13 2 -5 4 17 4 22
1 32 -1 23 -4z m12 -32 c0 -16 -28 -20 -40 -5 -10 12 -8 14 14 14 14 0 26 -4
26 -9z m47 -53 c-2 -13 -4 -3 -4 22 0 25 2 35 4 23 2 -13 2 -33 0 -45z m-211
13 c-13 -20 -26 -11 -26 16 0 25 1 26 16 11 9 -9 13 -21 10 -27z m112 27 c17
-17 15 -26 -8 -38 -19 -10 -20 -8 -18 20 2 33 8 36 26 18z m79 -18 c0 -28 -2
-29 -15 -16 -13 12 -13 18 -2 30 17 21 17 21 17 -14z m108 0 c0 -7 -6 -15 -12
-17 -8 -3 -13 4 -13 17 0 13 5 20 13 18 6 -3 12 -11 12 -18z m125 0 c0 -5 -4
-10 -10 -10 -5 0 -10 5 -10 10 0 6 5 10 10 10 6 0 10 -4 10 -10z m-378 -42
c-4 -4 -17 -5 -30 -1 -17 4 -20 8 -11 19 8 10 15 11 30 1 10 -6 15 -15 11 -19z
m108 17 c11 -13 8 -15 -15 -15 -23 0 -26 2 -15 15 7 8 14 15 15 15 1 0 8 -7
15 -15z m187 -10 c2 -6 -8 -11 -22 -11 -25 0 -31 7 -18 20 10 9 36 3 40 -9z
m117 6 c3 -5 -3 -11 -14 -14 -20 -5 -35 5 -23 17 9 9 31 7 37 -3z m-306 -42
c-12 -7 -24 -7 -35 0 -15 9 -12 10 17 10 29 0 32 -1 18 -10z m185 0 c-8 -8
-16 -8 -30 0 -16 9 -14 10 12 11 21 0 26 -3 18 -11z"/>
<path d="M807 1116 c-8 -19 24 -29 74 -23 32 4 31 4 -8 5 -27 1 -45 8 -51 18
-8 15 -10 15 -15 0z"/>
<path d="M7205 1110 c-8 -13 -1 -24 14 -19 6 3 7 10 2 18 -6 10 -10 10 -16 1z"/>
<path d="M2155 1099 c-9 -14 0 -22 18 -17 13 2 13 5 2 15 -10 9 -16 9 -20 2z"/>
<path d="M2250 1100 c0 -6 32 -10 75 -10 43 0 75 4 75 10 0 6 -32 10 -75 10
-43 0 -75 -4 -75 -10z"/>
<path d="M7 1093 c7 -2 19 -2 26 0 6 3 1 5 -13 5 -14 0 -19 -2 -13 -5z"/>
<path d="M8269 1021 c14 -4 26 -12 29 -19 5 -16 -15 -16 -21 1 -4 7 -6 6 -6
-4 -1 -9 5 -19 12 -21 6 -3 262 -5 567 -6 305 0 547 2 537 4 -9 3 -15 10 -11
15 3 5 10 7 15 4 5 -4 9 1 9 11 0 16 -18 16 -225 12 -128 -4 -228 -2 -231 3
-3 5 -158 9 -352 8 -191 -1 -336 -4 -323 -8z m241 -31 c0 -5 -2 -10 -4 -10 -3
0 -8 5 -11 10 -3 6 -1 10 4 10 6 0 11 -4 11 -10z m630 -2 c0 -5 -28 -8 -62 -7
-38 1 -54 4 -40 7 32 9 102 9 102 0z m40 2 c0 -5 -4 -10 -10 -10 -5 0 -10 5
-10 10 0 6 5 10 10 10 6 0 10 -4 10 -10z m30 0 c0 -5 -2 -10 -4 -10 -3 0 -8 5
-11 10 -3 6 -1 10 4 10 6 0 11 -4 11 -10z m35 0 c3 -5 1 -10 -4 -10 -6 0 -11
5 -11 10 0 6 2 10 4 10 3 0 8 -4 11 -10z m-297 -7 c-16 -2 -40 -2 -55 0 -16 2
-3 4 27 4 30 0 43 -2 28 -4z m59 1 c-3 -3 -12 -4 -19 -1 -8 3 -5 6 6 6 11 1
17 -2 13 -5z m350 0 c-3 -3 -12 -4 -19 -1 -8 3 -5 6 6 6 11 1 17 -2 13 -5z"/>
<path d="M6362 925 c0 -16 2 -22 5 -12 2 9 2 23 0 30 -3 6 -5 -1 -5 -18z"/>
<path d="M6372 830 c0 -19 2 -27 5 -17 2 9 2 25 0 35 -3 9 -5 1 -5 -18z"/>
<path d="M6374 769 c-3 -6 -1 -16 5 -22 8 -8 11 -5 11 11 0 24 -5 28 -16 11z"/>
<path d="M6392 660 c0 -14 2 -19 5 -12 2 6 2 18 0 25 -3 6 -5 1 -5 -13z"/>
<path d="M6412 510 c0 -19 2 -27 5 -17 2 9 2 25 0 35 -3 9 -5 1 -5 -18z"/>
<path d="M6423 415 c0 -22 2 -30 4 -17 2 12 2 30 0 40 -3 9 -5 -1 -4 -23z"/>
<path d="M4332 275 c0 -16 2 -22 5 -12 2 9 2 23 0 30 -3 6 -5 -1 -5 -18z"/>
<path d="M5000 215 c0 -14 4 -25 9 -25 4 0 6 11 3 25 -2 14 -6 25 -8 25 -2 0
-4 -11 -4 -25z"/>
<path d="M2820 140 c-12 -8 -11 -10 7 -10 12 0 25 5 28 10 8 13 -15 13 -35 0z"/>
<path d="M2508 123 c6 -2 18 -2 25 0 6 3 1 5 -13 5 -14 0 -19 -2 -12 -5z"/>
<path d="M4138 123 c12 -2 30 -2 40 0 9 3 -1 5 -23 4 -22 0 -30 -2 -17 -4z"/>
<path d="M6788 113 c7 -3 16 -2 19 1 4 3 -2 6 -13 5 -11 0 -14 -3 -6 -6z"/>
<path d="M6888 113 c7 -3 16 -2 19 1 4 3 -2 6 -13 5 -11 0 -14 -3 -6 -6z"/>
<path d="M345 90 l-350 -5 407 -3 c263 -1 409 2 413 8 4 6 -17 9 -57 8 -35 -2
-220 -5 -413 -8z"/>
<path d="M1115 93 c402 -7 1285 -7 1285 0 0 4 -325 6 -722 5 -398 -1 -651 -4
-563 -5z"/>
<path d="M5023 85 c-11 -19 -4 -85 8 -85 5 0 9 23 9 50 0 53 -4 60 -17 35z"/>
<path d="M6987 83 c18 -2 50 -2 70 0 21 2 7 4 -32 4 -38 0 -55 -2 -38 -4z"/>
<path d="M2048 73 c18 -2 45 -2 60 0 15 2 0 4 -33 4 -33 0 -45 -2 -27 -4z"/>
<path d="M4341 64 c0 -11 3 -14 6 -6 3 7 2 16 -1 19 -3 4 -6 -2 -5 -13z"/>
<path d="M7623 73 c103 -2 271 -2 375 0 103 1 18 2 -188 2 -206 0 -291 -1
-187 -2z"/>
<path d="M2946 33 c-7 -22 -11 -23 -150 -23 -97 0 -146 4 -154 12 -9 9 -12 9
-12 0 0 -8 -42 -12 -142 -15 -79 -1 20 -4 220 -5 233 -1 361 1 357 8 -8 12
-83 33 -94 25 -5 -3 -11 1 -14 7 -2 8 -7 3 -11 -9z"/>
<path d="M4320 18 c0 -10 7 -18 15 -18 8 0 15 8 15 18 0 10 -7 19 -15 19 -8 0
-15 -9 -15 -19z"/>
<path d="M5305 10 l-120 -6 138 -2 c75 -1 137 0 137 2 0 9 -43 11 -155 6z"/>
<path d="M3822 3 c59 -2 158 -2 220 0 62 1 14 3 -107 3 -121 0 -172 -2 -113
-3z"/>
<path d="M5648 3 c7 -3 16 -2 19 1 4 3 -2 6 -13 5 -11 0 -14 -3 -6 -6z"/>
</g>
</svg>
